<?xml version="1.0" encoding="iso-8859-1"?>
<!-- Generator: Adobe Illustrator 19.0.0, SVG Export Plug-In . SVG Version: 6.00 Build 0)  -->
<svg fill="#fff" version="1.1" id="Capa_1" xmlns="http://www.w3.org/2000/svg" xmlns:xlink="http://www.w3.org/1999/xlink" x="0px" y="0px"
	 viewBox="0 0 512 512" style="enable-background:new 0 0 512 512;" xml:space="preserve">
<g>
	<g>
		<path d="M214.889,343.951c-4.142,0-7.5,3.358-7.5,7.5v7.44c0,4.142,3.358,7.5,7.5,7.5c4.142,0,7.5-3.358,7.5-7.5v-7.44
			C222.389,347.309,219.031,343.951,214.889,343.951z"/>
	</g>
</g>
<g>
	<g>
		<path d="M297.11,343.951c-4.142,0-7.5,3.358-7.5,7.5v7.44c0,4.142,3.358,7.5,7.5,7.5c4.142,0,7.5-3.358,7.5-7.5v-7.44
			C304.61,347.309,301.252,343.951,297.11,343.951z"/>
	</g>
</g>
<g>
	<g>
		<path d="M271.082,352.726c-3.119-2.726-7.857-2.409-10.583,0.711c-1.069,1.223-2.709,1.925-4.5,1.925
			c-1.79,0-3.43-0.702-4.5-1.925c-2.727-3.119-7.464-3.437-10.583-0.711s-3.437,7.464-0.711,10.583
			c3.92,4.482,9.676,7.053,15.795,7.053c6.119,0,11.875-2.571,15.793-7.053C274.519,360.19,274.201,355.452,271.082,352.726z"/>
	</g>
</g>
<g>
	<g>
		<path d="M458.894,499.47c-0.268-0.297-25.327-28.232-56.002-77.429h17.79c9.786,0,17.747-7.961,17.747-17.747v-10.459
			c0-9.786-7.961-17.748-17.747-17.748h-44.34c-16.696-31.219-31.338-63.526-43.622-96.24h14.686
			c9.786,0,17.748-7.961,17.748-17.747v-10.459c0-9.786-7.961-17.748-17.748-17.748h-30.318
			c-10.959-35.936-19.161-72.472-24.421-108.814h0.267c12.27,0,22.251-9.982,22.251-22.251c0-12.27-9.982-22.251-22.251-22.251
			h-15.619L270.72,13.35c-0.683-7.007-6.266-12.592-13.276-13.28C256.961,0.024,256.473,0,255.991,0
			c-7.64,0-13.964,5.738-14.711,13.347l-6.595,67.23h-15.619c-12.27,0-22.251,9.982-22.251,22.251s9.982,22.251,22.251,22.251h0.267
			c-5.26,36.342-13.462,72.879-24.42,108.814h-30.319c-9.786,0-17.748,7.961-17.748,17.748V262.1
			c0,9.786,7.961,17.747,17.748,17.747h14.686c-12.283,32.713-26.926,65.021-43.622,96.24H91.319
			c-9.786,0-17.747,7.961-17.747,17.748v10.459c0,9.786,7.961,17.747,17.747,17.747h17.79c-30.674,49.197-55.733,77.132-56,77.428
			c-1.99,2.198-2.497,5.363-1.294,8.073c1.203,2.71,3.89,4.458,6.855,4.458h83.188c4.142,0,7.5-3.358,7.5-7.5
			c0-29.492,48.836-54.407,106.642-54.407c57.806,0,106.642,24.916,106.642,54.407c0,4.142,3.358,7.5,7.5,7.5h83.188
			c2.964,0,5.65-1.747,6.854-4.456C461.387,504.835,460.881,501.67,458.894,499.47z M359.364,376.087h-15.795
			c-15.303-29.927-28.823-60.818-40.214-91.889c-0.525-1.433-1.05-2.88-1.579-4.351h14.931
			C328.708,312.51,343.023,344.807,359.364,376.087z M326.77,376.088H185.23c14.166-28.328,26.763-57.445,37.498-86.727
			c1.126-3.074,2.256-6.227,3.412-9.513h59.72c1.156,3.286,2.285,6.439,3.412,9.514C300.007,318.643,312.604,347.76,326.77,376.088z
			 M256,16.944l6.242,63.633h-12.484L256,16.944z M219.066,110.08c-3.998,0-7.251-3.253-7.251-7.251
			c0-3.999,3.253-7.251,7.251-7.251h73.866c3.999,0,7.251,3.253,7.251,7.251c0,3.998-3.253,7.251-7.251,7.251H219.066z
			 M234.491,125.08h43.018c5.145,36.327,13.168,72.855,23.9,108.814h-14.608c-8.576-29.317-15.413-59.073-20.343-88.533
			c-0.604-3.614-3.732-6.262-7.397-6.262h-6.12c-3.665,0-6.792,2.648-7.397,6.262c-4.93,29.461-11.768,59.217-20.343,88.533h-14.608
			C221.322,197.935,229.346,161.407,234.491,125.08z M271.188,233.894h-30.377c5.931-20.7,11.016-41.6,15.188-62.453
			C260.172,192.294,265.257,213.194,271.188,233.894z M164.595,264.848c-1.515,0-2.748-1.233-2.748-2.747v-10.459
			c0-1.515,1.232-2.748,2.748-2.748h182.81c1.515,0,2.748,1.232,2.748,2.748v10.459c0,1.515-1.232,2.747-2.748,2.747H164.595z
			 M195.292,279.848h14.931c-0.528,1.471-1.054,2.918-1.579,4.351c-11.391,31.071-24.911,61.962-40.214,91.889h-15.794
			C168.976,344.807,183.292,312.51,195.292,279.848z M376.97,497c-6.358-35.268-57.207-61.907-120.971-61.907
			S141.387,461.732,135.029,497H74.757c11.257-14.004,30.4-39.434,51.969-74.959h43.281c4.142,0,7.5-3.358,7.5-7.5
			c0-4.142-3.358-7.5-7.5-7.5H91.319c-1.515,0-2.747-1.232-2.747-2.747v-10.459c0-1.515,1.232-2.748,2.747-2.748H420.68
			c1.515,0,2.747,1.232,2.747,2.748v10.459c0,1.515-1.232,2.747-2.747,2.747H199.958c-4.142,0-7.5,3.358-7.5,7.5
			c0,4.142,3.358,7.5,7.5,7.5h185.315c21.568,35.525,40.711,60.955,51.969,74.959H376.97z"/>
	</g>
</g>
<g>
</g>
<g>
</g>
<g>
</g>
<g>
</g>
<g>
</g>
<g>
</g>
<g>
</g>
<g>
</g>
<g>
</g>
<g>
</g>
<g>
</g>
<g>
</g>
<g>
</g>
<g>
</g>
<g>
</g>
</svg>
