<?xml version="1.0" encoding="iso-8859-1"?>
<!-- Generator: Adobe Illustrator 19.0.0, SVG Export Plug-In . SVG Version: 6.00 Build 0)  -->
<svg version="1.1" id="Capa_1" xmlns="http://www.w3.org/2000/svg" xmlns:xlink="http://www.w3.org/1999/xlink" x="0px" y="0px"
	 viewBox="0 0 512 512" style="enable-background:new 0 0 512 512;" xml:space="preserve">
<g>
	<g>
		<path d="M194.272,25.113c-4.143,0-7.5,3.357-7.5,7.5v11.172c0,4.143,3.357,7.5,7.5,7.5s7.5-3.357,7.5-7.5V32.613
			C201.772,28.471,198.415,25.113,194.272,25.113z"/>
	</g>
</g>
<g>
	<g>
		<path d="M317.728,25.113c-4.143,0-7.5,3.357-7.5,7.5v11.172c0,4.143,3.357,7.5,7.5,7.5s7.5-3.357,7.5-7.5V32.613
			C325.228,28.47,321.871,25.113,317.728,25.113z"/>
	</g>
</g>
<g>
	<g>
		<path d="M276.171,37.361c-3.118-2.729-7.856-2.408-10.582,0.71c-2.32,2.654-5.815,4.177-9.589,4.177s-7.269-1.522-9.589-4.177
			c-2.726-3.119-7.465-3.436-10.582-0.71c-3.119,2.726-3.438,7.464-0.711,10.582c5.169,5.913,12.779,9.305,20.882,9.305
			c8.103,0,15.713-3.392,20.882-9.305C279.609,44.825,279.29,40.087,276.171,37.361z"/>
	</g>
</g>
<g>
	<g>
		<path d="M484.172,314.762V269.4c0-12.876-10.476-23.351-23.352-23.351h-31.23v-49.311h20.7c9.237,0,16.752-7.515,16.752-16.752
			v-15.833c0-9.237-7.515-16.753-16.752-16.753h-20.7v-14.982h20.7c9.237,0,16.752-7.516,16.752-16.753V99.832
			c0-9.237-7.515-16.752-16.752-16.752h-32.764V30.928C417.526,13.874,403.651,0,386.598,0H125.402
			c-17.054,0-30.929,13.874-30.929,30.928V83.08H61.71c-9.237,0-16.752,7.515-16.752,16.752v15.833
			c0,9.237,7.515,16.753,16.752,16.753h20.7V147.4h-20.7c-9.237,0-16.752,7.516-16.752,16.753v15.833
			c0,9.237,7.515,16.752,16.752,16.752h20.7v49.311H51.18c-12.876,0-23.352,10.476-23.352,23.352v45.361
			c0,10.252,6.645,18.977,15.852,22.109v122.866h-8.352c-4.143,0-7.5,3.357-7.5,7.5V504.5c0,4.143,3.357,7.5,7.5,7.5h441.344
			c4.143,0,7.5-3.357,7.5-7.5v-37.264c0-4.143-3.357-7.5-7.5-7.5h-8.352V336.871C477.527,333.739,484.172,325.015,484.172,314.762z
			 M109.474,30.928c0-8.782,7.146-15.928,15.929-15.928h261.195c8.783,0,15.929,7.146,15.929,15.928V83.08H296.105
			c-0.865-9.539-8.906-17.037-18.667-17.037h-42.877c-9.761,0-17.802,7.498-18.667,17.037h-106.42V30.928z M61.71,117.418
			c-0.966,0-1.752-0.786-1.752-1.753V99.832c0-0.966,0.786-1.752,1.752-1.752h161.607c4.143,0,7.5-3.357,7.5-7.5v-5.793
			c0-2.064,1.68-3.744,3.744-3.744h42.877c2.064,0,3.744,1.68,3.744,3.744v5.793c0,4.143,3.357,7.5,7.5,7.5H450.29
			c0.966,0,1.752,0.786,1.752,1.752v15.833c0,0.967-0.786,1.753-1.752,1.753H61.71z M414.59,132.418V147.4H97.41v-14.982H414.59z
			 M61.71,181.738c-0.966,0-1.752-0.786-1.752-1.752v-15.833c0-0.967,0.786-1.753,1.752-1.753h388.58
			c0.966,0,1.752,0.786,1.752,1.753v15.833c0,0.966-0.786,1.752-1.752,1.752H61.71z M414.59,196.738v49.311h-89.362v-49.311H414.59z
			 M310.227,196.738v49.311H201.772v-49.311H310.227z M469.172,474.736V497H42.828v-22.264H469.172z M58.68,459.736V338.113h47.098
			v121.623H58.68z M120.778,459.736V338.113h25.653v121.623H120.778z M161.431,459.736V338.113h15.367v121.623H161.431z
			 M191.797,459.736V338.113h41.519v121.623H191.797z M248.317,459.736V338.113h15.367v121.623H248.317z M278.683,459.736V338.113
			h41.519v121.623H278.683z M335.202,459.736V338.113h15.367v121.623H335.202z M365.57,459.736V338.113h25.653v121.623H365.57z
			 M406.223,459.736L406.223,459.736V338.113h47.098v121.623H406.223z M460.82,323.114H51.18c-4.605,0-8.352-3.746-8.352-8.352
			V269.4c0-4.605,3.746-8.352,8.352-8.352h68.842c4.143,0,7.5-3.357,7.5-7.5s-3.357-7.5-7.5-7.5H97.41v-49.311h89.362v49.311
			h-36.903c-4.143,0-7.5,3.357-7.5,7.5s3.357,7.5,7.5,7.5H460.82c4.605,0,8.352,3.746,8.352,8.352v45.362
			C469.172,319.367,465.426,323.114,460.82,323.114z"/>
	</g>
</g>
<g>
</g>
<g>
</g>
<g>
</g>
<g>
</g>
<g>
</g>
<g>
</g>
<g>
</g>
<g>
</g>
<g>
</g>
<g>
</g>
<g>
</g>
<g>
</g>
<g>
</g>
<g>
</g>
<g>
</g>
</svg>
