<?xml version="1.0" encoding="iso-8859-1"?>
<!-- Generator: Adobe Illustrator 19.0.0, SVG Export Plug-In . SVG Version: 6.00 Build 0)  -->
<svg version="1.1" id="Capa_1" xmlns="http://www.w3.org/2000/svg" xmlns:xlink="http://www.w3.org/1999/xlink" x="0px" y="0px"
	 viewBox="0 0 511.999 511.999" style="enable-background:new 0 0 511.999 511.999;" xml:space="preserve">
<g>
	<g>
		<path d="M253.434,277.128c-4.142,0-7.5,3.357-7.5,7.5v14.624c0,4.143,3.358,7.5,7.5,7.5c4.143,0,7.5-3.357,7.5-7.5v-14.624
			C260.935,280.485,257.577,277.128,253.434,277.128z"/>
	</g>
</g>
<g>
	<g>
		<path d="M415.036,277.128c-4.143,0-7.5,3.357-7.5,7.5v14.624c0,4.143,3.357,7.5,7.5,7.5s7.5-3.357,7.5-7.5v-14.624
			C422.536,280.485,419.179,277.128,415.036,277.128z"/>
	</g>
</g>
<g>
	<g>
		<path d="M359.114,292.587c-3.118-2.725-7.858-2.408-10.583,0.711c-3.478,3.978-8.689,6.259-14.296,6.259
			s-10.818-2.281-14.296-6.259c-2.724-3.119-7.463-3.436-10.583-0.711c-3.119,2.726-3.438,7.464-0.711,10.583
			c6.325,7.237,15.652,11.389,25.59,11.389s19.264-4.15,25.59-11.389C362.552,300.051,362.233,295.313,359.114,292.587z"/>
	</g>
</g>
<g>
	<g>
		<path d="M506.526,249.892c-9.296-32.016-29.759-64.064-60.821-95.257c-23.833-23.932-53.404-47.149-90.405-70.98
			c-12.796-8.241-29.333-8.241-42.131,0c-21.441,13.81-40.373,27.415-57.153,41.07c-16.875-13.737-35.624-27.214-57.138-41.07
			c-12.71-8.187-29.429-8.18-42.13,0c-37,23.83-66.572,47.048-90.404,70.98c-31.062,31.192-51.525,63.241-60.822,95.257
			c-14.688,50.586,0.732,120.403,36.665,166.01c9.324,11.835,23.351,18.622,38.484,18.622h156.422h194.283
			c15.134,0,29.161-6.787,38.483-18.622c7.542-9.572,14.337-20.463,20.194-32.371c1.829-3.717,0.298-8.213-3.419-10.041
			c-3.717-1.833-8.214-0.299-10.041,3.419c-5.395,10.966-11.625,20.961-18.518,29.709c-6.46,8.201-16.192,12.905-26.701,12.905
			H237.093c-10.508,0-20.24-4.703-26.702-12.905c-28.637-36.349-43.422-87.692-37.824-133.697
			c6.561-54.742,47.635-98.931,88.265-132.714c0.065-0.054,0.122-0.116,0.185-0.172c17.419-14.533,37.363-29.013,60.274-43.768
			c7.864-5.063,18.024-5.063,25.887,0c36.083,23.238,64.835,45.794,87.898,68.953c29.267,29.388,48.459,59.283,57.045,88.854
			c7.915,27.264,6.182,62.299-4.755,96.125c-1.273,3.941,0.888,8.171,4.829,9.445c3.944,1.27,8.171-0.889,9.445-4.829
			C513.477,318.207,515.258,279.963,506.526,249.892z M229.419,148.136c-14.232-11.299-30.182-22.693-47.524-33.937
			c-2.482-1.609-5.678-1.609-8.161,0c-13.706,8.886-26.616,17.909-38.371,26.821c-3.301,2.502-3.948,7.206-1.446,10.508
			s7.206,3.949,10.509,1.446c10.294-7.803,21.507-15.703,33.39-23.522c14.809,9.748,28.521,19.582,40.896,29.333
			c-0.049,0.051-0.096,0.101-0.144,0.152c-19.471,20.351-36.856,43.132-48.472,68.925c-17.609,39.101-16.899,82.807-4.486,123.355
			c0.028,0.091,0.058,0.182,0.086,0.272c3.475,11.391,7.904,22.517,13.243,33.164H81.059
			c-25.668-32.87-37.806-85.846-27.643-120.852c8.701-29.969,31.896-61.28,68.937-93.066c3.144-2.697,3.505-7.432,0.808-10.576
			c-2.697-3.145-7.433-3.505-10.577-0.808C73.292,193.066,48.539,226.8,39.009,259.617c-11.41,39.297,2.017,98.467,30.567,134.703
			c2.629,3.339,6.777,5.332,11.095,5.332h106.626c3.507,5.676,7.271,11.123,11.311,16.249c0.96,1.218,2.05,2.474,3.148,3.621H80.672
			v0.001c-10.508,0-20.24-4.703-26.702-12.905C21.338,365.201,6.703,299.622,19.928,254.076
			c8.586-29.572,27.779-59.468,57.045-88.855c23.062-23.159,51.814-45.715,87.897-68.953c7.823-5.038,18.064-5.038,25.886,0
			c20.097,12.944,37.703,25.525,53.568,38.289C239.134,139.067,234.168,143.591,229.419,148.136z"/>
	</g>
</g>
<g>
</g>
<g>
</g>
<g>
</g>
<g>
</g>
<g>
</g>
<g>
</g>
<g>
</g>
<g>
</g>
<g>
</g>
<g>
</g>
<g>
</g>
<g>
</g>
<g>
</g>
<g>
</g>
<g>
</g>
</svg>
