<?xml version="1.0" encoding="iso-8859-1"?>
<!-- Generator: Adobe Illustrator 19.0.0, SVG Export Plug-In . SVG Version: 6.00 Build 0)  -->
<svg version="1.1" id="Capa_1" xmlns="http://www.w3.org/2000/svg" xmlns:xlink="http://www.w3.org/1999/xlink" x="0px" y="0px"
	 viewBox="0 0 512.001 512.001" style="enable-background:new 0 0 512.001 512.001;" xml:space="preserve">
<g>
	<g>
		<path d="M158.929,136.691h-25.177c-4.142,0-7.5,3.357-7.5,7.5v25.178c0,4.143,3.358,7.5,7.5,7.5h25.177c4.142,0,7.5-3.357,7.5-7.5
			v-25.178C166.428,140.048,163.071,136.691,158.929,136.691z M151.429,161.87h-10.178v-10.179h10.178V161.87z"/>
	</g>
</g>
<g>
	<g>
		<path d="M158.929,191.069h-25.177c-4.142,0-7.5,3.357-7.5,7.5v25.178c0,4.143,3.358,7.5,7.5,7.5h25.177c4.142,0,7.5-3.357,7.5-7.5
			v-25.178C166.428,194.426,163.071,191.069,158.929,191.069z M151.429,216.247h-10.178v-10.179h10.178V216.247z"/>
	</g>
</g>
<g>
	<g>
		<path d="M211.852,168.203c-4.142,0-7.5,3.358-7.5,7.5v7.989c0,4.143,3.358,7.5,7.5,7.5s7.5-3.357,7.5-7.5v-7.989
			C219.351,171.56,215.994,168.203,211.852,168.203z"/>
	</g>
</g>
<g>
	<g>
		<path d="M300.13,168.204c-4.142,0-7.5,3.357-7.5,7.5v7.989c0,4.143,3.358,7.5,7.5,7.5s7.5-3.358,7.5-7.5v-7.989
			C307.63,171.561,304.272,168.204,300.13,168.204z"/>
	</g>
</g>
<g>
	<g>
		<path d="M271.82,177.488c-3.119-2.726-7.857-2.407-10.583,0.712c-1.252,1.434-3.165,2.256-5.247,2.256s-3.994-0.822-5.248-2.256
			c-2.727-3.121-7.464-3.437-10.583-0.711c-3.118,2.726-3.437,7.464-0.711,10.582c4.103,4.693,10.131,7.385,16.541,7.385
			c6.412,0,12.441-2.691,16.541-7.385C275.258,184.951,274.939,180.213,271.82,177.488z"/>
	</g>
</g>
<g>
	<g>
		<path d="M378.23,136.691h-25.177c-4.142,0-7.5,3.357-7.5,7.5v25.178c0,4.143,3.358,7.5,7.5,7.5h25.177c4.142,0,7.5-3.357,7.5-7.5
			v-25.178C385.73,140.048,382.372,136.691,378.23,136.691z M370.73,161.87h-10.178v-10.179h10.178V161.87z"/>
	</g>
</g>
<g>
	<g>
		<path d="M378.23,191.069h-25.177c-4.142,0-7.5,3.357-7.5,7.5v25.178c0,4.143,3.358,7.5,7.5,7.5h25.177c4.142,0,7.5-3.357,7.5-7.5
			v-25.178C385.73,194.426,382.372,191.069,378.23,191.069z M370.73,216.247h-10.178v-10.179h10.178V216.247z"/>
	</g>
</g>
<g>
	<g>
		<path d="M504.481,311.71h-6.946v-63.159c2.831,0.583,4.812,0.926,5.735,1.077c0.406,0.068,0.81,0.099,1.211,0.098
			c3.479-0.01,6.655-2.494,7.369-5.992c0.101-0.495,0.151-1.001,0.151-1.506c0-0.188-0.007-0.373-0.021-0.557l-0.014-22.746
			c0.169-2.788-1.24-5.497-3.73-6.938c-0.782-0.453-1.623-0.764-2.515-0.914c-0.639-0.109-63.28-11.229-93.208-52.342
			c0,0,0-47.458,0-47.467c0-1.734-0.357-3.4-1.42-4.817c0,0-29.937-47.544-29.953-47.569c-7.066-11.222-23.945-11.203-30.998,0
			l-30.219,47.993c-0.745,1.183-1.153,2.597-1.153,3.996v31.574h-66.126c-4.142,0-7.5,3.357-7.5,7.5c0,4.143,3.358,7.5,7.5,7.5
			h66.126v49.998H193.211v-49.998h29.532c4.142,0,7.5-3.357,7.5-7.5c0-4.143-3.358-7.5-7.5-7.5h-29.532v-31.574
			c0-1.402-0.411-2.809-1.153-3.996L161.84,58.879c-3.374-5.358-9.167-8.558-15.499-8.558s-12.126,3.199-15.499,8.558
			c0,0-30.218,47.99-30.219,47.993c-0.744,1.182-1.154,2.598-1.154,3.996v47.864c-29.927,41.11-92.569,52.233-93.206,52.342
			c-0.468,0.081-0.935,0.209-1.38,0.375c-3.023,1.125-5.062,4.111-4.867,7.457c0,0-0.015,23.295-0.015,23.317
			c-0.003,4.552,4.222,8.145,8.717,7.405c0.916-0.15,2.897-0.493,5.729-1.076v63.159H7.501c-4.142,0-7.5,3.357-7.5,7.5v24.541
			c0,4.143,3.358,7.5,7.5,7.5h77.578v21.229c-4.002-0.983-7.88-2.466-11.513-4.439c-19.649-10.674-48.022-10.683-67.685,0
			c-2.416,1.313-3.92,3.842-3.92,6.591v79.548c0,4.143,3.358,7.5,7.5,7.5h495.021c4.142,0,7.5-3.357,7.5-7.5v-79.548
			c0-2.749-1.504-5.278-3.92-6.591c-9.098-4.941-21.439-7.663-34.753-7.663s-25.655,2.722-34.753,7.663
			c-3.674,1.996-7.601,3.487-11.652,4.47v-21.259h77.577c4.142,0,7.5-3.357,7.5-7.5V319.21
			C511.981,315.067,508.623,311.71,504.481,311.71z M412.513,181.552c28.671,28.099,69.027,39.518,84.458,43.034l0.005,8.513
			c-8.049-1.806-20.618-5.133-34.735-10.717c-0.343-0.167-0.697-0.316-1.067-0.43c-9.34-3.75-19.312-8.483-29.081-14.413
			c-0.068-0.046-0.14-0.085-0.209-0.129c-6.645-4.046-13.191-8.64-19.371-13.86V181.552z M482.536,244.915v66.796h-16.074V239.9
			C472.293,241.931,477.72,243.584,482.536,244.915z M451.462,234.123v77.587h-16.074v-85.15
			C440.818,229.391,446.216,231.902,451.462,234.123z M412.512,212.546c2.596,1.87,5.226,3.652,7.876,5.349v93.817h-0.984v-0.001
			h-6.892V212.546z M362.836,66.872c1.262-2.004,4.309-2.071,5.612,0l22.98,36.498h-51.573
			C339.855,103.369,362.829,66.882,362.836,66.872z M333.77,118.369h63.744v193.342h0h-9.344v-42.202
			c0-12.423-10.106-22.528-22.528-22.528c-12.422,0-22.528,10.106-22.528,22.528v42.202h-9.344V118.369z M373.17,269.509v42.202
			h-15.057v-42.202c0-4.151,3.377-7.529,7.529-7.529S373.17,265.358,373.17,269.509z M319.379,326.711h92.525v47.02
			c-6.76-0.517-13.386-2.448-19.354-5.689c-18.67-10.14-41.792-10.14-60.463,0c-3.967,2.155-8.269,3.745-12.709,4.715V326.711z
			 M207.602,336.252v-9.542h96.777v9.542H207.602z M304.379,351.252v22.366c-6.344-0.645-12.543-2.526-18.157-5.576
			c-18.631-10.12-41.696-10.117-60.324,0c-5.656,3.072-11.905,4.958-18.296,5.589v-22.379H304.379z M200.122,311.712
			c-0.007,0-0.013-0.001-0.019-0.001h-6.891v-61.205h125.558v61.205h0h-6.891L200.122,311.712z M193.211,222.441h125.559v13.067
			H193.211V222.441z M143.534,66.872c1.288-2.046,4.334-2.03,5.612,0l22.98,36.498h-51.573L143.534,66.872z M114.469,118.369h63.745
			v193.342h-0.001h-9.344v-42.202c0-12.423-10.106-22.528-22.528-22.528c-12.423,0-22.528,10.106-22.528,22.528v42.202h-9.344
			V118.369z M153.869,269.509v42.202h-15.057v-42.202c0-4.151,3.377-7.529,7.529-7.529
			C150.491,261.98,153.869,265.358,153.869,269.509z M100.077,326.712h92.525v46.035c-2.456-0.538-7.292-2.188-7.328-2.202
			c-1.823-0.732-3.613-1.545-5.34-2.481c-0.014-0.007-0.027-0.014-0.041-0.021c-9.225-4.988-19.672-7.664-30.162-7.664
			c-10.479,0-20.974,2.615-30.163,7.663c-0.014,0.008-0.029,0.014-0.043,0.022c-5.941,3.22-12.573,5.129-19.302,5.667
			c-0.049,0.004-0.098,0.01-0.147,0.014V326.712z M15.011,224.586c15.431-3.517,55.789-14.936,84.458-43.034v11.999
			c-6.196,5.235-12.762,9.84-19.425,13.894c-0.05,0.032-0.102,0.06-0.151,0.093c-9.585,5.819-19.726,10.731-30.152,14.845
			c-14.116,5.583-26.686,8.911-34.735,10.717L15.011,224.586z M99.469,212.544v99.166h-6.891h-0.985v-93.817
			C94.243,216.196,96.873,214.414,99.469,212.544z M76.594,226.561v85.151H60.52v-77.587
			C65.765,231.902,71.164,229.391,76.594,226.561z M45.52,239.899v71.811H29.446v-66.796
			C34.262,243.583,39.688,241.931,45.52,239.899z M15,336.252v-9.542h70.078v9.542H15z M445.715,381.224
			c6.837-3.715,16.894-5.845,27.593-5.845c8.805,0,17.174,1.443,23.673,4.023v67.278H16.959v-67.29
			c6.399-2.573,14.448-4.012,22.763-4.012c10.121,0,19.846,2.13,26.684,5.845c18.638,10.126,41.686,10.122,60.324,0
			c14.2-7.712,31.813-7.709,46.005,0c18.483,10.04,41.662,10.135,60.323,0c14.217-7.722,31.788-7.723,46.005,0
			c18.64,10.125,41.682,10.125,60.324,0c14.19-7.708,31.676-7.711,45.866,0C403.907,391.359,427.064,391.357,445.715,381.224z
			 M496.982,336.253h-70.078v-9.543h70.078V336.253z"/>
	</g>
</g>
<g>
</g>
<g>
</g>
<g>
</g>
<g>
</g>
<g>
</g>
<g>
</g>
<g>
</g>
<g>
</g>
<g>
</g>
<g>
</g>
<g>
</g>
<g>
</g>
<g>
</g>
<g>
</g>
<g>
</g>
</svg>
