<?xml version="1.0" encoding="iso-8859-1"?>
<!-- Generator: Adobe Illustrator 19.0.0, SVG Export Plug-In . SVG Version: 6.00 Build 0)  -->
<svg version="1.1" id="Capa_1" xmlns="http://www.w3.org/2000/svg" xmlns:xlink="http://www.w3.org/1999/xlink" x="0px" y="0px"
	 viewBox="0 0 512 512" style="enable-background:new 0 0 512 512;" xml:space="preserve">
<g>
	<g>
		<path d="M304.187,260.303l-43.842-31.168c-2.602-1.85-6.09-1.85-8.691,0l-44.183,31.41c-2.66,1.891-3.792,5.284-2.799,8.394
			c0.993,3.108,3.882,5.218,7.145,5.218h88.365c0.007,0,0.013,0,0.02,0c4.142,0,7.5-3.357,7.5-7.5
			C307.702,263.979,306.299,261.629,304.187,260.303z M235.311,259.157L256,244.449l20.689,14.708H235.311z"/>
	</g>
</g>
<g>
	<g>
		<path d="M139.56,217.294h-24.354c-4.142,0-7.5,3.357-7.5,7.5v35.441c0,4.143,3.358,7.5,7.5,7.5h24.354c4.142,0,7.5-3.357,7.5-7.5
			v-35.441C147.06,220.651,143.702,217.294,139.56,217.294z M132.06,252.735h-9.354v-20.441h9.354V252.735z"/>
	</g>
</g>
<g>
	<g>
		<path d="M88.213,217.294H63.859c-4.142,0-7.5,3.357-7.5,7.5v35.441c0,4.143,3.358,7.5,7.5,7.5h24.354c4.142,0,7.5-3.357,7.5-7.5
			v-35.441C95.713,220.651,92.355,217.294,88.213,217.294z M80.713,252.735h-9.354v-20.441h9.354V252.735z"/>
	</g>
</g>
<g>
	<g>
		<path d="M396.794,217.294H372.44c-4.142,0-7.5,3.357-7.5,7.5v35.441c0,4.143,3.358,7.5,7.5,7.5h24.354c4.142,0,7.5-3.357,7.5-7.5
			v-35.441C404.294,220.651,400.936,217.294,396.794,217.294z M389.294,252.735h-9.354v-20.441h9.354V252.735z"/>
	</g>
</g>
<g>
	<g>
		<path d="M448.141,217.294h-24.354c-4.142,0-7.5,3.357-7.5,7.5v35.441c0,4.143,3.358,7.5,7.5,7.5h24.354c4.142,0,7.5-3.357,7.5-7.5
			v-35.441C455.641,220.651,452.283,217.294,448.141,217.294z M440.641,252.735h-9.354v-20.441h9.354V252.735z"/>
	</g>
</g>
<g>
	<g>
		<path d="M175.862,92.733c-4.142,0-7.5,3.358-7.5,7.5v14.504c0,4.143,3.358,7.5,7.5,7.5c4.142,0,7.5-3.357,7.5-7.5v-14.504
			C183.362,96.09,180.004,92.733,175.862,92.733z"/>
	</g>
</g>
<g>
	<g>
		<path d="M336.138,92.733c-4.142,0-7.5,3.358-7.5,7.5v14.504c0,4.143,3.358,7.5,7.5,7.5c4.142,0,7.5-3.357,7.5-7.5v-14.504
			C343.638,96.09,340.28,92.733,336.138,92.733z"/>
	</g>
</g>
<g>
	<g>
		<path d="M280.715,108.081c-3.118-2.726-7.857-2.408-10.583,0.711c-3.437,3.932-8.587,6.187-14.132,6.187
			c-5.545,0-10.695-2.255-14.133-6.188c-2.726-3.119-7.464-3.436-10.583-0.71c-3.119,2.726-3.437,7.464-0.71,10.583
			c6.286,7.19,15.553,11.314,25.426,11.314c9.873,0,19.141-4.124,25.426-11.315C284.152,115.545,283.834,110.807,280.715,108.081z"
			/>
	</g>
</g>
<g>
	<g>
		<path d="M476.653,433.12V325.446c0,0,23.536-29.89,23.567-29.929c3.807-4.835,0.248-12.14-5.893-12.14h-17.674v-92.292
			l23.589-30.26c1.762-2.261,2.082-5.327,0.824-7.902s-3.873-4.209-6.739-4.209h-21.251c-12.122-17.112-26.931-32.358-44.071-45.357
			c-3.302-2.505-8.006-1.856-10.508,1.443c-2.503,3.301-1.857,8.005,1.443,10.508c12.957,9.827,24.473,21.025,34.369,33.406H57.694
			c34.92-43.634,83.65-64.2,119.74-73.844c42.938-11.475,77.968-10.475,78.314-10.464c0.164,0.004,0.333,0.006,0.5,0
			c0.011,0,0.04-0.001,0.089-0.002c2.947-0.076,74.529-1.366,138.845,34.722c3.613,2.027,8.184,0.741,10.21-2.871
			s0.742-8.184-2.871-10.211C360.83,62.648,317.18,54.118,288.41,51.05V32.366c0-1.072-0.248-2.135-0.676-3.113L276.387,4.387
			C275.167,1.715,272.5,0,269.563,0h-27.127c-2.937,0-5.604,1.715-6.823,4.387l-11.347,24.866c-0.441,0.967-0.677,2.051-0.677,3.113
			v18.722c-13.722,1.477-30.841,4.192-49.577,9.169c-58.427,15.521-105.034,46.069-135.079,88.456h-21.26
			c-2.866,0-5.481,1.634-6.739,4.209s-0.938,5.642,0.824,7.902l23.588,30.26v92.293c0,0-17.617,0-17.674,0
			c-6.146,0-9.695,7.311-5.893,12.14l23.567,29.929V433.12c-14.031,0.896-25.173,12.589-25.173,26.842V504.5
			c0,4.143,3.358,7.5,7.5,7.5h476.654c4.142,0,7.5-3.357,7.5-7.5v-44.538C501.827,445.708,490.684,434.016,476.653,433.12z
			 M247.258,15h17.483l4.501,9.866h-26.487L247.258,15z M238.59,39.866l34.82,0.001v9.94c-9.647-0.56-15.905-0.441-17.413-0.402
			c-1.416-0.035-7.688-0.15-17.407,0.425V39.866z M33.029,163.713h445.942l-13.48,17.293H117.229c-4.142,0-7.5,3.357-7.5,7.5
			s3.358,7.5,7.5,7.5h344.425v87.371h-83.206l-26.743-19.012c0.784-1.185,1.243-2.604,1.243-4.131v-35.44c0-4.143-3.358-7.5-7.5-7.5
			h-24.354c-4.142,0-7.5,3.357-7.5,7.5v12.478l-40.224-28.596c-5.075-4.26-11.072-6.509-17.369-6.509
			c-6.297,0-12.294,2.249-17.369,6.509l-40.224,28.596v-12.478c0-4.143-3.358-7.5-7.5-7.5h-24.354c-4.142,0-7.5,3.357-7.5,7.5v35.44
			c0,1.527,0.459,2.946,1.243,4.131l-26.743,19.012H50.346v-87.371H87.35c4.142,0,7.5-3.357,7.5-7.5s-3.358-7.5-7.5-7.5H46.509
			L33.029,163.713z M247.584,220.714c2.643-1.879,5.013-3.547,8.415-3.547c3.398,0,5.776,1.677,8.416,3.547l88.144,62.663H159.44
			C159.44,283.377,247.564,220.728,247.584,220.714z M174.052,252.734v-20.44h9.354v15.641l-6.751,4.799H174.052z M328.593,247.935
			v-15.641h9.354v20.44h-2.603L328.593,247.935z M33.124,298.377h445.752l-13.363,16.971H46.487L33.124,298.377z M461.653,416.088
			v16.971H50.346v-16.971H461.653z M50.347,401.088v-70.74h14.535v70.74h-0.001H50.347z M79.881,401.088v-70.74h34.82v70.74H79.881z
			 M129.701,401.088v-70.74h14.535v70.74H129.701z M159.236,401.088v-70.74h34.819v70.74H159.236z M209.055,401.088v-70.74h14.535
			v70.74H209.055z M238.59,401.088v-70.74h34.82v70.74H238.59z M288.41,401.088v-70.74h14.535v70.74H288.41z M317.945,401.088
			v-70.74h34.819v70.74H317.945z M367.764,401.088v-70.74h14.535v70.74H367.764z M397.3,401.088v-70.74h34.82v70.74h-0.001H397.3z
			 M447.118,401.088v-70.74h14.535v70.74H447.118z M486.827,497H25.173v-16.971h461.654V497z M486.828,465.029H25.173v-5.067
			c0-6.563,5.34-11.903,11.904-11.903h437.847c6.564,0,11.904,5.34,11.904,11.903V465.029z"/>
	</g>
</g>
<g>
</g>
<g>
</g>
<g>
</g>
<g>
</g>
<g>
</g>
<g>
</g>
<g>
</g>
<g>
</g>
<g>
</g>
<g>
</g>
<g>
</g>
<g>
</g>
<g>
</g>
<g>
</g>
<g>
</g>
</svg>
