<?xml version="1.0" encoding="iso-8859-1"?>
<!-- Generator: Adobe Illustrator 19.0.0, SVG Export Plug-In . SVG Version: 6.00 Build 0)  -->
<svg version="1.1" id="Capa_1" xmlns="http://www.w3.org/2000/svg" xmlns:xlink="http://www.w3.org/1999/xlink" x="0px" y="0px"
	 viewBox="0 0 512 512" style="enable-background:new 0 0 512 512;" xml:space="preserve">
<g>
	<g>
		<path d="M188.488,349.337c-4.143,0-7.5,3.357-7.5,7.5v12.219c0,4.142,3.358,7.5,7.5,7.5c4.143,0,7.5-3.357,7.5-7.5v-12.219
			C195.988,352.694,192.631,349.337,188.488,349.337z"/>
	</g>
</g>
<g>
	<g>
		<path d="M323.512,349.337c-4.143,0-7.5,3.357-7.5,7.5v12.219c0,4.142,3.357,7.5,7.5,7.5s7.5-3.357,7.5-7.5v-12.219
			C331.012,352.694,327.655,349.337,323.512,349.337z"/>
	</g>
</g>
<g>
	<g>
		<path d="M277.6,362.559c-3.12-2.726-7.857-2.408-10.583,0.71c-2.672,3.056-6.687,4.809-11.017,4.809
			c-4.33,0-8.345-1.753-11.017-4.809c-2.725-3.119-7.463-3.437-10.582-0.711s-3.438,7.464-0.711,10.582
			c5.52,6.316,13.652,9.938,22.31,9.938c8.657,0,16.789-3.621,22.31-9.936C281.037,370.023,280.718,365.285,277.6,362.559z"/>
	</g>
</g>
<g>
	<g>
		<path d="M504.5,224.56h-17.413v-41.607c8.739-3.097,15.017-11.441,15.017-21.229c0-10.891-7.773-19.998-18.062-22.071
			c-4.045-6.198-14.027-19.885-30.97-33.484c-3.229-2.592-7.949-2.075-10.543,1.154c-2.593,3.229-2.076,7.95,1.154,10.543
			c9.525,7.646,16.621,15.354,21.448,21.343H232.054c14.96-18.494,51.829-53.5,116.533-53.5c25.753,0,49.556,5.509,70.75,16.372
			c3.685,1.89,8.205,0.433,10.095-3.253c1.89-3.686,0.434-8.206-3.253-10.095c-21.244-10.89-44.794-16.875-70.092-17.861V51.881
			C365.328,48.746,372,39.993,372,29.707c0-12.91-10.503-23.414-23.413-23.414c-12.91,0-23.413,10.504-23.413,23.414
			c0,10.286,6.672,19.039,15.913,22.173v18.987c-46.156,1.824-78.363,20.206-97.563,35.763
			c-16.593,13.444-26.393,26.893-30.393,33.021c-10.289,2.074-18.061,11.182-18.061,22.071c0,9.787,6.278,18.131,15.017,21.229
			v41.607h-73.302c-4.143,0-7.5,3.357-7.5,7.5s3.357,7.5,7.5,7.5H248.5v73.716H65v-73.716h42.081c4.143,0,7.5-3.357,7.5-7.5
			s-3.357-7.5-7.5-7.5H7.5c-4.143,0-7.5,3.357-7.5,7.5v266.148c0,4.143,3.357,7.5,7.5,7.5h497c4.143,0,7.5-3.357,7.5-7.5V232.06
			C512,227.917,508.643,224.56,504.5,224.56z M340.174,29.707c0-4.64,3.774-8.414,8.413-8.414c4.639,0,8.413,3.774,8.413,8.414
			c0,4.639-3.774,8.412-8.413,8.412C343.948,38.12,340.174,34.347,340.174,29.707z M210.07,161.724c0-4.145,3.372-7.516,7.517-7.516
			h262c4.145,0,7.517,3.371,7.517,7.516c0,4.146-3.372,7.518-7.517,7.518h-262C213.442,169.242,210.07,165.87,210.07,161.724z
			 M447,239.56v73.716H263.5V239.56H447z M290.587,224.559v-40.318h50.5v40.318H290.587z M356.087,224.559v-40.318h50.5v40.318
			H356.087z M421.587,224.559v-40.318h50.5v40.318H421.587z M225.087,224.559v-40.318h50.5v40.318H225.087z M141.012,328.275
			h229.976v73.716H141.012V328.275z M15,239.56h35v73.716H15V239.56z M15,328.275h111.012v73.716H15V328.275z M50,490.707H15
			v-73.717h35V490.707z M248.5,490.707H65v-73.717h183.5V490.707z M447,490.707H263.5v-73.717H447V490.707z M497,490.707h-35
			v-73.717h35V490.707z M497,401.991H385.988v-73.716H497V401.991z M497,313.275h-35v-73.716h35V313.275z"/>
	</g>
</g>
<g>
</g>
<g>
</g>
<g>
</g>
<g>
</g>
<g>
</g>
<g>
</g>
<g>
</g>
<g>
</g>
<g>
</g>
<g>
</g>
<g>
</g>
<g>
</g>
<g>
</g>
<g>
</g>
<g>
</g>
</svg>
