<?xml version="1.0" encoding="iso-8859-1"?>
<!-- Generator: Adobe Illustrator 19.0.0, SVG Export Plug-In . SVG Version: 6.00 Build 0)  -->
<svg version="1.1" id="Capa_1" xmlns="http://www.w3.org/2000/svg" xmlns:xlink="http://www.w3.org/1999/xlink" x="0px" y="0px"
	 viewBox="0 0 512 512" style="enable-background:new 0 0 512 512;" xml:space="preserve">
<g>
	<g>
		<path d="M260.915,317.154H228.99c-4.143,0-7.5,3.357-7.5,7.5v32.134c0,4.143,3.358,7.5,7.5,7.5h31.925c4.143,0,7.5-3.357,7.5-7.5
			v-32.134C268.415,320.511,265.058,317.154,260.915,317.154z M253.415,349.288H236.49v-17.134h16.925V349.288z"/>
	</g>
</g>
<g>
	<g>
		<path d="M337.296,317.154h-31.925c-4.143,0-7.5,3.357-7.5,7.5v32.134c0,4.143,3.358,7.5,7.5,7.5h31.925c4.143,0,7.5-3.357,7.5-7.5
			v-32.134C344.796,320.511,341.439,317.154,337.296,317.154z M329.796,349.288h-16.925v-17.134h16.925V349.288z"/>
	</g>
</g>
<g>
	<g>
		<path d="M413.677,317.154h-31.925c-4.143,0-7.5,3.357-7.5,7.5v32.134c0,4.143,3.357,7.5,7.5,7.5h31.925c4.143,0,7.5-3.357,7.5-7.5
			v-32.134C421.177,320.511,417.82,317.154,413.677,317.154z M406.177,349.288h-16.925v-17.134h16.925V349.288z"/>
	</g>
</g>
<g>
	<g>
		<path d="M70.8,181.172c-4.143,0-7.5,3.357-7.5,7.5v9.317c0,4.143,3.357,7.5,7.5,7.5s7.5-3.357,7.5-7.5v-9.317
			C78.3,184.529,74.942,181.172,70.8,181.172z"/>
	</g>
</g>
<g>
	<g>
		<path d="M173.766,181.172c-4.143,0-7.5,3.357-7.5,7.5v9.317c0,4.143,3.357,7.5,7.5,7.5s7.5-3.357,7.5-7.5v-9.317
			C181.266,184.529,177.909,181.172,173.766,181.172z"/>
	</g>
</g>
<g>
	<g>
		<path d="M139.926,191.694c-3.12-2.726-7.857-2.408-10.583,0.71c-1.699,1.944-4.272,3.059-7.061,3.059
			c-2.787,0-5.36-1.114-7.06-3.059c-2.727-3.119-7.464-3.436-10.583-0.71c-3.118,2.726-3.437,7.464-0.71,10.583
			c4.549,5.203,11.237,8.186,18.353,8.186c7.116,0,13.806-2.983,18.354-8.186C143.363,199.158,143.044,194.42,139.926,191.694z"/>
	</g>
</g>
<g>
	<g>
		<path d="M508.08,385.323c-9.545-5.184-20.33-7.924-31.191-7.924c-4.846,0-9.676,0.549-14.389,1.614v-99.746
			c0-9.354-7.61-16.966-16.965-16.966h-2.347c-3.39-19.19-18.755-34.377-37.974-37.563v-11.205h6.374c4.143,0,7.5-3.357,7.5-7.5
			s-3.357-7.5-7.5-7.5h-6.374v-8c0-4.143-3.357-7.5-7.5-7.5s-7.5,3.357-7.5,7.5v8h-6.373c-4.143,0-7.5,3.357-7.5,7.5
			s3.357,7.5,7.5,7.5h6.373v11.204c-19.218,3.185-34.575,18.374-37.964,37.563h-2.356c-9.354,0-16.965,7.611-16.965,16.966v6.966
			h-23.19v-6.966c0-9.354-7.61-16.966-16.965-16.966h-2.347c-3.39-19.19-18.755-34.377-37.974-37.563v-11.204h6.374
			c4.143,0,7.5-3.357,7.5-7.5s-3.357-7.5-7.5-7.5h-6.374v-8c0-4.143-3.357-7.5-7.5-7.5s-7.5,3.357-7.5,7.5v8h-6.373
			c-4.143,0-7.5,3.357-7.5,7.5s3.357,7.5,7.5,7.5h6.373v11.203c-7.564,1.253-14.526,4.366-20.401,8.851l-6.444-89.181
			c0,0,14.252-30.696,14.261-30.716c0.455-0.979,0.697-2.079,0.697-3.158l-0.001-44.814c0-7.031-5.721-12.752-12.752-12.752h-10.779
			c-7.032,0-12.753,5.721-12.753,12.752v6.064h-6.285v-6.064c0-7.031-5.721-12.752-12.753-12.752h-10.779
			c-7.032,0-12.753,5.721-12.753,12.752v6.064h-6.285v-6.064c0-7.031-5.721-12.752-12.753-12.752h-10.779
			c-7.032,0-12.753,5.721-12.753,12.752v6.064h-6.284v-6.064c0-7.031-5.722-12.752-12.754-12.752h-10.78
			c-7.032,0-12.753,5.721-12.753,12.752v6.064h-6.285v-6.064c0-7.031-5.721-12.752-12.753-12.752H31.753
			C24.721,52.968,19,58.689,19,65.72c0,0,0,44.807,0,44.814c0,1.081,0.24,2.177,0.697,3.158l14.349,30.906L22.701,301.585
			c-0.299,4.132,2.809,7.723,6.939,8.021c4.146,0.304,7.723-2.809,8.021-6.939l10.984-151.966h147.378l7.212,99.803
			c-1.406,2.966-2.42,6.058-3.215,9.237c-0.211,0.844-0.389,1.704-0.54,2.561h-2.348c-9.354,0-16.965,7.611-16.965,16.966v107.729
			c-0.125-0.056-0.253-0.104-0.378-0.161c-0.187-0.085-0.372-0.175-0.558-0.263c-0.837-0.396-1.668-0.807-2.484-1.25
			c-19.531-10.607-42.852-10.607-62.383,0c-7.353,3.995-15.663,6.106-24.03,6.106c-7.321,0-14.599-1.616-21.229-4.696
			c-5.758-2.674-11.159-5.534-17.344-7.162c-6.347-1.671-12.945-2.391-19.503-2.101l3.248-44.944
			c0.299-4.132-2.809-7.723-6.94-8.021c-4.119-0.3-7.722,2.809-8.021,6.939l-3.505,48.511c-4.545,1.307-8.95,3.104-13.119,5.368
			C1.504,386.636,0,389.165,0,391.914v59.62c0,4.143,3.357,7.5,7.5,7.5h497c4.143,0,7.5-3.357,7.5-7.5v-59.62
			C512,389.165,510.496,386.636,508.08,385.323z M397.715,239.112c14.354,0,26.569,9.876,30.127,23.189h-1.567
			c-9.354,0-16.965,7.611-16.965,16.966v6.966h-23.19v-6.966c0-9.354-7.61-16.966-16.965-16.966h-1.567
			C371.145,248.988,383.36,239.112,397.715,239.112z M244.952,239.112c14.354,0,26.57,9.876,30.128,23.189h-1.567
			c-9.354,0-16.965,7.611-16.965,16.966v6.966h-23.19v-6.966c0-0.584-0.03-1.163-0.088-1.732
			c-0.87-8.544-8.107-15.234-16.878-15.234h-1.566C218.383,248.988,230.598,239.112,244.952,239.112z M198.11,135.701H46.454
			l-8.203-17.667h110.494c4.143,0,7.5-3.357,7.5-7.5c0-4.143-3.357-7.5-7.5-7.5H34V67.968h6.285v11.316c0,4.143,3.357,7.5,7.5,7.5
			H69.07c4.143,0,7.5-3.357,7.5-7.5V67.968h6.285v11.316c0,4.143,3.357,7.5,7.5,7.5h21.284c4.143,0,7.5-3.357,7.5-7.5V67.968h6.285
			v11.316c0,4.143,3.357,7.5,7.5,7.5h21.285c4.143,0,7.5-3.357,7.5-7.5V67.968h6.285v11.316c0,4.143,3.357,7.5,7.5,7.5h21.285
			c4.143,0,7.5-3.357,7.5-7.5V67.968h6.284l0.001,35.066h-31.911c-4.143,0-7.5,3.357-7.5,7.5s3.357,7.5,7.5,7.5h27.66
			L198.11,135.701z M195.166,279.268h0.001c0-1.084,0.882-1.966,1.965-1.966h19.26c1.084,0,1.966,0.882,1.966,1.966v14.466
			c0,4.143,3.357,7.5,7.5,7.5h38.19c4.143,0,7.5-3.357,7.5-7.5v-14.466c0-1.084,0.882-1.966,1.965-1.966h19.261
			c1.083,0,1.965,0.882,1.965,1.966v14.466c0,4.143,3.357,7.5,7.5,7.5h38.19c4.143,0,7.5-3.357,7.5-7.5v-14.466
			c0-1.084,0.882-1.966,1.965-1.966h19.261c1.083,0,1.965,0.882,1.965,1.966v14.466c0,4.143,3.357,7.5,7.5,7.5h38.19
			c4.143,0,7.5-3.357,7.5-7.5v-14.466c0-1.084,0.882-1.966,1.965-1.966h19.261c1.083,0,1.965,0.882,1.965,1.966v105.113
			c-0.606,0.304-1.207,0.619-1.803,0.942c-14.73,7.998-33.332,8.007-48.062,0c-19.266-10.473-43.117-10.463-62.383,0
			c-14.849,8.064-33.213,8.066-48.062,0c-19.273-10.47-43.11-10.467-62.383,0c-8.925,4.847-19.454,6.92-29.642,5.771V279.268z
			 M497,444.034H15v-47.442c3.615-1.573,7.411-2.701,11.288-3.393c11.097-1.981,22.943-0.079,32.854,5.306
			c18.616,10.114,41.557,10.527,60.569,0.947c15.984-8.054,33.744-9.711,49.875-0.947c19.269,10.469,43.114,10.465,62.382,0
			c14.847-8.064,33.218-8.063,48.063,0c19.27,10.467,43.114,10.465,62.382,0c15.916-8.644,34.091-6.99,49.866,0.943
			c18.966,9.538,41.92,9.19,60.578-0.943c13.525-7.346,30.035-8.052,44.143-1.913V444.034z"/>
	</g>
</g>
<g>
	<g>
		<path d="M157.709,296.45l-5.443-27.977c-2.781-14.294-15.369-24.669-29.932-24.669c-14.563,0-27.15,10.375-29.932,24.669
			l-5.443,27.977c-6.379,2.559-10.901,8.794-10.901,16.077v20.514c0,4.143,3.357,7.5,7.5,7.5h77.552c4.143,0,7.5-3.357,7.5-7.5
			v-20.514C168.61,305.244,164.088,299.008,157.709,296.45z M107.127,271.338c1.412-7.263,7.808-12.534,15.206-12.534
			s13.795,5.271,15.207,12.534l4.644,23.862h-39.7L107.127,271.338z M153.609,325.54H91.058v-13.014
			c0-1.282,1.044-2.326,2.326-2.326h57.899c1.282,0,2.326,1.044,2.326,2.326V325.54z"/>
	</g>
</g>
<g>
</g>
<g>
</g>
<g>
</g>
<g>
</g>
<g>
</g>
<g>
</g>
<g>
</g>
<g>
</g>
<g>
</g>
<g>
</g>
<g>
</g>
<g>
</g>
<g>
</g>
<g>
</g>
<g>
</g>
</svg>
