<?xml version="1.0" encoding="iso-8859-1"?>
<!-- Generator: Adobe Illustrator 19.0.0, SVG Export Plug-In . SVG Version: 6.00 Build 0)  -->
<svg version="1.1" id="Capa_1" xmlns="http://www.w3.org/2000/svg" xmlns:xlink="http://www.w3.org/1999/xlink" x="0px" y="0px"
	 viewBox="0 0 511.999 511.999" style="enable-background:new 0 0 511.999 511.999;" xml:space="preserve">
<g>
	<g>
		<path d="M216.739,236.066c-4.142,0-7.5,3.357-7.5,7.5v7.105c0,4.143,3.358,7.5,7.5,7.5c4.142,0,7.5-3.357,7.5-7.5v-7.105
			C224.239,239.424,220.88,236.066,216.739,236.066z"/>
	</g>
</g>
<g>
	<g>
		<path d="M295.26,236.066c-4.143,0-7.5,3.357-7.5,7.5v7.105c0,4.143,3.357,7.5,7.5,7.5s7.5-3.357,7.5-7.5v-7.105
			C302.76,239.424,299.403,236.066,295.26,236.066z"/>
	</g>
</g>
<g>
	<g>
		<path d="M270.628,244.532c-3.119-2.728-7.856-2.41-10.583,0.708c-0.959,1.096-2.433,1.725-4.045,1.725s-3.086-0.628-4.043-1.724
			c-2.726-3.118-7.463-3.436-10.583-0.71c-3.119,2.726-3.437,7.464-0.71,10.583c3.806,4.354,9.396,6.851,15.336,6.851
			c5.939,0,11.529-2.497,15.336-6.85C274.063,251.997,273.746,247.259,270.628,244.532z"/>
	</g>
</g>
<g>
	<g>
		<path d="M511.434,481.066l-42.309-102.674c8.248-9.568,13.253-22.008,13.253-35.603c0-21.236-12.192-39.667-29.937-48.695v-98.134
			c17.745-9.029,29.937-27.459,29.937-48.695c0-30.114-24.499-54.613-54.613-54.613c-13.563,0-25.978,4.981-35.538,13.196
			l-80.76-33.427c-0.604-8.97-3.366-17.658-8.081-25.329c-2.171-3.529-6.791-4.631-10.317-2.462
			c-3.528,2.17-4.631,6.789-2.462,10.317c3.917,6.371,5.987,13.71,5.987,21.222c0,21.869-18.743,40.595-40.594,40.595
			c-21.741,0-40.594-18.867-40.594-40.595c0-22.384,18.21-40.594,40.594-40.594c5.414,0,10.674,1.051,15.634,3.123
			c3.819,1.599,8.215-0.206,9.812-4.028c1.598-3.821-0.206-8.215-4.028-9.812c-6.801-2.842-14.007-4.283-21.417-4.283
			c-29.392,0-53.514,22.931-55.453,51.839l-80.774,33.433c-9.56-8.215-21.975-13.196-35.538-13.196
			c-30.114,0-54.613,24.499-54.613,54.613c0,21.236,12.192,39.667,29.937,48.695v98.134c-17.745,9.029-29.937,27.459-29.937,48.695
			c0,13.594,5.004,26.034,13.253,35.603L0.565,481.066c-0.953,2.313-0.69,4.95,0.702,7.03c1.393,2.079,3.73,3.327,6.232,3.327
			h37.155c3.039,0,5.777-1.833,6.935-4.643l36.906-89.562c11.896-0.923,22.73-5.669,31.278-13.015l80.773,33.433
			c1.939,28.91,26.062,51.84,55.453,51.84s53.513-22.931,55.453-51.84l80.775-33.432c8.548,7.345,19.382,12.09,31.277,13.014
			l36.906,89.562c1.158,2.81,3.896,4.643,6.935,4.643H504.5c2.502,0,4.84-1.248,6.232-3.327
			C512.124,486.017,512.387,483.379,511.434,481.066z M427.765,107.653c21.842-0.001,39.613,17.77,39.613,39.613
			c0,21.223-18.423,39.612-39.613,39.612c-19.29,0-36.427-14.763-39.193-33.886C385.169,129.465,404.012,107.653,427.765,107.653z
			 M437.442,201.018v88.02c-3.185-0.576-6.441-0.86-9.677-0.86c-3.167,0-6.505,0.289-9.676,0.86v-88.02
			c3.186,0.571,6.439,0.86,9.676,0.86C431,201.878,434.256,201.59,437.442,201.018z M329.048,231.846l68.607-39.048
			c1.743,1.156,3.559,2.209,5.434,3.163v98.134c-1.875,0.954-3.691,2.007-5.434,3.164l-68.607-39.049
			c0.771-4.282,1.196-8.682,1.196-13.182S329.819,236.127,329.048,231.846z M324.767,217.023c-0.106-0.259-0.221-0.515-0.33-0.773
			c-0.03-0.071-0.06-0.141-0.09-0.211c-2.39-5.622-5.464-10.944-9.166-15.828l61.078-34.764c0.055,0.157,0.119,0.31,0.176,0.466
			c0.044,0.12,0.09,0.238,0.135,0.357c0.272,0.735,0.559,1.462,0.862,2.183c0.018,0.042,0.036,0.084,0.054,0.126
			c2.091,4.938,4.895,9.55,8.353,13.683L324.767,217.023z M271.01,302.339c-9.764,2.559-20.253,2.56-30.017,0.001
			c-25.671-6.727-44.236-30.791-44.236-57.312c0-31.621,26.78-58.743,58.349-59.22c32.398-0.49,60.137,26.764,60.137,59.22
			C315.243,271.637,296.739,295.595,271.01,302.339z M304.599,301.082l67.116,38.201l-79.163,32.766
			c-3.584-3.136-7.57-5.821-11.875-7.962v-49.049C289.543,311.902,297.635,307.129,304.599,301.082z M265.677,318.639v40.495
			c-0.58-0.102-1.165-0.185-1.748-0.268c-2.625-0.377-5.277-0.576-7.929-0.576c-3.203,0-6.496,0.282-9.677,0.844v-40.495
			c3.204,0.42,6.446,0.632,9.677,0.632C259.221,319.27,262.482,319.057,265.677,318.639z M231.323,315.038v49.048
			c-4.304,2.142-8.29,4.827-11.875,7.963l-79.163-32.767l67.116-38.2C214.366,307.127,222.457,311.902,231.323,315.038z
			 M303.373,105.229c1.602-2.607,2.988-5.343,4.138-8.179c1.161-2.853,2.09-5.822,2.766-8.887l71.531,29.607
			c-0.218,0.339-0.42,0.686-0.63,1.029c-1.705,2.787-3.143,5.701-4.326,8.745c-0.999,2.571-1.81,5.233-2.413,7.974
			c-0.01,0.045-0.022,0.089-0.032,0.134l-71.53-29.606C303.049,105.777,303.207,105.501,303.373,105.229z M280.677,125.969
			c4.305-2.142,8.29-4.826,11.875-7.962l79.163,32.766l-67.116,38.2c-6.965-6.046-15.056-10.82-23.922-13.955V125.969z
			 M246.323,130.922c0.219,0.039,7.028,0.844,9.677,0.844c3.236,0,6.49-0.282,9.677-0.844v40.495c-3.188-0.42-6.408-0.63-9.624-0.63
			c-0.018,0-0.035-0.001-0.053-0.001s-0.036,0.001-0.054,0.001c-3.214,0.001-6.437,0.213-9.623,0.63V130.922z M219.448,118.007
			c3.585,3.136,7.571,5.821,11.875,7.963v49.048c-8.866,3.134-16.957,7.909-23.922,13.955l-67.116-38.2L219.448,118.007z
			 M201.723,88.164c0.683,3.091,1.621,6.086,2.796,8.962c1.251,3.063,2.81,6.105,4.605,8.92l-71.531,29.606
			c-0.01-0.045-0.022-0.089-0.032-0.134c-1.382-6.278-3.891-12.341-7.37-17.748L201.723,88.164z M134.515,168.576
			c0.018-0.04,0.036-0.081,0.053-0.122c0.303-0.721,0.591-1.449,0.863-2.185c0.045-0.119,0.091-0.237,0.135-0.357
			c0.057-0.156,0.121-0.31,0.176-0.466l61.078,34.764c-3.697,4.877-6.768,10.193-9.157,15.807c-0.036,0.083-0.072,0.167-0.107,0.25
			c-0.106,0.252-0.219,0.502-0.323,0.756l-61.073-34.761C129.619,178.129,132.423,173.516,134.515,168.576z M182.953,258.209
			l-68.607,39.049c-1.744-1.156-3.559-2.209-5.434-3.163v-98.134c1.875-0.954,3.691-2.008,5.434-3.165l68.607,39.049
			c-0.771,4.282-1.196,8.682-1.196,13.182S182.182,253.927,182.953,258.209z M44.622,147.266c0-21.843,17.77-39.613,39.613-39.613
			c19.122,0,36.264,14.742,39.145,33.619c2.775,18.182-8.09,36.68-25.324,43.11C73.072,193.702,44.622,173.873,44.622,147.266z
			 M93.911,201.017v88.02c-6.38-1.151-12.973-1.146-19.353,0v-88.02c3.184,0.576,6.442,0.86,9.676,0.86
			C87.474,201.877,90.723,201.59,93.911,201.017z M39.633,476.425H18.702l36.11-87.631c5.438,3.487,11.534,5.994,17.846,7.362
			c0.016,0.003,0.031,0.008,0.047,0.011L39.633,476.425z M120.945,357.649c-0.046,0.113-0.087,0.228-0.134,0.34
			c-6.097,14.607-20.744,24.414-36.576,24.414c-0.223,0-0.442-0.013-0.664-0.017c-0.011,0-0.022-0.003-0.034-0.003
			c-21.206-0.011-38.915-18.626-38.915-39.593c-0.001-16.879,10.615-31.318,25.518-37.012c8.869-3.801,19.249-3.412,28.176-0.004
			C118.607,313.517,129.09,337.524,120.945,357.649z M187.234,273.032c0.105,0.258,0.22,0.513,0.329,0.77
			c0.031,0.073,0.063,0.146,0.094,0.219c2.39,5.62,5.464,10.941,9.164,15.823l-61.079,34.765c-0.373-1.059-0.793-2.106-1.231-3.14
			c-2.092-4.936-4.894-9.546-8.35-13.676L187.234,273.032z M208.647,384.796c-3.236,5.264-5.591,11.059-6.923,17.094l-71.531-29.607
			c0.216-0.337,0.429-0.676,0.638-1.018c1.697-2.778,3.138-5.721,4.316-8.752c1.002-2.577,1.815-5.247,2.419-7.995
			c0.009-0.039,0.02-0.078,0.028-0.117l71.531,29.607C208.96,384.267,208.807,384.535,208.647,384.796z M256,454.457
			c-21.575-0.138-40.594-18.031-40.594-40.573c0-21.618,18.978-40.594,40.594-40.594c21.577,0,39.984,17.971,40.566,39.512
			C297.166,434.98,278.249,454.598,256,454.457z M310.277,401.892c-1.311-5.939-3.614-11.66-6.776-16.854
			c-0.208-0.342-0.41-0.689-0.625-1.027l71.531-29.607c0.009,0.039,0.02,0.078,0.028,0.117c1.381,6.285,3.894,12.352,7.373,17.766
			L310.277,401.892z M377.481,321.486c-0.016,0.037-0.865,2.105-1.223,3.122l-61.078-34.765c3.701-4.881,6.775-10.204,9.164-15.823
			c0.031-0.073,0.063-0.146,0.094-0.219c0.108-0.257,0.224-0.512,0.329-0.77l61.073,34.761
			C382.379,311.928,379.573,316.544,377.481,321.486z M391.189,357.986c-0.046-0.109-0.086-0.222-0.131-0.332
			c-10.336-25.416,9.29-54.478,36.707-54.478c21.449,0.001,39.613,17.997,39.613,39.613c0,17.905-13.202,34.018-30.414,38.412
			C418.479,385.921,398.474,375.536,391.189,357.986z M472.366,476.425l-33.071-80.258c0.025-0.005,0.049-0.012,0.074-0.018
			c6.094-1.328,12.401-3.881,17.819-7.355l36.11,87.631H472.366z"/>
	</g>
</g>
<g>
</g>
<g>
</g>
<g>
</g>
<g>
</g>
<g>
</g>
<g>
</g>
<g>
</g>
<g>
</g>
<g>
</g>
<g>
</g>
<g>
</g>
<g>
</g>
<g>
</g>
<g>
</g>
<g>
</g>
</svg>
