<?xml version="1.0" encoding="iso-8859-1"?>
<!-- Generator: Adobe Illustrator 19.0.0, SVG Export Plug-In . SVG Version: 6.00 Build 0)  -->
<svg version="1.1" id="Capa_1" xmlns="http://www.w3.org/2000/svg" xmlns:xlink="http://www.w3.org/1999/xlink" x="0px" y="0px"
	 viewBox="0 0 511.998 511.998" style="enable-background:new 0 0 511.998 511.998;" xml:space="preserve">
<g>
	<g>
		<path d="M198.936,333.173c-4.143,0-7.501,3.357-7.501,7.501V351c0,4.144,3.359,7.501,7.501,7.501c4.143,0,7.501-3.357,7.501-7.501
			v-10.326C206.437,336.531,203.079,333.173,198.936,333.173z"/>
	</g>
</g>
<g>
	<g>
		<path d="M313.062,333.173c-4.143,0-7.501,3.357-7.501,7.501V351c0,4.144,3.358,7.501,7.501,7.501c4.143,0,7.501-3.357,7.501-7.501
			v-10.326C320.563,336.531,317.204,333.173,313.062,333.173z"/>
	</g>
</g>
<g>
	<g>
		<path d="M275.019,344.636c-3.119-2.729-7.857-2.409-10.585,0.711c-2.036,2.329-5.111,3.666-8.436,3.666
			c-3.325,0-6.399-1.336-8.436-3.667c-2.726-3.119-7.466-3.436-10.585-0.712c-3.119,2.727-3.438,7.465-0.711,10.585
			c4.886,5.59,12.078,8.796,19.732,8.796s14.846-3.205,19.732-8.795C278.457,352.101,278.139,347.362,275.019,344.636z"/>
	</g>
</g>
<g>
	<g>
		<path d="M446.012,393.575h-14.886l-14.329-81.548c0,0,6.293-6.592,6.296-6.596c2.825-2.96,2.711-7.781-0.247-10.606l-10.9-10.404
			c0,0-19.179-109.147-19.183-109.165c-0.056-0.317-0.132-0.633-0.229-0.94l-11.116-35.552l54.485-35.646
			c8.708-5.698,11.159-17.42,5.461-26.128l-2.697-4.124c0,0,4.805-3.143,4.807-3.146c3.42-2.237,4.409-6.962,2.17-10.385
			l-15.918-24.331c-2.267-3.466-6.917-4.438-10.383-2.17l-73.459,48.059c-24.168-22.837-56.576-35.826-89.885-35.826
			c-17.288,0-34.06,3.345-49.941,9.93c0,0-52.197-49.821-52.23-49.853c-7.438-7.1-19.587-6.815-26.685,0.621l-3.402,3.565
			l-4.156-3.967c-2.996-2.858-7.744-2.748-10.606,0.247c0,0-20.056,21.012-20.075,21.031c-2.828,2.963-2.71,7.782,0.247,10.607
			l24.044,22.949c2.995,2.86,7.744,2.75,10.606-0.246c2.86-2.996,2.75-7.745-0.247-10.606l-18.619-17.773l9.716-10.179
			l125.783,120.06c-4.031,2.536-7.369,6.035-9.716,10.178L144.775,69.6c-2.996-2.858-7.744-2.748-10.606,0.247
			c-2.86,2.997-2.75,7.745,0.247,10.606l17.281,16.494c-9.092,12.001-15.982,25.378-20.512,39.864c0,0-11.708,37.447-11.714,37.464
			l-0.011,0.035c-0.093,0.298-0.165,0.6-0.22,0.903c-0.002,0.012-0.007,0.024-0.009,0.036l-5.059,28.79l-38.082,24.915
			c-8.709,5.698-11.159,17.42-5.461,26.129l2.697,4.123c0,0-4.804,3.142-4.807,3.145c-3.423,2.239-4.411,6.961-2.17,10.385
			c0,0,15.909,24.317,15.918,24.33c2.237,3.419,6.967,4.405,10.384,2.17l5.416-3.542L80.87,393.572H65.986
			c-13.68,0-24.81,11.13-24.81,24.81c0,11.067,7.284,20.461,17.309,23.648v62.467c0,4.144,3.359,7.501,7.501,7.501h380.027
			c4.143,0,7.501-3.357,7.501-7.501V442.03c10.025-3.184,17.309-12.579,17.309-23.645
			C470.822,404.704,459.692,393.575,446.012,393.575z M415.894,393.575h-55.168l-20.692-83.956c0,0,18.125,17.301,18.136,17.312
			c7.435,7.097,19.586,6.816,26.685-0.621l3.402-3.565l4.156,3.967c2.53,2.416,6.569,2.741,9.457,0.732
			c0.767-0.533,1.41-1.255,2.062-1.938L415.894,393.575z M272.495,224.415c-1.545-1.475-1.602-3.932-0.128-5.476l3.402-3.565
			l101.635,97.011c0,0-3.402,3.565-3.405,3.568c-1.465,1.533-3.945,1.581-5.471,0.123L272.495,224.415z M397.344,310.678
			l-125.783-120.06c4.03-2.536,7.369-6.035,9.716-10.179l125.783,120.059L397.344,310.678z M291.645,169.053l4.339-2.838
			l1.857,2.838H291.645z M393.644,266.952l-5.392-5.147l-78.46-74.89l-0.705-2.861h69.991L393.644,266.952z M335.121,169.053
			L368.37,147.3l6.801,21.753H335.121z M427.69,90.562l-111.094,72.682c-0.633,0.414-1.362,0.633-2.109,0.633
			c-1.318,0-2.533-0.655-3.252-1.752L308.536,158l117.575-76.922l2.698,4.125C429.979,86.989,429.477,89.393,427.69,90.562z
			 M421.279,49.497l7.704,11.776l-145.532,95.212c-0.024-0.07-0.054-0.137-0.079-0.207c-1.56-4.376-4.219-8.408-7.633-11.563
			L421.279,49.497z M255.999,60.072c28.288,0,55.847,10.582,76.934,29.296l-73.154,47.86c-0.749-0.098-1.504-0.175-2.269-0.215
			l-10.429-9.953l3.401-3.563c7.186-7.528,6.907-19.5-0.622-26.686l-31.797-30.35C230.24,62.217,242.956,60.072,255.999,60.072z
			 M269.051,171.24c-2.506,6.36-9.922,10.17-16.54,8.401c-7.75-2.072-12.568-10.97-9.608-18.684
			c2.517-6.563,9.752-10.244,16.527-8.533c0.017,0.004,0.034,0.007,0.056,0.014C267.401,154.669,272.141,163.399,269.051,171.24z
			 M239.631,113.138l-3.402,3.565L134.593,19.691c0,0,3.402-3.564,3.405-3.568c1.469-1.536,3.944-1.584,5.472-0.123l96.033,91.661
			C241.048,109.137,241.105,111.593,239.631,113.138z M252.214,194.85c0.034,0.004,0.067,0.005,0.101,0.009
			c0.718,0.091,1.441,0.165,2.173,0.203l10.427,9.953c-3.365,3.526-6.646,6.785-7.958,11.643c-1.759,6.51,0.188,13.846,5.178,18.609
			l56.841,54.255l0.851,0.812l25.445,103.242H166.724l41.958-170.246L252.214,194.85z M145.506,141.293
			c3.837-12.273,9.583-23.646,17.122-33.91l58.063,55.42l-4.676,3.06l-2.697-4.124c-3.5-5.349-9.408-8.542-15.805-8.542
			c-3.673,0-7.242,1.065-10.324,3.081l-19.527,12.775l-30.833-0.001L145.506,141.293z M132.92,184.055h11.81l-13.344,8.73
			L132.92,184.055z M84.308,241.513c0,0,111.014-72.629,111.094-72.682c1.769-1.157,4.204-0.651,5.361,1.119l2.698,4.125
			L85.886,250.997l-2.697-4.124C82.019,245.087,82.521,242.683,84.308,241.513z M90.719,282.578l-7.704-11.776l145.533-95.212
			c0.022,0.064,0.05,0.125,0.073,0.189c1.586,4.446,4.175,8.377,7.64,11.58L90.719,282.578z M115.282,284.437l74.979-49.053
			l-38.989,158.191H96.104L115.282,284.437z M184.536,496.999h-35.391v-26.983h35.391V496.999z M438.511,496.999H199.538v-34.484
			c0-4.144-3.359-7.501-7.501-7.501h-50.393c-4.143,0-7.501,3.357-7.501,7.501v34.484H73.487v-53.805h365.024V496.999z
			 M446.012,428.192H65.986c-5.408,0-9.807-4.4-9.807-9.808s4.4-9.807,9.807-9.807h380.027c5.408,0,9.807,4.399,9.807,9.807
			C455.82,423.792,451.42,428.192,446.012,428.192z"/>
	</g>
</g>
<g>
</g>
<g>
</g>
<g>
</g>
<g>
</g>
<g>
</g>
<g>
</g>
<g>
</g>
<g>
</g>
<g>
</g>
<g>
</g>
<g>
</g>
<g>
</g>
<g>
</g>
<g>
</g>
<g>
</g>
</svg>
