<?xml version="1.0" encoding="iso-8859-1"?>
<!-- Generator: Adobe Illustrator 19.0.0, SVG Export Plug-In . SVG Version: 6.00 Build 0)  -->
<svg version="1.1" id="Capa_1" xmlns="http://www.w3.org/2000/svg" xmlns:xlink="http://www.w3.org/1999/xlink" x="0px" y="0px"
	 viewBox="0 0 511.998 511.998" style="enable-background:new 0 0 511.998 511.998;" xml:space="preserve">
<g>
	<g>
		<path d="M86.481,423.775c-11.825,0-21.445,9.62-21.445,21.444v26.579c0,4.144,3.358,7.501,7.501,7.501h27.888
			c4.144,0,7.501-3.358,7.501-7.501v-26.579C107.926,433.395,98.306,423.775,86.481,423.775z M80.037,464.298v-19.079
			c0-3.553,2.89-6.442,6.443-6.442s6.442,2.891,6.442,6.442v19.079H80.037z"/>
	</g>
</g>
<g>
	<g>
		<path d="M335.818,396.917c-11.13,0-20.184,9.054-20.184,20.184v42.113c0,4.144,3.358,7.501,7.501,7.501H348.5
			c4.144,0,7.501-3.358,7.501-7.501v-42.113C356.002,405.971,346.948,396.917,335.818,396.917z M341.001,451.713L341.001,451.713
			h-10.364v-34.612c0-2.856,2.324-5.182,5.182-5.182c2.857,0,5.182,2.324,5.182,5.182V451.713z"/>
	</g>
</g>
<g>
	<g>
		<path d="M282.604,396.917c-11.13,0-20.184,9.054-20.184,20.184v42.113c0,4.144,3.357,7.501,7.501,7.501h25.365
			c4.144,0,7.501-3.358,7.501-7.501v-42.113C302.789,405.971,293.734,396.917,282.604,396.917z M287.787,451.713h-0.001h-10.363
			v-34.612c0-2.856,2.324-5.182,5.182-5.182c2.857,0,5.182,2.324,5.182,5.182V451.713z"/>
	</g>
</g>
<g>
	<g>
		<path d="M229.391,396.917c-11.13,0-20.184,9.054-20.184,20.184v42.113c0,4.144,3.357,7.501,7.501,7.501h25.365
			c4.144,0,7.501-3.358,7.501-7.501v-42.113C249.575,405.971,240.521,396.917,229.391,396.917z M234.574,451.713h-0.001H224.21
			v-34.612c0-2.856,2.324-5.182,5.182-5.182s5.182,2.324,5.182,5.182V451.713z"/>
	</g>
</g>
<g>
	<g>
		<path d="M176.178,396.917c-11.13,0-20.184,9.054-20.184,20.184v42.113c0,4.144,3.358,7.501,7.501,7.501h25.365
			c4.144,0,7.501-3.358,7.501-7.501v-42.113C196.362,405.971,187.307,396.917,176.178,396.917z M181.36,451.713L181.36,451.713
			h-10.364v-34.612c0-2.856,2.324-5.182,5.182-5.182s5.182,2.324,5.182,5.182V451.713z"/>
	</g>
</g>
<g>
	<g>
		<path d="M425.516,423.775c-11.825,0-21.444,9.62-21.444,21.444v26.579c-0.001,4.144,3.357,7.502,7.5,7.502h27.888
			c4.144,0,7.501-3.358,7.501-7.501v-26.58C446.961,433.395,437.341,423.775,425.516,423.775z M431.958,464.297h-12.886v-19.078
			h0.001c0-3.553,2.891-6.442,6.442-6.442c3.554,0,6.443,2.891,6.443,6.442V464.297z"/>
	</g>
</g>
<g>
	<g>
		<path d="M193.858,96.472c-4.144,0-7.501,3.358-7.501,7.501v11.246c0,4.144,3.357,7.501,7.501,7.501s7.501-3.358,7.501-7.501
			v-11.246C201.36,99.83,198.002,96.472,193.858,96.472z"/>
	</g>
</g>
<g>
	<g>
		<path d="M318.138,96.472c-4.144,0-7.501,3.358-7.501,7.501v11.246c0,4.144,3.358,7.501,7.501,7.501s7.501-3.358,7.501-7.501
			v-11.246C325.639,99.83,322.282,96.472,318.138,96.472z"/>
	</g>
</g>
<g>
	<g>
		<path d="M276.272,108.789c-3.12-2.727-7.859-2.409-10.585,0.71c-2.345,2.683-5.877,4.222-9.69,4.222
			c-3.814,0-7.345-1.538-9.69-4.222c-2.728-3.12-7.465-3.437-10.585-0.71c-3.118,2.727-3.438,7.466-0.71,10.585
			c5.194,5.942,12.842,9.349,20.984,9.349c8.142,0,15.791-3.408,20.984-9.349C279.71,116.255,279.391,111.517,276.272,108.789z"/>
	</g>
</g>
<g>
	<g>
		<path d="M484.94,370.842h-48.07v-86.508c9.263-3.136,15.953-11.908,15.953-22.217c0-12.933-10.522-23.454-23.454-23.454h-20.152
			v-49.545c9.263-3.137,15.953-11.907,15.953-22.217c0-11.008-7.624-20.263-17.868-22.777c-3.066-8.036-10.883-24.879-27.355-41.705
			c-17.455-17.829-47.949-38.581-97.71-44.109V41.486h3.029c4.126,0,7.755-2.485,9.246-6.333c1.49-3.848,0.483-8.13-2.564-10.91
			c0,0-19.808-18.066-19.814-18.071c-9.025-8.231-23.247-8.227-32.267,0l-19.814,18.07c-3.049,2.78-4.056,7.064-2.564,10.911
			c1.491,3.848,5.121,6.333,9.246,6.333h3.028v16.791c-32.936,3.595-60.984,14.185-83.611,31.632
			c-3.281,2.529-3.891,7.239-1.36,10.521c2.529,3.283,7.242,3.89,10.521,1.36c21.77-16.786,49.372-26.568,82.23-29.184
			c0.104-0.004,0.207,0,0.311-0.008c11.963-0.939,24.332-0.939,36.295,0c0.161,0.013,0.322,0.017,0.483,0.019
			c39.358,3.13,70.935,16.451,94.035,39.73c11.479,11.568,18.295,23.258,22.014,31.102H121.291
			c2.767-5.847,7.276-13.845,14.236-22.409c2.612-3.216,2.124-7.939-1.09-10.553c-3.216-2.613-7.939-2.123-10.553,1.09
			c-10.983,13.514-16.673,25.977-19.186,32.548c-10.246,2.511-17.872,11.768-17.872,22.778c0,10.31,6.689,19.08,15.953,22.217
			v49.545H82.628c-12.933,0-23.454,10.523-23.454,23.455c0,10.31,6.689,19.08,15.953,22.217v86.508
			c0-0.002-47.982-0.002-48.069-0.002c-12.443,0-19.578,14.865-11.79,24.574l11.48,14.308v94.773c0,4.144,3.358,7.501,7.501,7.501
			h443.5c4.144,0,7.501-3.357,7.501-7.501v-94.773c0,0,11.461-14.285,11.481-14.309C504.53,385.695,497.351,370.842,484.94,370.842z
			 M267.232,57.141c-7.485-0.34-14.983-0.334-22.469-0.005v-15.65h22.469V57.141z M239.857,26.483c0,0,10.11-9.221,10.117-9.228
			c3.369-3.073,8.683-3.068,12.049,0l10.117,9.228H239.857z M101.83,166.901c0-4.66,3.792-8.451,8.451-8.451h291.433
			c4.66,0,8.451,3.792,8.451,8.451s-3.792,8.451-8.451,8.451H110.281C105.621,175.353,101.83,171.561,101.83,166.901z
			 M335.818,200.192c-11.13,0-20.184,9.054-20.184,20.184v18.287h-12.846v-18.287c0-11.13-9.054-20.184-20.184-20.184
			s-20.184,9.054-20.184,20.184v18.287h-12.846v-18.287c0-11.13-9.054-20.184-20.184-20.184s-20.184,9.054-20.184,20.184v18.287
			h-12.846v-18.287c0-11.13-9.054-20.184-20.184-20.184s-20.184,9.054-20.184,20.184v18.287h-38.211v-48.308h0.003h276.431v48.308
			h-38.211v-18.287C356.002,209.246,346.948,200.192,335.818,200.192z M341.001,220.376v18.287H341h-10.363v-18.287
			c0-2.857,2.324-5.182,5.182-5.182C338.676,215.194,341.001,217.518,341.001,220.376z M287.787,220.376v18.287h-0.001h-10.363
			v-18.287c0-2.857,2.324-5.182,5.182-5.182C285.463,215.194,287.787,217.518,287.787,220.376z M234.574,220.376v18.287h-0.001
			H224.21v-18.287c0-2.857,2.324-5.182,5.182-5.182S234.574,217.518,234.574,220.376z M181.36,220.376v18.287h-0.001h-10.363
			v-18.287c0-2.857,2.324-5.182,5.182-5.182S181.36,217.518,181.36,220.376z M74.176,262.116c0-4.66,3.792-8.451,8.451-8.451
			h346.741c4.66,0,8.451,3.792,8.451,8.452c0,4.66-3.792,8.451-8.451,8.451H82.628C77.968,270.569,74.176,266.777,74.176,262.116z
			 M389.032,294.594c-11.13,0-20.184,9.055-20.184,20.185v17.361h-12.846v-17.361c0-11.13-9.054-20.185-20.184-20.185
			s-20.184,9.055-20.184,20.185v17.361h-12.846v-17.361c0-11.13-9.054-20.185-20.184-20.185s-20.184,9.055-20.184,20.185v17.361
			h-12.846v-17.361c0-11.13-9.054-20.185-20.184-20.185c-11.13,0-20.184,9.055-20.184,20.185v17.361h-12.846v-17.361
			c0-11.13-9.054-20.185-20.184-20.185c-11.13,0-20.184,9.055-20.184,20.185v17.361h-12.846v-17.361
			c0-11.13-9.054-20.185-20.184-20.185s-20.184,9.055-20.184,20.185v56.064H90.129v-85.271h331.739v85.27h-12.651v-56.063
			C409.216,303.649,400.162,294.594,389.032,294.594z M394.102,340.717c-1.94-4.079-5.717-7.128-10.112-8.164
			c-0.048-0.011-0.093-0.029-0.14-0.04v-17.734c0-2.857,2.324-5.183,5.182-5.183c2.857,0,5.182,2.324,5.182,5.183v26.178
			C394.177,340.877,394.14,340.797,394.102,340.717z M394.213,353.577v17.265H383.85V367.2l8.411-10.486
			C393.002,355.792,394.193,353.62,394.213,353.577z M341.001,314.779v17.361H341h-10.363v-17.361c0-2.857,2.324-5.183,5.182-5.183
			C338.676,309.596,341.001,311.92,341.001,314.779z M287.787,314.779v17.361h-0.001h-10.363v-17.361
			c0-2.857,2.324-5.183,5.182-5.183C285.463,309.596,287.787,311.92,287.787,314.779z M234.574,314.779v17.361h-0.001H224.21
			v-17.361c0-2.857,2.324-5.183,5.182-5.183S234.574,311.92,234.574,314.779z M181.36,314.779v17.361h-0.001h-10.363v-17.361
			c0-2.857,2.324-5.183,5.182-5.183S181.36,311.92,181.36,314.779z M117.783,353.579c0.02,0.042,0.047,0.082,0.067,0.123
			c0.504,1.057,1.133,2.071,1.865,2.986c0.007,0.008,0.011,0.017,0.018,0.025l8.412,10.486v3.642h-10.363V353.579z M128.007,332.553
			c-4.407,1.022-8.159,4.096-10.112,8.164c-0.038,0.079-0.075,0.159-0.113,0.239v-26.177c0-2.857,2.324-5.183,5.182-5.183
			c2.857,0,5.182,2.324,5.182,5.183v17.734C128.099,332.524,128.054,332.542,128.007,332.553z M131.213,496.997H41.749v-82.408
			h89.463V496.997z M131.213,399.586H37.846l-10.915-13.593c0-0.043,0.042-0.13,0.127-0.149h104.155V399.586z M380.56,347.326
			l-10.877,13.558h-43.825c-4.144,0-7.501,3.358-7.501,7.501c0,4.144,3.358,7.501,7.501,7.501h39.923v121.11H146.215v-89.909
			v-28.745v-2.456h149.824c4.144,0,7.501-3.358,7.501-7.501c0-4.144-3.358-7.501-7.501-7.501H142.311l-10.915-13.593
			c0-0.044,0.042-0.131,0.127-0.149l249-0.009C380.558,347.16,380.6,347.247,380.56,347.326z M470.247,496.997h-89.463v-82.408
			h89.463V496.997z M485.027,386.027l-10.879,13.559h-93.366v-13.742l104.207-0.009
			C485.023,385.862,485.065,385.949,485.027,386.027z"/>
	</g>
</g>
<g>
</g>
<g>
</g>
<g>
</g>
<g>
</g>
<g>
</g>
<g>
</g>
<g>
</g>
<g>
</g>
<g>
</g>
<g>
</g>
<g>
</g>
<g>
</g>
<g>
</g>
<g>
</g>
<g>
</g>
</svg>
