<?xml version="1.0" encoding="iso-8859-1"?>
<!-- Generator: Adobe Illustrator 19.0.0, SVG Export Plug-In . SVG Version: 6.00 Build 0)  -->
<svg version="1.1" id="Capa_1" xmlns="http://www.w3.org/2000/svg" xmlns:xlink="http://www.w3.org/1999/xlink" x="0px" y="0px"
	 viewBox="0 0 512.001 512.001" style="enable-background:new 0 0 512.001 512.001;" xml:space="preserve">
<g>
	<g>
		<path d="M192.953,337.315c-4.143,0-7.5,3.357-7.5,7.5v11.405c0,4.143,3.357,7.5,7.5,7.5c4.143,0,7.5-3.357,7.5-7.5v-11.405
			C200.453,340.673,197.096,337.315,192.953,337.315z"/>
	</g>
</g>
<g>
	<g>
		<path d="M318.994,337.315c-4.143,0-7.5,3.357-7.5,7.5v11.405c0,4.143,3.357,7.5,7.5,7.5s7.5-3.357,7.5-7.5v-11.405
			C326.495,340.673,323.136,337.315,318.994,337.315z"/>
	</g>
</g>
<g>
	<g>
		<path d="M276.464,349.78c-3.119-2.726-7.858-2.407-10.583,0.71c-2.399,2.744-6.01,4.318-9.907,4.318
			c-3.897,0-7.508-1.574-9.907-4.318c-2.726-3.119-7.463-3.435-10.583-0.71c-3.118,2.726-3.437,7.464-0.71,10.583
			c5.247,6.003,12.975,9.445,21.201,9.445c8.225,0,15.954-3.442,21.201-9.445C279.901,357.245,279.582,352.506,276.464,349.78z"/>
	</g>
</g>
<g>
	<g>
		<path d="M70.371,240.307c-12.362,0-22.42,10.057-22.42,22.42v19.646c0,4.142,3.358,7.5,7.5,7.5h29.839c4.143,0,7.5-3.357,7.5-7.5
			v-19.646C92.791,250.365,82.734,240.307,70.371,240.307z M77.791,274.872H62.952v-12.145c0-4.091,3.328-7.419,7.419-7.419
			c4.091,0,7.419,3.328,7.419,7.419V274.872z"/>
	</g>
</g>
<g>
	<g>
		<path d="M124.473,240.307c-12.362,0-22.42,10.057-22.42,22.42v19.646c0,4.142,3.357,7.5,7.5,7.5h29.839c4.143,0,7.5-3.357,7.5-7.5
			v-19.646C146.893,250.365,136.835,240.307,124.473,240.307z M131.892,274.872h-14.838v-12.145c0-4.091,3.328-7.419,7.419-7.419
			s7.419,3.328,7.419,7.419V274.872z"/>
	</g>
</g>
<g>
	<g>
		<path d="M441.576,240.307c-12.362,0-22.42,10.057-22.42,22.42v19.646c0,4.142,3.357,7.5,7.5,7.5h29.839c4.143,0,7.5-3.357,7.5-7.5
			v-19.646C463.995,250.365,453.938,240.307,441.576,240.307z M448.995,274.872h-14.838v-12.145c0-4.091,3.328-7.419,7.419-7.419
			s7.419,3.328,7.419,7.419V274.872z"/>
	</g>
</g>
<g>
	<g>
		<path d="M387.474,240.307c-12.362,0-22.42,10.057-22.42,22.42v19.646c0,4.142,3.358,7.5,7.5,7.5h29.839c4.143,0,7.5-3.357,7.5-7.5
			v-19.646C409.894,250.365,399.837,240.307,387.474,240.307z M394.893,274.872h-14.838v-12.145c0-4.091,3.328-7.419,7.419-7.419
			s7.419,3.328,7.419,7.419V274.872z"/>
	</g>
</g>
<g>
	<g>
		<path d="M510.003,210.618l-20.631-25.359c-7.873-9.676-19.542-15.226-32.017-15.226H351.81v-8.956c0-0.075-0.003-0.15-0.003-0.241
			c-0.131-48.12-39.316-87.229-87.466-87.229h-16.735c-48.15,0-87.335,39.109-87.466,87.244c0,0.075-0.003,0.15-0.003,0.226v8.956
			H105.29c-4.143,0-7.5,3.357-7.5,7.5s3.357,7.5,7.5,7.5h54.846v23.182h-136.9l10.973-13.488c5.012-6.159,12.44-9.692,20.382-9.692
			h20.712c4.143,0,7.5-3.357,7.5-7.5c0-4.143-3.357-7.5-7.5-7.5H54.592c-12.474,0-24.144,5.55-32.018,15.226
			c0,0-20.888,25.675-20.927,25.723c-3.923,4.822-0.385,12.233,5.818,12.233h11.915v207.679c0,4.143,3.357,7.5,7.5,7.5h458.185
			c4.143,0,7.5-3.357,7.5-7.5V223.216c0,0,11.914,0,11.934,0c4.143,0,7.5-3.357,7.5-7.5
			C512.001,213.747,511.243,211.956,510.003,210.618z M351.81,223.216h125.755v83.04H351.81V223.216z M247.606,88.607h16.735
			c35.698,0,65.431,25.951,71.371,59.976l-65.31-31.612c-4.472-2.164-9.461-3.309-14.429-3.309c-4.968,0-9.957,1.145-14.429,3.309
			l-65.31,31.612C182.176,114.558,211.908,88.607,247.606,88.607z M311.599,153.577H200.347l47.732-23.105
			c4.893-2.369,10.895-2.369,15.787,0L311.599,153.577z M175.137,168.577H336.81v17.094H175.137V168.577z M34.381,223.216h125.755
			v83.04H34.381V223.216z M47.952,362.713v60.682h-13.57V321.257h119.06l-60.651,59.582v-18.125
			c0-12.361-10.057-22.419-22.42-22.419C58.009,340.294,47.952,350.35,47.952,362.713z M62.952,362.713
			c0-4.09,3.328-7.418,7.419-7.418c4.091,0,7.419,3.328,7.419,7.418v32.862l-14.838,14.576V362.713z M70.878,423.394
			l185.096-181.836c0,0,26.052,25.594,26.063,25.605c2.919,2.868,7.742,2.823,10.607-0.095c2.902-2.955,2.86-7.703-0.095-10.606
			l-31.319-30.768c-2.918-2.865-7.594-2.865-10.512,0l-75.58,74.248V200.67H336.81v99.272l-23.185-22.776
			c-2.953-2.902-7.702-2.86-10.606,0.095c-2.862,2.912-2.812,7.752,0.095,10.608L441.07,423.394H70.878z M448.995,410.151
			l-14.838-14.576v-32.862c0-4.09,3.328-7.418,7.419-7.418c4.091,0,7.419,3.328,7.419,7.418V410.151z M477.567,423.393
			L477.567,423.393h-13.571v-60.682c0-12.361-10.057-22.419-22.42-22.419c-12.362,0-22.42,10.057-22.42,22.419v18.126l-60.65-59.582
			h119.06V423.393z M351.81,208.214v-23.182h105.545v0.001c7.94,0,15.369,3.533,20.381,9.692l10.974,13.488H351.81z"/>
	</g>
</g>
<g>
</g>
<g>
</g>
<g>
</g>
<g>
</g>
<g>
</g>
<g>
</g>
<g>
</g>
<g>
</g>
<g>
</g>
<g>
</g>
<g>
</g>
<g>
</g>
<g>
</g>
<g>
</g>
<g>
</g>
</svg>
