<?xml version="1.0" encoding="iso-8859-1"?>
<!-- Generator: Adobe Illustrator 19.0.0, SVG Export Plug-In . SVG Version: 6.00 Build 0)  -->
<svg version="1.1" id="Capa_1" xmlns="http://www.w3.org/2000/svg" xmlns:xlink="http://www.w3.org/1999/xlink" x="0px" y="0px"
	 viewBox="0 0 512 512" style="enable-background:new 0 0 512 512;" xml:space="preserve">
<g>
	<g>
		<path d="M103.511,127.732c-4.142,0-7.5,3.357-7.5,7.5v7.847c0,4.143,3.358,7.5,7.5,7.5c4.142,0,7.5-3.357,7.5-7.5v-7.847
			C111.011,131.089,107.653,127.732,103.511,127.732z"/>
	</g>
</g>
<g>
	<g>
		<path d="M190.231,127.732c-4.142,0-7.5,3.357-7.5,7.5v7.847c0,4.143,3.358,7.5,7.5,7.5c4.142,0,7.5-3.357,7.5-7.5v-7.847
			C197.731,131.089,194.373,127.732,190.231,127.732z"/>
	</g>
</g>
<g>
	<g>
		<path d="M162.509,136.887c-3.119-2.726-7.856-2.407-10.583,0.711c-1.206,1.38-3.048,2.171-5.055,2.171
			c-2.007,0-3.849-0.792-5.056-2.172c-2.727-3.118-7.464-3.436-10.583-0.71c-3.118,2.727-3.436,7.465-0.71,10.583
			c4.056,4.638,10.015,7.299,16.349,7.299c6.335,0,12.294-2.66,16.349-7.3C165.946,144.351,165.628,139.613,162.509,136.887z"/>
	</g>
</g>
<g>
	<g>
		<path d="M485.781,463.333c3.784-8.502,6.4-17.426,7.788-26.642c0.007-0.045,0.013-0.091,0.019-0.137c0,0,0.093-0.707,0.094-0.72
			c2.642-18.553,0.242-37.954-6.944-56.112c-6.145-15.524-15.784-30.03-27.878-41.951c-7.631-7.521-15.893-13.988-25.907-21.667
			l-1.013-0.776c-20.534-15.74-39.955-30.635-46.639-54.371l0.216-0.696c2.842-9.164,1.208-18.85-4.484-26.574
			c-4.164-5.651-9.978-9.529-16.554-11.209v-25.023h14.895c4.142,0,7.5-3.357,7.5-7.5s-3.358-7.5-7.5-7.5h-14.895v-16.144
			c0-4.143-3.358-7.5-7.5-7.5c-4.142,0-7.5,3.357-7.5,7.5v16.144h-14.895c-4.142,0-7.5,3.357-7.5,7.5s3.358,7.5,7.5,7.5h14.895
			v25.023c-6.576,1.68-12.39,5.558-16.554,11.209c-5.692,7.725-7.326,17.41-4.484,26.573l0.216,0.697
			c-6.683,23.736-26.103,38.629-46.635,54.369c-1.376,1.055-2.752,2.111-4.125,3.17c-3.908-5.699-10.156-9.588-17.347-10.371
			c1.236-2.912,1.921-6.112,1.921-9.47c0-13.403-10.905-24.309-24.31-24.309h-9.568l-28.148-55.854
			c8.012-4.008,13.53-12.292,13.53-21.844c0-5.551-1.866-10.672-4.998-14.778c5.919-3.565,11.004-8.82,14.839-15.526
			c8.979-15.703,9.3-35.962,0.797-50.414c-8.312-14.127-22.504-20.541-36.229-26.745c-6.312-2.852-12.339-5.591-17.502-8.94
			c2.437-7.559,1.175-15.877-3.438-22.368c-3.235-4.551-7.86-7.845-13.072-9.471V34.689h8.177c4.142,0,7.5-3.357,7.5-7.5
			c0-4.143-3.358-7.5-7.5-7.5h-8.177V7.5c0-4.143-3.358-7.5-7.5-7.5c-4.142,0-7.5,3.357-7.5,7.5v12.189h-8.179
			c-4.142,0-7.5,3.357-7.5,7.5c0,4.143,3.358,7.5,7.5,7.5h8.179v13.716c-5.213,1.626-9.838,4.92-13.073,9.471
			c-4.613,6.491-5.875,14.809-3.438,22.368c-5.163,3.349-11.19,6.087-17.502,8.94c-13.725,6.203-27.917,12.618-36.229,26.745
			c-8.503,14.451-8.183,34.711,0.796,50.413c3.835,6.706,8.921,11.962,14.839,15.527c-3.132,4.105-4.998,9.227-4.998,14.778
			c0,9.552,5.517,17.835,13.53,21.844l-28.148,55.854h-9.565c-13.404,0-24.31,10.905-24.31,24.31c0,3.354,0.683,6.552,1.917,9.462
			c-12.143,1.343-21.62,11.662-21.62,24.157c0,10.788,7.065,19.951,16.81,23.12V504.5c0,4.143,3.358,7.5,7.5,7.5h438.992
			c14.091,0,25.557-11.466,25.557-25.559C500.43,476.249,494.431,467.434,485.781,463.333z M474.325,389.38
			c4.289,12.389,6.053,25.303,5.187,37.889c-0.008,0.089-8.224-1.556-11.302-2.8c-9.012-3.644-17.11-7.007-27.059-7.007
			c-13.153,0-22.907,7.249-35.316,9.404c-17.534,3.045-31.677-9.404-48.856-9.404c-19.573,0-35.097,14.827-55.256,7.722
			c-0.087-0.031-0.177-0.056-0.264-0.087c-9.752-3.553-17.935-7.635-28.652-7.635c-10.868,0-19.092,4.244-29.006,7.755
			c-2.664,0.943-5.431,1.603-8.238,1.936c-0.369,0.046-0.74,0.078-1.111,0.114c-0.388-0.167-0.205-4.774-0.21-5.227
			c-0.12-10.653,1.624-21.292,4.972-31.4c0.14-0.422,0.287-0.842,0.432-1.262c0.078-0.013,0.155-0.03,0.233-0.043
			c5.296-0.9,10.464-2.595,15.261-5.014c10.904-5.499,24.292-5.567,35.333,0c15.226,7.678,33.614,7.678,48.839,0
			c11.019-5.556,24.314-5.556,35.333,0c15.225,7.675,33.616,7.676,48.839,0c11.018-5.556,24.314-5.553,35.333,0
			c4.799,2.418,9.962,4.12,15.261,5.014C474.161,389.349,474.242,389.367,474.325,389.38z M345.001,242.585
			c2.834-3.847,7.2-6.053,11.979-6.053s9.144,2.206,11.979,6.053c2.317,3.144,3.284,6.94,2.787,10.715h-29.53
			C341.717,249.525,342.684,245.729,345.001,242.585z M342.103,268.3h29.754c7.443,22.603,24.054,37.864,41.632,51.717
			c-0.196,0.077-0.39,0.159-0.587,0.233c-4.412,1.656-9.122,2.534-13.836,2.534c-6.106,0-12.215-1.449-17.666-4.202
			c-15.136-7.645-33.611-7.679-48.839,0c-9.082,4.58-19.959,5.446-29.728,2.29c-0.598-0.193-2.168-0.777-2.363-0.855
			C318.048,306.164,334.659,290.904,342.103,268.3z M279.299,336.465c2.44-1.961,4.985-3.953,7.678-6.031
			c0.017,0.006,0.034,0.012,0.051,0.018c1.173,0.445,2.326,0.96,3.446,1.525c15.221,7.672,33.621,7.667,48.839,0
			c11.016-5.553,24.317-5.555,35.333,0c10.307,5.197,22.407,7.006,33.868,4.972c6.502-1.154,12.324-4.121,18.416-6.496
			c0.017-0.007,0.034-0.012,0.051-0.019c8.192,6.319,15.116,11.877,21.35,18.022c6.829,6.73,12.764,14.393,17.563,22.623
			c-0.107-0.053-0.216-0.099-0.323-0.153c-15.223-7.673-33.619-7.674-48.839,0c-11.017,5.555-24.315,5.556-35.333,0
			c-15.15-7.64-33.692-7.636-48.839,0c-11,5.545-24.338,5.544-35.333,0c-15.217-7.673-33.625-7.669-48.839,0
			c-0.101,0.051-0.205,0.095-0.307,0.146c0.11-0.188,0.219-0.376,0.33-0.564C256.364,357.061,267.191,346.196,279.299,336.465z
			 M211.795,274.346h-29.223l-11.333-53.285h13.702L211.795,274.346z M104.179,206.06c-5.19,0-9.413-4.223-9.413-9.413
			s4.223-9.413,9.413-9.413h85.381c5.19,0,9.413,4.223,9.413,9.413s-4.223,9.413-9.413,9.413H104.179z M167.236,274.346h-40.734
			l11.333-53.285h18.068L167.236,274.346z M138.523,66.567c1.946-2.737,4.988-4.308,8.347-4.308s6.4,1.57,8.346,4.308
			c1.884,2.65,2.396,5.912,1.425,8.996h-19.542C136.126,72.479,136.639,69.218,138.523,66.567z M82.946,158.896
			c-6.296-11.009-6.662-25.549-0.89-35.359c5.899-10.025,17.353-15.203,29.479-20.684c7.791-3.521,15.821-7.151,22.788-12.29h25.093
			c6.967,5.139,14.998,8.769,22.788,12.29c12.126,5.481,23.581,10.658,29.479,20.684c5.772,9.81,5.406,24.351-0.89,35.359
			c-2.849,4.981-9.395,13.338-21.233,13.338h-85.381C92.341,172.234,85.795,163.878,82.946,158.896z M108.797,221.061H122.5
			l-11.333,53.285H81.944L108.797,221.061z M55.582,289.346H238.16c5.133,0,9.31,4.176,9.31,9.31c0,5.134-4.176,9.31-9.31,9.31
			H55.582c-5.133,0-9.31-4.177-9.31-9.311C46.271,293.521,50.449,289.346,55.582,289.346z M35.879,341.584
			c-5.133,0-9.31-4.177-9.31-9.311c0.001-5.132,4.177-9.308,9.31-9.308h221.983c3.558,0,6.661,1.969,8.226,4.927
			c-4.911,4.089-9.669,8.376-14.057,13.026c-0.211,0.223-0.422,0.44-0.632,0.666H35.879z M176.149,497h-58.56v-83.523
			c0-4.143-3.358-7.5-7.5-7.5c-4.142,0-7.5,3.357-7.5,7.5V497h-59.21l0.001-140.416h59.209v26.893c0,4.143,3.358,7.5,7.5,7.5
			c4.142,0,7.5-3.357,7.5-7.5v-26.893h58.56V497z M220.282,435.885c0,0,0.004,0.027,0.006,0.041
			c1.056,7.778,3.119,15.418,5.953,22.732c0.609,1.573,1.244,3.134,1.93,4.675c-0.019,0.009-0.036,0.02-0.055,0.028
			c-7.05,3.329-12.354,10.055-14.006,17.671c-1.133,5.225-0.574,10.789,1.582,15.682c0.042,0.094,0.078,0.192,0.121,0.286h-24.664
			V356.584h48.303c-4.329,6.395-8.016,13.155-11.031,20.223C220.521,395.324,217.417,415.91,220.282,435.885z M474.871,497H239.088
			c-5.822,0-10.559-4.736-10.559-10.559c0-5.822,4.737-10.56,10.559-10.56h169.418c4.142,0,7.5-3.357,7.5-7.5s-3.358-7.5-7.5-7.5
			H243.605c-2.868-5.737-5.118-11.785-6.685-18.005c-0.043-0.169-0.165-0.667-0.184-0.747c4.037-0.453,8.066-1.331,11.87-2.771
			c3.799-1.439,7.408-3.343,11.247-4.68c8.297-2.891,17.386-2.914,25.696-0.071c4.62,1.58,8.859,4.061,13.543,5.487
			c11,3.348,22.833,3.105,33.691-0.68c5.604-1.954,10.576-4.981,16.473-6.16c6.239-1.247,12.764-0.966,18.869,0.833
			c0.035,0.01,0.07,0.018,0.105,0.028c4.756,1.404,9.043,4.03,13.756,5.573c11.363,3.721,23.626,3.671,34.929-0.26
			c3.907-1.359,7.507-3.447,11.421-4.795c7.716-2.657,16.108-2.849,23.918-0.557c0.05,0.015,0.101,0.025,0.15,0.04
			c8.363,2.462,16.046,7.038,24.829,8.015c-1.57,6.472-3.868,12.745-6.871,18.751H438.39c-4.142,0-7.5,3.357-7.5,7.5
			s3.358,7.5,7.5,7.5h36.481c5.822,0,10.559,4.737,10.559,10.56S480.693,497,474.871,497z"/>
	</g>
</g>
<g>
</g>
<g>
</g>
<g>
</g>
<g>
</g>
<g>
</g>
<g>
</g>
<g>
</g>
<g>
</g>
<g>
</g>
<g>
</g>
<g>
</g>
<g>
</g>
<g>
</g>
<g>
</g>
<g>
</g>
</svg>
