<?xml version="1.0" encoding="iso-8859-1"?>
<!-- Generator: Adobe Illustrator 19.0.0, SVG Export Plug-In . SVG Version: 6.00 Build 0)  -->
<svg version="1.1" id="Capa_1" xmlns="http://www.w3.org/2000/svg" xmlns:xlink="http://www.w3.org/1999/xlink" x="0px" y="0px"
	 viewBox="0 0 512 512" style="enable-background:new 0 0 512 512;" xml:space="preserve">
<g>
	<g>
		<path d="M222.642,73.686c-4.142,0-7.5,3.357-7.5,7.5v6.037c0,4.142,3.357,7.5,7.5,7.5c4.142,0,7.5-3.357,7.5-7.5v-6.037
			C230.142,77.043,226.785,73.686,222.642,73.686z"/>
	</g>
</g>
<g>
	<g>
		<path d="M289.356,73.686c-4.142,0-7.5,3.357-7.5,7.5v6.037c0,4.142,3.358,7.5,7.5,7.5c4.142,0,7.5-3.357,7.5-7.5v-6.037
			C296.856,77.043,293.499,73.686,289.356,73.686z"/>
	</g>
</g>
<g>
	<g>
		<path d="M269.168,81.156c-3.118-2.727-7.856-2.409-10.583,0.71c-0.59,0.676-1.558,1.079-2.586,1.079
			c-1.029,0-1.997-0.403-2.588-1.08c-2.727-3.117-7.465-3.436-10.583-0.708c-3.118,2.727-3.436,7.465-0.708,10.583
			c3.449,3.944,8.507,6.205,13.879,6.205s10.431-2.262,13.879-6.206C272.605,88.621,272.286,83.883,269.168,81.156z"/>
	</g>
</g>
<g>
	<g>
		<path d="M502.035,412.951c-0.004-0.011-0.005-0.022-0.009-0.033l-45.365-137.292c-3.725-11.271-14.203-18.845-26.074-18.845
			h-16.138v-36.612c10.224-4.535,19.671-10.46,28.527-16.016c0,0,5.891-3.693,8.561-5.288c3.502-2.091,4.685-6.785,2.593-10.286
			c0,0-17.211-28.81-17.223-28.829c-2.095-3.507-6.775-4.686-10.285-2.592c-3.2,1.912-6.527,4-9.466,5.844
			c-5.218,3.273-10.505,6.582-15.616,9.36l-25.087-33.142c6.036-2.512,11.899-5.442,17.517-8.798c1.708-1.02,2.94-2.677,3.426-4.605
			c0.486-1.929,0.186-3.972-0.834-5.68L379.34,91.309c-2.124-3.555-6.727-4.716-10.285-2.592
			c-6.374,3.807-13.178,6.767-20.237,8.857l-62.132-59.071c0.516-2.258,0.798-4.604,0.798-7.016C287.486,14.125,273.361,0,255.999,0
			s-31.486,14.125-31.486,31.486c0,2.412,0.282,4.758,0.798,7.016l-62.132,59.071c-7.058-2.09-13.863-5.05-20.237-8.857
			c-3.556-2.122-8.161-0.964-10.285,2.592l-17.222,28.828c-2.125,3.556-0.964,8.161,2.592,10.285
			c5.635,3.367,11.492,6.299,17.51,8.809l-25.079,33.131c-5.112-2.778-21.882-13.291-25.082-15.204
			c-3.509-2.097-8.194-0.909-10.285,2.592c0,0-17.212,28.812-17.223,28.829c-2.099,3.514-0.915,8.192,2.593,10.286
			c2.671,1.595,26.865,16.769,37.089,21.304v36.612H81.413c-11.871,0-22.35,7.573-26.074,18.845l-23.357,70.688
			c-1.3,3.934,0.835,8.175,4.768,9.475c3.931,1.303,8.174-0.835,9.474-4.768l23.357-70.688c1.69-5.115,6.445-8.552,11.832-8.552
			h70.444v135.99H27.471l8.839-26.752c1.299-3.932-0.835-8.174-4.769-9.473c-3.936-1.305-8.176,0.835-9.474,4.769L9.973,412.918
			c-0.003,0.01-0.005,0.02-0.008,0.03c-0.244,0.749-0.371,1.535-0.371,2.323V504.5c0,4.143,3.358,7.5,7.5,7.5h477.811
			c4.142,0,7.5-3.357,7.5-7.5v-89.229C502.405,414.49,502.283,413.692,502.035,412.951z M430.587,271.78
			c5.387,0,10.142,3.437,11.832,8.552l42.109,127.438H360.142V271.78H430.587z M378.478,422.771v14.743h-59.636l-8.013-14.743
			H378.478z M396.715,191.116c9.448-3.528,19.035-9.526,28.42-15.412c0.898-0.563,1.833-1.15,2.789-1.747l9.531,15.954
			c-0.763,0.478-1.536,0.962-2.319,1.453l-0.131,0.082c-12.424,7.794-26.138,16.393-40.832,19.839
			c-4.216,0.986-8.538,1.555-12.872,1.555h-93.815v-18.581c0,0,93.812,0,93.815,0c5.232,0,10.431-1.274,15.307-3.104
			C396.645,191.142,396.679,191.129,396.715,191.116z M255.999,15c9.091,0,16.486,7.396,16.486,16.486
			c0,8.951-7.53,16.486-16.486,16.486c-8.931,0-16.486-7.568-16.486-16.486C239.514,22.396,246.908,15,255.999,15z M232.452,52.409
			c-0.646,0.614,8.45,6.733,9.316,7.171c7.732,3.904,16.911,4.445,25.048,1.478c4.892-1.784,9.27-4.748,12.73-8.649l51.051,48.536
			c-0.102,0.008-0.203,0.018-0.305,0.026c-2.182,0.164-4.371,0.252-6.559,0.252H188.265c-2.186,0-4.378-0.089-6.559-0.252
			c-0.102-0.008-0.204-0.018-0.305-0.026C181.401,100.945,232.449,52.412,232.452,52.409z M150.403,144.447
			c1.499,0.431,3.004,0.837,4.517,1.217c0.06,0.015,0.12,0.031,0.18,0.046c10.836,2.725,21.992,4.093,33.165,4.093h112.718
			c4.142,0,7.5-3.357,7.5-7.5s-3.358-7.5-7.5-7.5H188.265c-12.992,0-25.975-2.113-38.308-6.193
			c-0.048-0.016-0.098-0.024-0.146-0.039c-6.013-1.998-11.879-4.456-17.535-7.379l9.551-15.987
			c6.908,3.472,14.171,6.142,21.66,7.994c0.017,0.004,0.035,0.008,0.052,0.012c8.064,2.037,16.412,3.011,24.726,3.011h135.468
			c8.321,0,16.647-1.021,24.726-3.011c0.017-0.004,0.035-0.008,0.069-0.018c7.472-1.847,14.735-4.517,21.643-7.989l9.549,15.984
			c-5.75,2.966-11.736,5.467-17.883,7.484c-9.415,3.099-19.216,5.028-29.098,5.772c-1.001,0.075-2.003,0.139-3.005,0.19
			c-4.137,0.206-7.324,3.727-7.119,7.863c0.204,4.088,3.784,7.309,7.861,7.121c10.513-0.486,21.008-2.266,31.12-5.176l25.706,33.96
			c-1.956,0.509-3.978,0.854-6.002,0.854c0,0-94.006,0-94.067,0c-0.14-0.037-0.38-1.59-0.428-1.751
			c-1.142-3.78-3.691-7.097-7.073-9.141c-2.484-1.502-5.413-2.333-8.316-2.333c0,0-30.833,0-30.834,0
			c-4.894,0-9.621,2.379-12.666,6.213c-1.603,2.018-2.697,4.475-3.151,7.012c0,0-94.066,0-94.067,0
			c-2.022,0.003-4.05-0.343-6.003-0.852C124.695,178.404,150.4,144.446,150.403,144.447z M272.486,182.104v43.579
			c0,0.59-0.479,1.069-1.069,1.069h-30.834c-0.59,0-1.069-0.479-1.069-1.069v-43.579c0-0.59,0.479-1.069,1.069-1.069h30.834
			C272.007,181.035,272.486,181.514,272.486,182.104z M76.862,191.364c-0.784-0.491-1.556-0.976-2.319-1.453l9.531-15.954
			c0.958,0.598,1.896,1.187,2.796,1.752c9.381,5.884,18.967,11.881,28.417,15.408c0.033,0.012,0.065,0.023,0.097,0.035
			c4.801,1.769,10.077,3.107,15.313,3.107h93.815v18.581c0,0-93.807,0-93.815,0c-4.327,0-8.663-0.568-12.872-1.555
			C102.871,207.777,89.72,199.423,76.862,191.364z M112.549,256.78v-31.317c5.801,1.494,11.839,2.376,18.149,2.376h93.959
			c0.029,0.212,0.077,0.417,0.114,0.626c0.674,3.841,2.826,7.426,5.909,9.846c2.77,2.174,6.377,3.439,9.902,3.439h30.834
			c4.1,0,8.103-1.633,11.063-4.458c2.598-2.48,4.381-5.884,4.862-9.454H381.3c6.309,0,12.348-0.883,18.149-2.376v31.317h-46.807
			c-4.142,0-7.5,3.357-7.5,7.5v143.49h-39.427v-72.348c0-27.414-22.303-49.717-49.716-49.717c-27.413,0-49.716,22.303-49.716,49.717
			v72.348h-39.427V264.28h0c0-4.143-3.358-7.5-7.5-7.5H112.549z M290.715,407.771h-69.432v-72.348
			c0-19.143,15.574-34.717,34.716-34.717c19.142,0,34.716,15.574,34.716,34.717V407.771z M133.522,422.771h67.649l-8.013,14.743
			h-59.636V422.771z M84.202,474.757V497H24.594v-74.229h93.927v14.743h-7.918c-4.142,0-7.5,3.357-7.5,7.5v22.243H91.702
			C87.559,467.257,84.202,470.614,84.202,474.757z M160.825,497H99.202v-14.743h69.637L160.825,497z M118.103,467.257v-14.743
			h66.902l-8.013,14.743H118.103z M177.898,497l40.345-74.229h75.513L334.1,497H177.898z M326.993,452.514h66.902v14.743h-58.889
			L326.993,452.514z M412.798,497h-61.624l-8.013-14.743h69.637V497z M487.405,497L487.405,497h-59.608v-22.243
			c0-4.143-3.358-7.5-7.5-7.5h-11.401v-22.243c0-4.143-3.358-7.5-7.5-7.5h-7.918v-14.743h93.927V497z"/>
	</g>
</g>
<g>
</g>
<g>
</g>
<g>
</g>
<g>
</g>
<g>
</g>
<g>
</g>
<g>
</g>
<g>
</g>
<g>
</g>
<g>
</g>
<g>
</g>
<g>
</g>
<g>
</g>
<g>
</g>
<g>
</g>
</svg>
