<?xml version="1.0" encoding="iso-8859-1"?>
<!-- Generator: Adobe Illustrator 19.0.0, SVG Export Plug-In . SVG Version: 6.00 Build 0)  -->
<svg version="1.1" id="Capa_1" xmlns="http://www.w3.org/2000/svg" xmlns:xlink="http://www.w3.org/1999/xlink" x="0px" y="0px"
	 viewBox="0 0 512 512" style="enable-background:new 0 0 512 512;" xml:space="preserve">
<g>
	<g>
		<path d="M163.815,251.937c-4.143,0-7.5,3.357-7.5,7.5v16.685c0,4.143,3.358,7.5,7.5,7.5c4.143,0,7.5-3.357,7.5-7.5v-16.685
			C171.315,255.294,167.958,251.937,163.815,251.937z"/>
	</g>
</g>
<g>
	<g>
		<path d="M348.185,251.937c-4.143,0-7.5,3.357-7.5,7.5v16.685c0,4.143,3.357,7.5,7.5,7.5s7.5-3.357,7.5-7.5v-16.685
			C355.685,255.294,352.328,251.937,348.185,251.937z"/>
	</g>
</g>
<g>
	<g>
		<path d="M283.688,269.313c-3.12-2.726-7.858-2.41-10.583,0.71c-4.168,4.769-10.403,7.503-17.105,7.503
			c-6.703,0-12.938-2.734-17.106-7.503c-2.726-3.119-7.463-3.436-10.583-0.71c-3.118,2.727-3.437,7.464-0.71,10.583
			c7.016,8.027,17.368,12.63,28.399,12.63c11.03,0,21.382-4.604,28.398-12.63C287.125,276.778,286.806,272.041,283.688,269.313z"/>
	</g>
</g>
<g>
	<g>
		<path d="M508.511,251.52c0,0-40.036-25.333-40.037-25.334c-5.005-3.167-8.98-7.257-12.681-11.832l-38.104-47.451
			c-3.781-4.709-8.233-8.825-13.229-12.229c-4.982-3.401-10.448-6.038-16.248-7.839c-7.052-2.186-13.543-6.09-18.775-11.299
			l-7.292-7.24c-11.505-11.425-26.771-17.717-42.983-17.717h-21.21c-8.847,0-17.761,1.976-25.782,5.713l-28.507,13.302
			c2.431-8.268,3.667-16.846,3.667-25.656c0-50.308-40.928-91.235-91.235-91.235c-26.674,0-51.939,11.646-69.319,31.95
			c-2.694,3.146-2.326,7.881,0.82,10.574c3.148,2.696,7.881,2.328,10.574-0.82c14.527-16.971,35.64-26.704,57.925-26.704
			c42.036,0,76.235,34.199,76.235,76.235c0,11.06-2.312,21.686-6.876,31.64c-0.446,0.054-0.891,0.11-1.338,0.151l-34.054,3.132
			c-14.676,1.356-28.361,7.976-38.537,18.642l-18.288,19.18c-31.639-9.896-53.377-39.215-53.377-72.744
			c0-8.558,1.427-16.993,4.241-25.073c1.362-3.912-0.705-8.188-4.616-9.55c-3.911-1.361-8.188,0.705-9.55,4.616
			c-3.367,9.67-5.075,19.766-5.075,30.007c0,37.662,22.933,70.877,57.064,84.609c0,0-20.901,21.609-22.977,23.154
			c-0.6,0.446-1.088,0.869-1.734,1.25c0,0-93.293,52.023-93.362,52.061C1.506,266.316,0,268.88,0,271.563v220.235
			c0,4.143,3.357,7.5,7.5,7.5h497c4.143,0,7.5-3.357,7.5-7.5v-233.94C512,255.286,510.683,252.895,508.511,251.52z M140.972,190.299
			c0,0,21.399-22.442,21.402-22.446c7.126-7.469,16.785-12.392,26.997-13.817c18.839-2.629,38.621-0.409,56.311-8.832l32.826-15.318
			c6.047-2.818,12.77-4.308,19.442-4.308h21.21c12.226,0,23.738,4.745,32.414,13.361l7.285,7.234
			c6.939,6.905,15.553,12.088,24.907,14.987c8.708,2.699,16.519,8.023,22.226,15.133l24.697,30.755
			c-0.108-0.006-0.216-0.003-0.324-0.009c-9.362-0.459-18.755,1.191-27.402,4.813c-11.766,4.93-25.256,4.939-37.016-0.003
			c-15.441-6.489-33.186-6.465-48.624,0.003c-11.771,4.932-25.247,4.944-37.016-0.003c-15.444-6.492-33.183-6.466-48.626,0.003
			c-11.772,4.931-25.247,4.942-37.015-0.003c-15.446-6.491-33.179-6.468-48.624,0.003c-8.853,3.709-18.826,4.72-28.226,2.731
			C117.816,214.583,140.963,190.307,140.972,190.299z M15,484.297c0,0.001,0-203.748,0-203.762c0.006,0.111,2.312,0.782,2.475,0.844
			c10.736,4.131,19.174,13.361,22.313,24.436c1.443,5.091,1.75,10.591,0.901,15.862c-0.989,6.149,5.818,10.817,11.199,7.664
			c6.394-3.75,13.699-5.731,21.129-5.731c23.046,0,41.802,18.725,41.85,41.76c-0.003,0.096-0.005,0.215-0.005,0.283
			c-0.002,6.303,7.616,9.814,12.402,5.677c11.74-10.141,26.741-15.726,42.24-15.726c13.409,0,26.644,4.279,37.543,12.078
			c14.43,10.325,24.244,26.506,26.544,44.117c0.023,0.282-2.226,1.642-2.47,1.827c-7.162,5.465-13.386,12.24-18.213,19.849
			c-0.042,0.003-0.083,0.008-0.125,0.011c-29.045,2.032-55.01,22.873-63.2,50.811H15z M497,484.297H165.408
			c0.034-0.088,0.063-0.178,0.097-0.265c2.369-6.075,5.804-11.753,10.134-16.63c10.512-11.841,25.812-18.967,41.671-19.086
			c2.7-0.018,5.183-1.485,6.499-3.843c5.03-9.006,12.366-16.688,21.097-22.173c14.74-9.26,33.143-11.797,49.846-6.93
			c3.898,1.132,7.984-1.032,9.232-4.89c8.242-25.441,31.754-42.534,58.506-42.534c5.596,0,13.965,2.536,15.8-5.236
			c4.342-18.391,15.046-35.215,29.785-47.029c13.387-10.73,29.205-17.033,46.115-18.442c14.606-1.216,29.475,1.295,42.81,7.403
			V484.297z M496.994,288.404c-1.259-0.474-4.427-1.54-4.737-1.639c-9.92-3.177-20.338-4.828-30.756-4.828
			c-22.769,0-45.074,7.827-62.806,22.04c-15.761,12.633-27.425,29.862-33.307,49.029c-0.978-0.04-1.944-0.06-2.897-0.06
			c-30.932,0-58.38,18.37-70.329,46.376c-4.82-0.94-9.719-1.415-14.632-1.415c-9.723,0-19.41,1.914-28.44,5.504
			c-0.471,0.187-1.055,0.545-1.556,0.586c-0.181-0.218-0.175-0.567-0.235-0.834c-3.451-15.405-11.469-29.675-22.918-40.552
			c-14.694-13.985-34.584-22.008-54.876-22.008c-14.607,0-28.855,4.025-41.22,11.508c-6.021-24.928-28.517-43.503-55.268-43.503
			c-5.806,0-11.557,0.891-17.049,2.618c-1.212-13.75-8.124-26.697-18.77-35.46c-3.105-2.557-6.501-4.764-10.111-6.54l77.264-43.083
			c0.313,0.125,0.63,0.231,0.944,0.351c14.952,5.685,31.811,5.39,46.554-0.809c11.756-4.943,25.257-4.93,37.015-0.003
			c15.46,6.479,33.169,6.503,48.625,0.003c11.754-4.943,25.26-4.93,37.015-0.003c15.462,6.48,33.168,6.503,48.626,0.003
			c11.75-4.941,25.266-4.926,37.015-0.003c15.457,6.477,33.172,6.501,48.625,0.003c5.901-2.473,12.13-3.727,18.512-3.727
			c3.823,0,7.667,0.291,11.388,1.205c2.528,0.621,6.008,1.385,7.761,3.468c4.028,4.785,8.744,8.897,14.029,12.234L497,261.987
			C497,261.987,497,288.406,496.994,288.404z"/>
	</g>
</g>
<g>
</g>
<g>
</g>
<g>
</g>
<g>
</g>
<g>
</g>
<g>
</g>
<g>
</g>
<g>
</g>
<g>
</g>
<g>
</g>
<g>
</g>
<g>
</g>
<g>
</g>
<g>
</g>
<g>
</g>
</svg>
