<?xml version="1.0" encoding="iso-8859-1"?>
<!-- Generator: Adobe Illustrator 19.0.0, SVG Export Plug-In . SVG Version: 6.00 Build 0)  -->
<svg version="1.1" id="Capa_1" xmlns="http://www.w3.org/2000/svg" xmlns:xlink="http://www.w3.org/1999/xlink" x="0px" y="0px"
	 viewBox="0 0 512 512" style="enable-background:new 0 0 512 512;" xml:space="preserve">
<g>
	<g>
		<path d="M216.429,41.684c-4.143,0-7.5,3.357-7.5,7.5v7.162c0,4.142,3.357,7.5,7.5,7.5s7.5-3.357,7.5-7.5v-7.162
			C223.929,45.041,220.572,41.684,216.429,41.684z"/>
	</g>
</g>
<g>
	<g>
		<path d="M295.571,41.684c-4.143,0-7.5,3.357-7.5,7.5v7.162c0,4.142,3.358,7.5,7.5,7.5c4.143,0,7.5-3.357,7.5-7.5v-7.162
			C303.071,45.041,299.714,41.684,295.571,41.684z"/>
	</g>
</g>
<g>
	<g>
		<path d="M270.703,50.201c-3.118-2.726-7.856-2.409-10.583,0.71c-0.976,1.116-2.478,1.757-4.12,1.757
			c-1.642,0-3.144-0.64-4.118-1.756c-2.727-3.12-7.465-3.439-10.583-0.714c-3.119,2.726-3.438,7.464-0.714,10.583
			c3.824,4.377,9.442,6.887,15.415,6.887c5.97,0,11.588-2.509,15.413-6.884C274.14,57.666,273.821,52.928,270.703,50.201z"/>
	</g>
</g>
<g>
	<g>
		<path d="M504.5,257.775c-5.745,0-11.212,1.208-16.168,3.374c-5.448-20.115-20.038-67.495-47.572-115.494
			c-21.029-36.659-45.262-65.928-72.025-86.995C334.875,32.008,296.945,18.493,256,18.493c-40.867,0-78.731,13.463-112.542,40.016
			c-26.741,21-50.962,50.187-71.989,86.747c-27.587,47.969-42.304,95.695-47.792,115.897c-4.958-2.168-10.428-3.378-16.177-3.378
			c-4.143,0-7.5,3.357-7.5,7.5v220.731c0,4.143,3.357,7.501,7.5,7.501h497c4.143,0,7.5-3.357,7.5-7.5V265.275
			C512,261.132,508.643,257.775,504.5,257.775z M479.107,300.665c-0.387-4.224,0.254-8.541,1.952-12.434
			c0.01-0.023,0.02-0.045,0.03-0.068c2.948-6.79,8.764-12.057,15.912-14.26v105.576H497h-88.078
			c-0.033-0.084-0.069-0.166-0.101-0.25c-2.727-7.126-2.033-15.499,1.889-22.088c4.107-6.902,11.501-11.616,19.497-12.385
			c1.603-0.154,3.207-0.157,4.811-0.009c4.6,0.425,8.585-3.557,8.162-8.154c-0.077-0.842-0.115-1.62-0.115-2.378
			c0-10.955,7.344-20.98,17.773-24.307c3.649-1.164,7.187-0.981,10.942-1.06C475.935,308.761,479.509,305.026,479.107,300.665z
			 M185.277,361.885h207.709c-0.01,0.047-0.016,0.095-0.026,0.143c-0.549,2.665-0.825,5.391-0.825,8.112
			c0,3.133,0.382,6.29,1.105,9.339H118.773c0.055-0.233,0.095-0.47,0.146-0.705c1.201-5.509,1.249-11.22,0.121-16.746
			c-0.01-0.048-0.016-0.096-0.026-0.143h36.329c4.143,0,7.5-3.357,7.5-7.5s-3.357-7.5-7.5-7.5H112.53
			c-4.369-6.231-10.358-11.025-17.21-13.964c-0.301-0.129-0.603-0.255-0.907-0.378c-2.761-1.115-5.675-1.977-8.616-2.397
			c-0.692-0.111-1.388-0.209-2.091-0.284c-0.061-0.566-0.133-1.129-0.217-1.69h267.208c4.143,0,7.5-3.357,7.5-7.5
			s-3.357-7.5-7.5-7.5H78.024c-0.328-0.537-0.669-1.065-1.02-1.585c3.708-38.394,29.84-94.263,67.239-143.414
			C183.635,116.402,226.457,84.242,256,84.242c29.543,0,72.365,32.16,111.757,83.931c37.399,49.151,63.532,105.02,67.239,143.414
			c-0.352,0.52-0.692,1.048-1.02,1.585h-53.314c-4.143,0-7.5,3.357-7.5,7.5s3.357,7.5,7.5,7.5h47.849
			c-0.084,0.561-0.156,1.124-0.217,1.69c-3.969,0.427-7.911,1.439-11.57,3.04c-6.87,2.937-12.876,7.739-17.254,13.983H185.277
			c-4.143,0-7.5,3.357-7.5,7.5S181.134,361.885,185.277,361.885z M84.472,152.734c20.064-34.888,43.027-62.62,68.251-82.429
			C183.826,45.879,218.574,33.493,256,33.493c37.441,0,72.203,12.396,103.317,36.844c25.229,19.823,48.194,47.574,68.26,82.483
			c29.333,51.03,43.856,102.756,47.633,117.479c-4.409,4.606-7.626,10.143-9.458,16.164c-0.556,1.828-0.999,3.758-1.293,5.666
			c-0.091,0.599-0.172,1.2-0.237,1.805c-0.19,0.02-0.377,0.052-0.566,0.075c-2.164,0.263-4.315,0.695-6.407,1.307
			c-3.092,0.896-6.06,2.146-8.842,3.746c-7.167-40.357-32.564-92.466-68.712-139.973c-19.626-25.794-40.671-47.62-60.859-63.118
			C295.732,78.235,274.592,69.242,256,69.242c-18.592,0-39.732,8.993-62.835,26.729c-20.188,15.498-41.233,37.324-60.859,63.118
			c-36.147,47.507-61.545,99.615-68.712,139.973c-2.781-1.601-5.75-2.85-8.842-3.746c-0.048-0.014-0.096-0.029-0.145-0.043
			c-1.639-0.47-3.3-0.774-4.972-1.093c-0.101-0.016-1.851-0.195-1.857-0.247c-0.065-0.605-0.146-1.206-0.237-1.805
			c-0.205-1.34-0.483-2.671-0.821-3.984c-1.72-6.681-5.17-12.876-9.942-17.858C40.521,255.519,54.79,204.345,84.472,152.734z
			 M15,273.9c7.148,2.203,12.964,7.47,15.912,14.26c0.01,0.023,0.02,0.045,0.03,0.068c1.679,3.898,2.339,8.211,1.952,12.434
			c-0.392,4.279,3.041,8.092,7.322,8.183c1.071,0.023,2.139-0.143,3.211-0.143c7.041,0,13.872,2.998,18.665,8.147
			c4.91,5.275,7.386,12.572,6.729,19.741c-0.392,4.272,3.043,8.11,7.333,8.185c1.066,0.019,2.132-0.146,3.2-0.146
			c7.092,0,14.092,3.11,18.884,8.377c6.164,6.699,8.161,16.52,5.322,25.14c-0.044,0.134-0.386,1.332-0.48,1.332H15V273.9z
			 M14.998,394.479H497v20.57c-0.014-0.005-0.029-0.009-0.044-0.013c-16.904-5.444-35.647-3.719-51.259,4.759
			c-14.742,8.006-33.188,8.081-48.063,0c-19.272-10.471-43.111-10.466-62.382,0c-14.848,8.064-33.217,8.065-48.063,0
			c-19.268-10.468-43.117-10.462-62.382,0c-14.851,8.065-33.212,8.069-48.062,0c-19.272-10.472-43.112-10.466-62.383,0
			c-14.85,8.069-33.214,8.065-48.062,0c-15.604-8.475-34.362-10.208-51.258-4.759c-0.014,0.005-0.029,0.009-0.044,0.013V394.479z
			 M497.003,478.507H15c0,0,0-47.415,0-47.417c0-0.82,7.191-2.525,8.297-2.792c12.049-2.91,24.947-1.242,35.846,4.68
			c9.544,5.184,20.329,7.924,31.191,7.924c10.839,0,21.666-2.751,31.191-7.924c14.85-8.065,33.213-8.068,48.063,0
			c19.153,10.406,43.095,10.48,62.382,0c14.849-8.068,33.214-8.067,48.063,0c19.266,10.467,43.116,10.466,62.382,0
			c14.849-8.067,33.215-8.067,48.063,0c19.27,10.469,43.111,10.466,62.382,0c13.539-7.354,30.028-8.03,44.143-1.888V478.507z"/>
	</g>
</g>
<g>
</g>
<g>
</g>
<g>
</g>
<g>
</g>
<g>
</g>
<g>
</g>
<g>
</g>
<g>
</g>
<g>
</g>
<g>
</g>
<g>
</g>
<g>
</g>
<g>
</g>
<g>
</g>
<g>
</g>
</svg>
