<?xml version="1.0" encoding="iso-8859-1"?>
<!-- Generator: Adobe Illustrator 19.0.0, SVG Export Plug-In . SVG Version: 6.00 Build 0)  -->
<svg version="1.1" id="Capa_1" xmlns="http://www.w3.org/2000/svg" xmlns:xlink="http://www.w3.org/1999/xlink" x="0px" y="0px"
	 viewBox="0 0 512 512" style="enable-background:new 0 0 512 512;" xml:space="preserve">
<g>
	<g>
		<path d="M180.914,455.863c-4.142,0-7.5,3.357-7.5,7.5v13.589c0,4.143,3.358,7.5,7.5,7.5c4.142,0,7.5-3.357,7.5-7.5v-13.589
			C188.414,459.221,185.056,455.863,180.914,455.863z"/>
	</g>
</g>
<g>
	<g>
		<path d="M331.086,455.863c-4.143,0-7.5,3.357-7.5,7.5v13.589c0,4.143,3.357,7.5,7.5,7.5s7.5-3.357,7.5-7.5v-13.589
			C338.586,459.221,335.229,455.863,331.086,455.863z"/>
	</g>
</g>
<g>
	<g>
		<path d="M279.469,470.36c-3.119-2.726-7.857-2.408-10.583,0.71c-3.131,3.582-7.828,5.636-12.886,5.636
			c-5.059,0-9.755-2.054-12.886-5.636c-2.727-3.119-7.464-3.436-10.583-0.71c-3.119,2.726-3.437,7.464-0.71,10.583
			c5.979,6.84,14.792,10.763,24.179,10.763c9.386,0,18.198-3.923,24.179-10.763C282.906,477.825,282.587,473.087,279.469,470.36z"/>
	</g>
</g>
<g>
	<g>
		<path d="M495.05,389.583l-21.563-26.86c-2.592-3.229-7.313-3.747-10.543-1.153l-11.03,8.854
			c-5.472,4.392-11.292,8.294-17.38,11.684l-19.472-17.974v-65.225c10.021-5.227,19.558-11.428,28.437-18.555l11.032-8.855
			c1.552-1.245,2.545-3.056,2.761-5.033c0.217-1.978-0.361-3.959-1.606-5.511l-21.563-26.86c-2.593-3.229-7.313-3.747-10.544-1.153
			l-11.029,8.854c-3.125,2.508-6.367,4.851-9.704,7.036l-19.316-17.829V168.74c8.965-4.894,17.495-10.568,25.525-17.014
			l11.031-8.855c1.551-1.245,2.544-3.056,2.76-5.033c0.217-1.978-0.361-3.959-1.606-5.511l-21.563-26.86
			c-2.592-3.229-7.313-3.747-10.543-1.153l-11.031,8.854c-6.924,5.557-14.404,10.334-22.283,14.275l-24.411-27.949V75.383
			c3.109-2.052,6.142-4.238,9.071-6.589l7.438-5.972c3.229-2.593,3.746-7.313,1.153-10.544c0,0-14.534-18.104-14.54-18.112
			c-2.559-3.187-7.355-3.712-10.544-1.153l-7.437,5.971c-10.906,8.753-24.214,14.627-38.086,16.93
			c-1.612-19.389-2.167-37.337-2.169-48.414c-0.002-4.143-3.359-7.5-7.501-7.5h-25.588c-4.142,0-7.5,3.357-7.5,7.499
			c0,0.249-0.031,22.066-2.195,48.41c-13.863-2.306-27.161-8.178-38.06-16.926l-7.439-5.971c-3.229-2.594-7.951-2.075-10.543,1.153
			l-14.54,18.113c-1.245,1.552-1.823,3.534-1.607,5.512c0.217,1.978,1.21,3.788,2.761,5.033l7.439,5.97
			c2.929,2.351,5.962,4.536,9.07,6.588v24.11l-24.411,27.949c-7.879-3.941-15.359-8.718-22.282-14.275l-11.032-8.855
			c-1.55-1.246-3.53-1.827-5.511-1.606c-1.978,0.216-3.788,1.209-5.033,2.76L90.76,132.326c-1.245,1.552-1.823,3.534-1.607,5.512
			c0.216,1.977,1.209,3.787,2.761,5.032l11.033,8.855c8.014,6.433,16.566,12.108,25.524,16.998v62.278l-19.316,17.829
			c-3.337-2.185-6.578-4.528-9.703-7.036c0,0-11.022-8.848-11.032-8.855c-3.19-2.561-7.987-2.032-10.543,1.154l-21.562,26.861
			c-2.593,3.23-2.076,7.951,1.154,10.544c12.596,10.111,25.086,19.908,39.469,27.41v65.223l-19.472,17.976
			c-6.087-3.392-11.904-7.291-17.379-11.685l-11.031-8.855c-1.551-1.245-3.528-1.827-5.511-1.606
			c-1.978,0.216-3.788,1.209-5.033,2.761L16.95,389.585c-2.593,3.229-2.076,7.95,1.154,10.543l11.033,8.855
			c9.346,7.501,19.421,13.975,30.021,19.368V504.5c0,4.143,3.358,7.5,7.5,7.5h378.684c4.143,0,7.5-3.357,7.5-7.5v-76.149
			c10.601-5.393,20.677-11.867,30.023-19.369l11.031-8.855c1.551-1.245,2.544-3.056,2.76-5.033
			C496.873,393.116,496.295,391.135,495.05,389.583z M341.278,133.595c-13.36,4.688-27.549,7.139-41.568,7.139h-1.29
			c-7.554-9.742-12.387-29.492-15.329-46.828c0.051-0.008,0.101-0.018,0.152-0.026c11.556-1.749,22.703-5.147,33.165-10.07v18.496
			c-0.001,1.815,0.657,3.568,1.85,4.934L341.278,133.595z M325.939,50.681l1.589-1.275l5.149,6.415
			c-14.496,11.645-31.295,19.72-49.699,22.907c-0.693,0.118-1.387,0.224-2.081,0.33c-0.341-2.658-0.666-5.382-0.972-8.161
			C296.792,68.321,312.571,61.41,325.939,50.681z M244.9,88.829c0.984-6.658,1.797-13.341,2.485-20.036
			C249.7,46.29,250.401,25.64,250.614,15h10.772c0.213,10.64,0.914,31.29,3.229,53.793c0.712,6.921,1.58,13.822,2.584,20.706
			c3.373,22.562,7.909,39.511,13.744,51.235h-49.887C236.947,128.898,241.515,111.734,244.9,88.829z M179.321,55.819l5.151-6.415
			l1.59,1.276c13.367,10.729,29.143,17.64,46.01,20.215c-0.122,1.107-0.956,8.044-0.971,8.161c-0.643-0.098-2.028-0.321-2.078-0.329
			c-13.029-2.256-25.669-6.979-36.999-13.869c-0.094-0.058-0.198-0.099-0.295-0.152c-3.742-2.3-7.357-4.834-10.818-7.612
			L179.321,55.819z M193.742,107.241c1.193-1.366,1.851-3.119,1.851-4.934V83.81c10.472,4.928,21.629,8.327,33.197,10.075
			c0.04,0.006,0.08,0.014,0.12,0.021c-0.072,0.426-0.146,0.853-0.221,1.281c-0.551,3.171-1.152,6.333-1.815,9.483
			c-4.412,20.89-9.51,31.094-13.316,36.065h-1.267c-14.021-0.001-28.209-2.451-41.569-7.139L193.742,107.241z M114.68,141.639
			c-2.553-1.865-5.06-3.793-7.525-5.772l12.172-15.164c18.747,15.047,39.133,26.465,62.789,31.713
			c11.48,2.547,23.11,3.318,34.846,3.318h78.077c18.862,0,37.188-2.553,54.881-9.335c15.846-6.075,29.592-15.133,42.754-25.696
			l12.172,15.164c-10.046,8.065-20.404,15.981-32.076,21.595c-0.052,0.025-0.107,0.042-0.159,0.069
			c-8.716,4.463-17.943,8.157-27.428,10.981c-3.97,1.183-6.229,5.359-5.048,9.329c1.166,3.915,5.419,6.222,9.334,5.058
			c6.522-1.941,12.877-4.244,19.06-6.884v50.77H296.22v-19.354c0-4.143-3.357-7.5-7.5-7.5h-65.438c-4.142,0-7.5,3.357-7.5,7.5
			v19.354h-72.309V176.01c17.5,7.494,36.192,12.129,55.26,13.628c4.508,0.354,9.035,0.542,13.557,0.542h87.419
			c7.076,0,14.27-0.448,21.384-1.332c4.045-0.503,7.022-4.329,6.519-8.371c-0.511-4.11-4.253-7.031-8.368-6.517
			c-6.509,0.81-13.081,1.22-19.534,1.22h-87.42C177.019,175.18,142.98,162.32,114.68,141.639z M281.219,214.931v11.854h-50.438
			v-11.854H281.219z M138.905,241.785h234.19l16.061,14.824c-0.052,0.026-0.105,0.051-0.157,0.077
			c-13.942,6.78-29.136,11.005-44.596,12.251c-3.407,0.281-6.83,0.426-10.248,0.426h-156.31c-18.998,0-37.822-4.453-54.913-12.711
			c-0.029-0.014-0.059-0.029-0.088-0.043L138.905,241.785z M77.895,268.659l-5.186-4.163l12.173-15.164
			c26.825,21.531,58.118,35.031,92.964,35.031h156.31c24.775,0,49.55-6.774,70.93-19.282c0.116-0.068,0.232-0.136,0.349-0.204
			c0.009-0.005,0.019-0.01,0.036-0.021c7.553-4.759,14.691-9.937,21.649-15.522l12.173,15.163c-11,8.83-22.301,16.849-35.019,23.055
			c-20.548,10.025-43.141,15.591-65.995,16.198c-1.374,0.037-163.18,0.037-164.554,0c-0.336-0.009-0.671-0.021-1.006-0.032
			C138.43,302.595,104.656,290.139,77.895,268.659z M303.482,329.213H208.52c-4.142,0-7.5,3.357-7.5,7.5v23.203h-89.08v-54.063
			c15.644,6.368,32.188,10.475,49.068,12.124c0.016,0.002,0.032,0.003,0.048,0.005c5.57,0.6,11.189,0.827,16.79,0.827h156.31
			c22.532,0,45.044-4.464,65.906-12.957v54.064h-89.08v-23.203C310.982,332.57,307.625,329.213,303.482,329.213z M295.981,344.213
			v15.703h-79.962v-15.703H295.981z M101.201,497H74.158v-61.874c0.492,0.194,0.987,0.378,1.481,0.569
			c8.313,3.203,16.86,5.777,25.562,7.686V497z M395.798,497H116.201v-51.003c1.778,0.23,16.645,1.441,22.277,1.441h235.043
			c7.443,0,14.896-0.485,22.277-1.441V497z M437.842,497h-27.043v-53.62c9.2-2.018,18.284-4.792,27.043-8.255V497z M442.125,416.919
			c-21.33,10.141-44.982,15.52-68.603,15.52c0,0-235.041,0-235.043,0c-18.333,0-36.649-3.239-53.905-9.417
			c-0.1-0.036-0.2-0.073-0.3-0.109c-18.872-6.804-35.365-17.291-50.931-29.787l12.173-15.165l5.183,4.16
			c8.331,6.687,17.369,12.348,26.915,16.943c13.6,6.545,28.553,11.222,43.589,12.847c4.111,0.501,7.859-2.402,8.373-6.512
			c0.508-4.058-2.454-7.871-6.511-8.379c-9.441-1.181-18.781-3.434-27.709-6.723c-1.019-0.374-2.035-0.759-3.045-1.159
			c-0.08-0.032-0.16-0.064-0.24-0.096l15.302-14.125h297.256l15.302,14.124c-11.013,4.383-22.65,7.217-34.449,8.368
			c-3.974,0.387-7.967,0.584-11.96,0.584H151.846c-4.142,0-7.5,3.357-7.5,7.5s3.358,7.5,7.5,7.5c0,0,221.667,0,221.676,0
			c34.864,0,66.124-13.49,92.963-35.031l12.173,15.164C467.214,402.314,455.426,410.595,442.125,416.919z"/>
	</g>
</g>
<g>
</g>
<g>
</g>
<g>
</g>
<g>
</g>
<g>
</g>
<g>
</g>
<g>
</g>
<g>
</g>
<g>
</g>
<g>
</g>
<g>
</g>
<g>
</g>
<g>
</g>
<g>
</g>
<g>
</g>
</svg>
