<?xml version="1.0" encoding="iso-8859-1"?>
<!-- Generator: Adobe Illustrator 19.0.0, SVG Export Plug-In . SVG Version: 6.00 Build 0)  -->
<svg version="1.1" id="Capa_1" xmlns="http://www.w3.org/2000/svg" xmlns:xlink="http://www.w3.org/1999/xlink" x="0px" y="0px"
	 viewBox="0 0 512 512" style="enable-background:new 0 0 512 512;" xml:space="preserve">
<g>
	<g>
		<path d="M197.039,329.296c-4.142,0-7.5,3.357-7.5,7.5v10.671c0,4.143,3.358,7.5,7.5,7.5c4.142,0,7.5-3.357,7.5-7.5v-10.671
			C204.539,332.653,201.181,329.296,197.039,329.296z"/>
	</g>
</g>
<g>
	<g>
		<path d="M314.961,329.296c-4.142,0-7.5,3.357-7.5,7.5v10.671c0,4.143,3.358,7.5,7.5,7.5c4.142,0,7.5-3.357,7.5-7.5v-10.671
			C322.461,332.653,319.104,329.296,314.961,329.296z"/>
	</g>
</g>
<g>
	<g>
		<path d="M275.488,341.078c-3.118-2.726-7.857-2.408-10.583,0.711c-2.152,2.462-5.398,3.874-8.905,3.874
			c-3.507,0-6.753-1.412-8.905-3.874c-2.726-3.12-7.464-3.437-10.583-0.711c-3.119,2.726-3.437,7.464-0.711,10.582
			c5.001,5.722,12.363,9.003,20.199,9.003s15.198-3.281,20.199-9.003C278.925,348.542,278.607,343.804,275.488,341.078z"/>
	</g>
</g>
<g>
	<g>
		<path d="M507.968,299.735l-66.466-34.664c-9.382-4.891-19.934-7.476-30.515-7.476s-21.133,2.585-30.517,7.476l-29.854,15.57
			c-6.796-6.81-14.315-12.899-22.435-18.119V251.4c0-11.146-9.067-20.213-20.213-20.213h-5.618l-0.911-6.712
			c1.221,0.33,2.484,0.504,3.76,0.504c5.072,0,9.683-2.581,12.332-6.902l7.949-12.969c4.165-6.796,2.025-15.713-4.771-19.879
			l-26.826-16.443l-4.446-32.774h5.197c7.186,0,13.032-5.847,13.032-13.032v-8.35c0-7.186-5.846-13.032-13.032-13.032h-9.866
			l-2.574-18.975h2.733c7.186,0,13.032-5.847,13.032-13.032v-8.35c0-7.186-5.846-13.032-13.032-13.032h-7.402l-3.082-22.717
			c-1.245-9.183-9.174-16.11-18.443-16.11c-9.269,0-17.198,6.927-18.444,16.11l-3.082,22.718h-7.402
			c-7.186,0-13.032,5.847-13.032,13.032v8.35c0,7.186,5.846,13.032,13.032,13.032h2.733l-2.574,18.975h-9.866
			c-7.186,0-13.032,5.847-13.032,13.032v8.35c0,7.186,5.846,13.032,13.032,13.032h5.197l-4.446,32.774l-18.366,11.258
			l-36.502-19.038c-11.569-6.029-24.583-9.217-37.631-9.217c-13.048,0-26.062,3.188-37.633,9.218L4.032,204.79
			C1.554,206.083,0,208.646,0,211.44v44.446V494.91c0,4.134,3.345,7.488,7.479,7.5l497.021,0.208c4.142,0,7.5-3.357,7.5-7.5V306.385
			C512,303.59,510.446,301.028,507.968,299.735z M387.405,278.371c7.25-3.778,15.405-5.776,23.583-5.776
			c8.178,0,16.332,1.998,23.581,5.776L497,310.932v19.112c-0.195-0.054-1.785-0.438-2.389-0.56
			c-7.861-1.577-16.117-0.43-23.219,3.319c-5.699,3.01-12.856,3.01-18.556,0c-10.098-5.333-22.473-5.33-32.571,0
			c-5.699,3.01-12.856,3.01-18.556,0c-4.219-2.226-8.933-3.544-13.687-3.895c-2.14-0.158-4.354-0.151-6.489,0.089
			c-0.09-0.243-0.193-0.482-0.284-0.725c-4.335-11.556-10.265-22.511-17.589-32.445c-0.902-1.224-1.823-2.435-2.765-3.629
			L387.405,278.371z M321.462,415.037h65.512v33.438h-15.766c-3.339-13.797-15.785-24.077-30.593-24.077
			c-14.787,0-27.218,10.251-30.579,24.077h-23.443c-3.339-13.797-15.785-24.077-30.593-24.077
			c-14.787,0-27.218,10.251-30.579,24.077h-23.443c-3.339-13.797-15.785-24.077-30.593-24.077
			c-14.787,0-27.218,10.251-30.579,24.077h-15.779v-33.438h167.316c4.142,0,7.5-3.357,7.5-7.5s-3.358-7.5-7.5-7.5H115.12
			l17.76-17.476h246.24l17.76,17.476h-75.418c-4.142,0-7.5,3.357-7.5,7.5S317.32,415.037,321.462,415.037z M355.337,448.476h-29.444
			c2.716-5.38,8.295-9.077,14.722-9.077C347.042,439.399,352.621,443.096,355.337,448.476z M270.722,448.476h-29.444
			c2.716-5.38,8.295-9.077,14.722-9.077S268.006,443.096,270.722,448.476z M186.107,448.476h-29.444
			c2.716-5.38,8.295-9.077,14.722-9.077S183.391,443.096,186.107,448.476z M307.968,246.187c2.875,0.001,5.213,2.339,5.213,5.213
			v7.793H198.819V251.4c0-2.874,2.339-5.213,5.213-5.213H307.968z M224.788,231.187l2.181-16.076L256,197.314l29.031,17.797
			l2.181,16.076H224.788z M252.42,27.509c0.242-1.782,1.781-3.127,3.58-3.127s3.338,1.345,3.58,3.128l2.809,20.7h-12.776
			L252.42,27.509z M229.04,67.624V63.21h53.92v4.414H229.04z M269.631,101.599h-27.263l2.575-18.975h22.114L269.631,101.599z
			 M219.333,121.013v-4.414h73.334v4.414H219.333z M277.374,158.666c0,0-4.263-2.613-4.264-2.613c-10.39-6.368-23.833-6.367-34.22,0
			l-4.264,2.613l3.074-22.653h36.6L277.374,158.666z M246.73,168.841c5.636-3.455,12.907-3.455,18.542,0l47.136,28.893l-7.381,12.04
			c0,0-45.103-27.649-45.107-27.651c-2.36-1.447-5.48-1.448-7.84,0l-45.107,27.651l-7.38-12.04
			C199.593,197.734,246.717,168.849,246.73,168.841z M94.917,174.308c9.438-4.919,20.053-7.52,30.699-7.52
			s21.261,2.601,30.697,7.518c0,0,30.18,15.741,30.181,15.741c-0.225,0.446-0.487,0.87-0.701,1.323
			c-2.048,4.338-1.783,9.643,0.727,13.738c0,0,7.946,12.962,7.949,12.967c3.307,5.395,9.982,8.053,16.092,6.404l-0.91,6.707
			c0,0-5.615,0-5.618,0c-10.001,0-18.858,7.834-20.065,17.76c-2.231-0.52-4.399-1.321-6.425-2.391
			c-12.09-6.384-27.196-6.383-39.286,0c-7.844,4.141-17.438,4.141-25.28,0c-12.091-6.384-27.207-6.383-39.298,0
			c-7.738,4.085-17.408,4.156-25.28,0c-6.138-3.239-13.058-4.92-19.998-4.86c-4.323,0.037-8.626,0.75-12.734,2.094
			c-0.221,0.072-0.445,0.138-0.665,0.214v-28.016H15L94.917,174.308z M15,487.431V260.41c8.286-4.372,17.948-5.047,26.395-0.588
			c12.098,6.387,27.188,6.387,39.286,0c7.842-4.14,17.451-4.14,25.292,0c12.107,6.392,27.182,6.392,39.286,0
			c7.769-4.103,17.421-4.149,25.28,0c3.543,1.87,7.347,3.221,11.273,4.015c-8.527,5.699-16.409,12.399-23.418,19.887
			c-2.831,3.023-2.675,7.77,0.349,10.601c3.023,2.831,7.77,2.676,10.601-0.349c7.123-7.608,15.263-14.281,24.116-19.781h125.117
			c9.241,5.747,17.645,12.745,24.969,20.74c0.007,0.007,0.012,0.015,0.018,0.022c17.672,19.161,28.523,44.201,30.7,70.148
			c0.049,0.583,0.161,2.221,0.175,2.456h-236.89c0.003-0.04,0.003-0.08,0.006-0.12c0.68-10.626,2.807-21.145,6.284-31.206
			c2.381-6.891,5.447-13.691,9.101-20.069c2.059-3.595,0.814-8.177-2.78-10.236c-3.594-2.06-8.177-0.814-10.236,2.779
			c-4.911,8.573-8.862,17.746-11.752,27.194c-2.651,8.664-4.448,17.774-5.287,26.855c-0.274,2.969-0.418,6.1-0.541,9.138
			c-3.486,3.128-29.392,28.907-30.801,30.294c-4.689,4.614-1.313,12.846,5.26,12.846h13.222v38.096l-30.506,34.473L15,487.431z
			 M99.544,487.616l21.361-24.14h270.189l21.362,24.14H99.544z M497.001,487.618H497h-64.51l-30.516-34.484v-38.097
			c0,0,13.179,0,13.222,0c6.544,0,9.921-8.261,5.26-12.846l-30.801-30.309c-0.078-3.325-0.256-6.669-0.611-9.977
			c-0.001-0.013-0.002-0.025-0.003-0.038c-0.597-6.085-1.602-12.111-3.022-18.04c2.33,0.07,4.646,0.517,6.813,1.379
			c0.639,0.254,1.267,0.541,1.875,0.862c10.1,5.332,22.462,5.331,32.562,0c5.699-3.01,12.866-3.01,18.565,0
			c10.1,5.334,22.464,5.33,32.562,0c5.699-3.01,12.855-3.01,18.557,0l0.048,0.025V487.618z"/>
	</g>
</g>
<g>
</g>
<g>
</g>
<g>
</g>
<g>
</g>
<g>
</g>
<g>
</g>
<g>
</g>
<g>
</g>
<g>
</g>
<g>
</g>
<g>
</g>
<g>
</g>
<g>
</g>
<g>
</g>
<g>
</g>
</svg>
