<?xml version="1.0" encoding="iso-8859-1"?>
<!-- Generator: Adobe Illustrator 19.0.0, SVG Export Plug-In . SVG Version: 6.00 Build 0)  -->
<svg version="1.1" id="Capa_1" xmlns="http://www.w3.org/2000/svg" xmlns:xlink="http://www.w3.org/1999/xlink" x="0px" y="0px"
	 viewBox="0 0 512.001 512.001" style="enable-background:new 0 0 512.001 512.001;" xml:space="preserve">
<g>
	<g>
		<path d="M202.008,440.993c-4.143,0-7.5,3.357-7.5,7.5v10.825c0,4.143,3.357,7.5,7.5,7.5s7.5-3.357,7.5-7.5v-10.825
			C209.508,444.351,206.15,440.993,202.008,440.993z"/>
	</g>
</g>
<g>
	<g>
		<path d="M321.628,440.993c-4.143,0-7.5,3.357-7.5,7.5v10.825c0,4.143,3.357,7.5,7.5,7.5s7.5-3.357,7.5-7.5v-10.825
			C329.128,444.351,325.771,440.993,321.628,440.993z"/>
	</g>
</g>
<g>
	<g>
		<path d="M281.514,452.917c-3.117-2.726-7.856-2.406-10.582,0.713c-2.203,2.521-5.524,3.966-9.114,3.966
			c-3.589,0-6.911-1.446-9.115-3.968c-2.726-3.118-7.464-3.436-10.583-0.71c-3.118,2.727-3.437,7.465-0.71,10.583
			c5.054,5.78,12.492,9.095,20.408,9.095c7.919,0,15.358-3.315,20.409-9.097C284.952,460.38,284.633,455.643,281.514,452.917z"/>
	</g>
</g>
<g>
	<g>
		<path d="M174.568,111.994c-0.593-23.764-20.107-42.913-44.011-42.913c-16.381,0-31.234,9.194-38.788,23.218
			c-4.427-1.891-9.224-2.892-14.079-2.892c-14.068,0-26.561,8.148-32.386,20.481c-0.276-0.009-0.554-0.013-0.83-0.013
			c-14.45,0-26.207,11.757-26.207,26.207c0,14.451,11.757,26.208,26.207,26.208H164.26c14.451,0.001,26.208-11.756,26.208-26.207
			C190.467,125.434,183.978,116.04,174.568,111.994z M164.259,147.291H44.474c-6.18,0-11.207-5.028-11.207-11.208
			s5.027-11.207,11.207-11.207c1.175,0,2.334,0.183,3.446,0.542c1.972,0.637,4.122,0.43,5.938-0.574
			c1.814-1.005,3.133-2.716,3.641-4.728c2.334-9.249,10.637-15.709,20.19-15.709c4.791,0,9.297,1.586,13.03,4.586
			c1.961,1.576,4.582,2.064,6.979,1.299c2.397-0.765,4.251-2.682,4.936-5.104c3.516-12.428,14.997-21.107,27.922-21.107
			c16.004,0,29.024,13.021,29.024,29.024c0,1.137-0.073,2.296-0.225,3.545c-0.493,4.07,2.373,7.782,6.436,8.334
			c5.517,0.749,9.676,5.521,9.676,11.099C175.467,142.263,170.439,147.291,164.259,147.291z"/>
	</g>
</g>
<g>
	<g>
		<path d="M448.97,173.868c-10.128-25.949-35.518-43.592-63.755-43.592c-29.507,0-55.359,18.923-64.708,46.166
			c-3.575-1.279-7.309-2.091-11.116-2.416l-5.493-57.62h4.02c8.462,0,15.347-6.885,15.347-15.347V84.911
			c0-8.463-6.885-15.348-15.347-15.348h-3.589l4.362-8.682c2.455-4.885,2.208-10.578-0.661-15.231
			c-2.869-4.653-7.847-7.432-13.313-7.432h-0.361C292.111,16.331,278.66,0,261.89,0c-16.77,0-30.221,16.331-32.467,38.219h-0.506
			c-5.467,0-10.444,2.778-13.313,7.432s-3.116,10.347-0.661,15.23l4.363,8.683h-3.589c-8.463,0-15.348,6.885-15.348,15.348v16.148
			c0,8.462,6.885,15.347,15.348,15.347h4.02l-16.764,175.882c-0.394,4.124,2.631,7.785,6.754,8.178
			c4.127,0.399,7.785-2.631,8.178-6.754l13.438-140.985h60.952l21.089,221.281H210.252l4.793-50.296
			c0.394-4.124-2.631-7.785-6.754-8.178c-4.125-0.398-7.785,2.631-8.178,6.754l-4.929,51.72h-83
			c-10.079,0-18.279,8.199-18.279,18.278v16.821c0,9.02,6.574,16.516,15.178,17.996c7.227,6.268,35.715,31.846,48.882,56.514
			c9.344,17.507,27.652,28.383,47.78,28.383h112.146c20.128,0,38.438-10.876,47.781-28.383
			c13.166-24.668,41.654-50.246,48.882-56.514c8.604-1.48,15.177-8.976,15.177-17.996v-16.821c0-10.079-8.199-18.278-18.278-18.278
			h-83.002L317.82,262.458h131.619v-0.001c24.425,0,44.296-19.871,44.296-44.296C493.735,193.58,473.59,173.611,448.97,173.868z
			 M261.89,15c8.317,0,15.521,10.11,17.354,23.219h-34.707C246.368,25.11,253.572,15,261.89,15z M228.917,53.219
			c0,0,65.697,0,65.801,0c0.477,0,0.781,0.507,0.572,0.928l-7.747,15.417h-51.451c0-0.001-7.729-15.383-7.747-15.418
			C228.131,53.72,228.451,53.219,228.917,53.219z M232.772,137.727l2.033-21.32h54.026l2.033,21.32H232.772z M215.717,101.406
			c-0.192,0-0.348-0.155-0.348-0.346V84.911c0-0.191,0.156-0.348,0.348-0.348h92.202c0.191,0,0.347,0.156,0.347,0.348v16.148
			c0,0.191-0.155,0.347-0.347,0.347H215.717z M411.453,389.009c1.807-0.001,3.277,1.47,3.277,3.277v16.821
			c0,1.809-1.471,3.279-3.278,3.279h-43.465c-4.143,0-7.5,3.357-7.5,7.5s3.357,7.5,7.5,7.5h24.053
			c-12.373,11.955-29.616,30.46-39.601,49.168C345.708,489.166,332.47,497,317.891,497H205.743
			c-14.578,0-27.816-7.834-34.548-20.445c-9.984-18.708-27.229-37.213-39.601-49.168h206.486c4.143,0,7.5-3.357,7.5-7.5
			s-3.357-7.5-7.5-7.5H112.183c-1.809,0-3.279-1.471-3.279-3.279v-16.821c0-1.808,1.471-3.278,3.279-3.278H411.453z
			 M449.438,247.456H316.391l-5.539-58.121c3.723,0.677,7.289,2.071,10.509,4.13c2.094,1.339,4.715,1.556,7.003,0.571
			c2.284-0.981,3.934-3.033,4.402-5.476c4.816-25.08,26.875-43.284,52.449-43.284c23.669,0,44.774,15.875,51.324,38.604
			c1.046,3.629,4.625,5.917,8.357,5.335c1.499-0.232,3.027-0.351,4.542-0.351c16.154,0,29.296,13.142,29.296,29.296
			C478.733,234.313,465.592,247.456,449.438,247.456z"/>
	</g>
</g>
<g>
</g>
<g>
</g>
<g>
</g>
<g>
</g>
<g>
</g>
<g>
</g>
<g>
</g>
<g>
</g>
<g>
</g>
<g>
</g>
<g>
</g>
<g>
</g>
<g>
</g>
<g>
</g>
<g>
</g>
</svg>
