<?xml version="1.0" encoding="iso-8859-1"?>
<!-- Generator: Adobe Illustrator 19.0.0, SVG Export Plug-In . SVG Version: 6.00 Build 0)  -->
<svg version="1.1" id="Capa_1" xmlns="http://www.w3.org/2000/svg" xmlns:xlink="http://www.w3.org/1999/xlink" x="0px" y="0px"
	 viewBox="0 0 512 512" style="enable-background:new 0 0 512 512;" xml:space="preserve">
<g>
	<g>
		<path d="M256,239.519c-14.043,0-25.468,11.421-25.468,25.458v59.659c0,4.143,3.358,7.5,7.5,7.5h35.936c4.142,0,7.5-3.357,7.5-7.5
			v-59.659C281.468,250.94,270.043,239.519,256,239.519z M266.468,317.136h-20.936v-52.159c0-5.767,4.696-10.458,10.468-10.458
			c5.772,0,10.468,4.691,10.468,10.458V317.136z"/>
	</g>
</g>
<g>
	<g>
		<path d="M499.624,224.956c-1.735-5.275-6.631-8.819-12.184-8.819s-10.449,3.545-12.182,8.819
			c-0.453,1.377-0.889,2.759-1.317,4.143c-2.033-11.242-4.848-22.35-8.436-33.264c-1.734-5.275-6.631-8.819-12.184-8.819
			s-10.449,3.545-12.182,8.819c-6.365,19.358-10.287,39.33-11.734,59.577l-5.658-5.765V210.41c0-4.143-3.358-7.5-7.5-7.5
			c-4.142,0-7.5,3.357-7.5,7.5v23.953l-10.643-10.844v-38.751c0-4.143-3.358-7.5-7.5-7.5c-4.142,0-7.5,3.357-7.5,7.5v23.468
			l-6.062-6.177c-0.314-25.236-4.456-50.174-12.346-74.172c-0.87-2.647-2.537-4.857-4.683-6.404V82.811c0-4.143-3.358-7.5-7.5-7.5
			c-4.142,0-7.5,3.357-7.5,7.5v38.672c-2.146,1.546-3.813,3.757-4.683,6.403c-0.453,1.377-0.888,2.759-1.317,4.142
			c-2.033-11.242-4.848-22.35-8.436-33.263c-0.87-2.646-2.537-4.857-4.683-6.403V50.455c0-4.143-3.358-7.5-7.5-7.5
			c-4.142,0-7.5,3.357-7.5,7.5v41.908c-2.146,1.546-3.813,3.756-4.683,6.403c-2.636,8.019-4.85,16.144-6.648,24.349L263.5,86.369
			V40.884h12.193c4.142,0,7.5-3.357,7.5-7.5s-3.358-7.5-7.5-7.5H263.5V11.14c0-4.143-3.358-7.5-7.5-7.5c-4.142,0-7.5,3.357-7.5,7.5
			v14.744h-12.193c-4.142,0-7.5,3.357-7.5,7.5c0,4.143,3.358,7.5,7.5,7.5H248.5v45.485l-36.063,36.745
			c-1.798-8.205-4.012-16.33-6.648-24.348c-0.87-2.647-2.537-4.858-4.683-6.404V50.455c0-4.143-3.358-7.5-7.5-7.5
			c-4.142,0-7.5,3.357-7.5,7.5v41.907c-2.146,1.546-3.813,3.757-4.684,6.404c-3.588,10.914-6.403,22.021-8.436,33.264
			c-0.428-1.383-0.864-2.765-1.316-4.142c-0.87-2.647-2.537-4.858-4.683-6.404V82.811c0-4.143-3.358-7.5-7.5-7.5
			c-4.142,0-7.5,3.357-7.5,7.5v38.672c-2.146,1.546-3.813,3.757-4.684,6.404c-7.89,23.998-12.031,48.936-12.345,74.172l-6.062,6.177
			v-23.468c0-4.143-3.358-7.5-7.5-7.5c-4.142,0-7.5,3.357-7.5,7.5v38.751l-10.643,10.844V210.41c0-4.143-3.358-7.5-7.5-7.5
			c-4.142,0-7.5,3.357-7.5,7.5v39.237l-5.658,5.765c-1.447-20.247-5.369-40.219-11.734-59.577c-1.734-5.274-6.63-8.818-12.183-8.818
			c-5.553,0-10.449,3.544-12.184,8.818c-3.588,10.914-6.403,22.021-8.436,33.264c-0.428-1.383-0.864-2.765-1.316-4.142
			c-1.734-5.275-6.63-8.82-12.183-8.82c-5.553,0-10.449,3.544-12.184,8.819C4.164,249.935,0,275.931,0,302.223V500.86
			c0,4.142,3.358,7.5,7.5,7.5h497c4.142,0,7.5-3.357,7.5-7.5V302.223C512,275.929,507.836,249.933,499.624,224.956z M34.119,493.36
			H15V302.223c0-22.386,3.214-44.544,9.56-65.968c6.346,21.423,9.559,43.581,9.559,65.968V493.36z M68.238,273.118v220.243H49.119
			V302.223v-29.121c0-22.386,3.214-44.544,9.56-65.968c6.346,21.423,9.559,43.581,9.559,65.968V273.118z M134.927,493.36h-51.69
			v-90.056h51.69V493.36z M134.928,388.304h-51.69v-18.556h51.69V388.304z M134.928,354.749h-51.69v-78.576l51.69-52.668V354.749z
			 M203.166,493.36h-19.119V264.61c0-4.143-3.358-7.5-7.5-7.5c-4.142,0-7.5,3.357-7.5,7.5v228.75h-19.119c0,0,0-288.205,0-288.207
			c0-22.386,3.214-44.544,9.56-65.968c6.346,21.423,9.559,43.581,9.559,65.968v29.575c0,4.143,3.358,7.5,7.5,7.5
			c4.142,0,7.5-3.357,7.5-7.5v-29.575v-29.121c0-22.386,3.214-44.544,9.56-65.968c2.892,9.764,5.126,19.681,6.711,29.727
			c1.891,11.979,2.848,24.114,2.848,36.241V493.36z M266.468,493.36h-20.936v-52.159c0-5.767,4.696-10.458,10.468-10.458
			c5.772,0,10.468,4.691,10.468,10.458V493.36z M293.835,493.36h-12.367v-52.159c0-14.037-11.425-25.458-25.468-25.458
			s-25.468,11.421-25.468,25.458v52.159h-12.367v-90.056h75.67V493.36z M293.835,388.305h-75.67v-18.556h75.67V388.305z
			 M293.835,354.749h-75.67V217.086h75.67V354.749z M293.835,202.086h-75.67v-18.555h75.67V202.086z M295.252,149.663
			c-0.672,6.273-1.1,12.563-1.294,18.868h-75.916c-0.289-6.306-0.621-12.589-1.294-18.869c-0.303-2.827-0.647-5.648-1.047-8.461
			L256,100.141l40.299,41.061C295.899,144.015,295.554,146.836,295.252,149.663z M327.954,493.361h-19.119V176.032
			c0-11.957,0.989-24.299,2.85-36.264c1.583-10.021,3.817-19.939,6.709-29.703c6.346,21.424,9.56,43.581,9.56,65.967V493.361z
			 M362.073,205.155V493.36h-19.119V205.153c0-22.387,3.213-44.544,9.559-65.968c6.346,21.424,9.56,43.582,9.56,65.968V205.155z
			 M428.762,493.36h-51.69v-90.056h51.69V493.36z M428.763,388.304h-51.69v-18.556h51.69V388.304z M428.763,354.749h-51.69V223.504
			l51.69,52.668V354.749z M497.001,493.36h-19.119v-39.435c0-4.143-3.358-7.5-7.5-7.5c-4.142,0-7.5,3.357-7.5,7.5v39.435h-19.119
			V273.118v-0.016c0-22.387,3.213-44.544,9.559-65.967c6.346,21.423,9.56,43.581,9.56,65.967v150.969c0,4.143,3.358,7.5,7.5,7.5
			c4.142,0,7.5-3.357,7.5-7.5V302.223c0-22.387,3.213-44.544,9.56-65.968c6.346,21.423,9.559,43.581,9.559,65.968V493.36z"/>
	</g>
</g>
<g>
</g>
<g>
</g>
<g>
</g>
<g>
</g>
<g>
</g>
<g>
</g>
<g>
</g>
<g>
</g>
<g>
</g>
<g>
</g>
<g>
</g>
<g>
</g>
<g>
</g>
<g>
</g>
<g>
</g>
</svg>
