<?xml version="1.0" encoding="iso-8859-1"?>
<!-- Generator: Adobe Illustrator 19.0.0, SVG Export Plug-In . SVG Version: 6.00 Build 0)  -->
<svg version="1.1" id="Capa_1" xmlns="http://www.w3.org/2000/svg" xmlns:xlink="http://www.w3.org/1999/xlink" x="0px" y="0px"
	 viewBox="0 0 512 512" style="enable-background:new 0 0 512 512;" xml:space="preserve">
<g>
	<g>
		<path d="M191.56,131.62c-4.142,0-7.5,3.357-7.5,7.5v11.663c0,4.143,3.358,7.5,7.5,7.5c4.142,0,7.5-3.357,7.5-7.5V139.12
			C199.06,134.977,195.701,131.62,191.56,131.62z"/>
	</g>
</g>
<g>
	<g>
		<path d="M320.442,131.62c-4.142,0-7.5,3.357-7.5,7.5v11.663c0,4.143,3.358,7.5,7.5,7.5c4.142,0,7.5-3.357,7.5-7.5V139.12
			C327.942,134.977,324.583,131.62,320.442,131.62z"/>
	</g>
</g>
<g>
	<g>
		<path d="M276.841,144.325c-3.119-2.726-7.856-2.407-10.583,0.711c-2.485,2.843-6.224,4.473-10.258,4.473s-7.773-1.63-10.258-4.473
			c-2.727-3.12-7.464-3.437-10.583-0.711c-3.119,2.726-3.437,7.464-0.711,10.582c5.334,6.103,13.189,9.602,21.552,9.602
			c8.363,0,16.218-3.499,21.552-9.602C280.279,151.789,279.961,147.051,276.841,144.325z"/>
	</g>
</g>
<g>
	<g>
		<path d="M491.063,262.849h-39.59v-43.413h17.205c8.924,0,16.184-7.26,16.184-16.184v-17.684c0-8.924-7.26-16.184-16.184-16.184
			h-37.521V107.84c5.58-2.772,9.433-8.517,9.433-15.159V82.523c0-6.642-3.853-12.386-9.433-15.158v-2.889
			c0-14.232-7.441-26.752-18.63-33.899c0.864-2.433,1.339-5.01,1.339-7.661C413.867,10.28,403.586,0,390.951,0
			s-22.916,10.28-22.916,22.916c0,2.65,0.475,5.228,1.34,7.661c-11.189,7.146-18.63,19.666-18.63,33.899v2.89
			c-3.981,1.978-7.073,5.468-8.521,9.723h-28.391c-4.142,0-7.5,3.357-7.5,7.5s3.358,7.5,7.5,7.5l56.462,0.001
			c0.653,0,1.184,0.531,1.184,1.184v17.683c0,0.652-0.531,1.184-1.184,1.184H141.706c-0.653,0-1.184-0.531-1.184-1.184V93.272
			c0-0.653,0.531-1.185,1.184-1.185h142.627c4.142,0,7.5-3.357,7.5-7.5c0-4.143-3.358-7.5-7.5-7.5H169.776
			c-1.448-4.255-4.54-7.745-8.521-9.723v-2.89c0-14.233-7.44-26.753-18.63-33.9c0.864-2.433,1.339-5.01,1.339-7.66
			C143.966,10.28,133.685,0,121.05,0S98.135,10.28,98.135,22.916c0,2.65,0.475,5.227,1.339,7.66
			c-11.189,7.147-18.629,19.667-18.629,33.9v2.889c-5.58,2.772-9.433,8.517-9.433,15.158V92.68c0,6.642,3.853,12.386,9.433,15.158
			v61.546H43.323c-8.924,0-16.184,7.26-16.184,16.184v17.684c0,8.924,7.26,16.184,16.184,16.184h17.205v43.413h-39.59
			c-5.407,0-9.807,4.399-9.807,9.807c0,22.505,16.445,41.23,37.947,44.817V343c0,4.143,3.358,7.5,7.5,7.5c4.142,0,7.5-3.357,7.5-7.5
			v-24.898h91.608V497h-15.105v-72.623c0-18.966-6.293-37.741-17.716-52.862c-3.1-4.109-7.832-6.466-12.983-6.466
			s-9.883,2.356-12.979,6.462c-11.426,15.125-17.719,33.9-17.719,52.866V497H64.078V373c0-4.143-3.358-7.5-7.5-7.5
			c-4.142,0-7.5,3.357-7.5,7.5v131.5c0,4.143,3.358,7.5,7.5,7.5h398.844c4.142,0,7.5-3.357,7.5-7.5V317.472
			c21.502-3.586,37.947-22.312,37.947-44.816C500.87,267.249,496.471,262.849,491.063,262.849z M125.581,497H94.183v-72.623
			c0-15.723,5.216-31.287,14.691-43.829c0.311-0.413,0.719-0.499,1.007-0.499c0.288,0,0.696,0.086,1.011,0.503
			c9.472,12.538,14.688,28.103,14.688,43.825V497z M423.656,80.59c1.066,0.001,1.933,0.868,1.933,1.933V92.68
			c0,1.066-0.867,1.934-1.933,1.934h-37.178c0-2.725-0.267-5.288-1.376-7.81c-1.043-2.37-2.644-4.492-4.659-6.121
			c-0.036-0.029-0.068-0.064-0.105-0.093H423.656z M377.794,125.295c0.047-0.025,0.092-0.054,0.139-0.079
			c0.075-0.04,0.147-0.084,0.221-0.126c5.693-3.173,8.324-9.174,8.324-15.476h29.678v59.771h-38.362L377.794,125.295
			L377.794,125.295z M390.951,15c4.365,0,7.916,3.551,7.916,7.916c0,0.712-0.095,1.411-0.278,2.082
			c-2.766-0.532-5.604-0.772-8.419-0.717c-0.575,0.011-6.894,0.581-6.857,0.717c-0.183-0.671-0.278-1.37-0.278-2.082
			C383.035,18.551,386.586,15,390.951,15z M365.746,65.592v-1.116h-0.001c0-10.996,7.081-20.364,16.921-23.799
			c5.323-1.858,11.237-1.85,16.561-0.003c9.844,3.433,16.93,12.803,16.93,23.803v1.115H365.746z M149.206,127.139h213.589v42.246
			h-0.001H149.206V127.139z M121.05,15c4.365,0,7.916,3.551,7.916,7.916c0,0.712-0.095,1.41-0.278,2.082
			c-2.51-0.484-5.082-0.729-7.638-0.729c-2.517,0.001-5.137,0.245-7.638,0.729c-0.183-0.672-0.278-1.37-0.278-2.082
			C113.135,18.551,116.685,15,121.05,15z M95.844,64.476c0-10.988,7.07-20.351,16.897-23.792c5.334-1.868,11.288-1.862,16.622,0.002
			c9.825,3.443,16.892,12.805,16.892,23.791v1.115H95.844V64.476z M134.206,125.294v44.091H95.844v-59.772h29.678
			c0,2.534,0.232,5.06,1.197,7.426c1.416,3.472,4.058,6.404,7.359,8.182C134.122,125.244,134.162,125.271,134.206,125.294z
			 M86.412,82.523c0-1.065,0.867-1.933,1.933-1.933h43.317c-0.038,0.031-0.072,0.067-0.11,0.097
			c-1.738,1.404-3.195,3.197-4.221,5.182c-1.417,2.742-1.809,5.682-1.809,8.743H88.344c-1.066,0.001-1.933-0.866-1.933-1.931V82.523
			z M43.323,204.436c-0.653,0-1.184-0.532-1.184-1.184v-17.684c0-0.652,0.531-1.184,1.184-1.184h425.355
			c0.653,0,1.184,0.531,1.184,1.184v17.684c0,0.652-0.531,1.184-1.184,1.184H43.323z M436.474,219.436v43.413h-80.158v-43.413
			H436.474z M341.315,219.436v43.413H327.94v-43.413H341.315z M312.942,219.436v43.413h-9.596v-43.413H312.942z M288.346,219.436
			v43.413h-12.547v-43.413H288.346z M260.799,219.436v43.413h-9.596v-43.413H260.799z M236.203,219.436v43.413h-12.547v-43.413
			H236.203z M208.656,219.436v43.413h-9.596v-43.413H208.656z M184.06,219.436v43.413h-13.374v-43.413H184.06z M155.685,219.436
			v43.413H75.527v-43.413H155.685z M56.576,303.102c-15.018,0-27.531-10.93-30.002-25.253h93.57
			c0.4,6.037,2.098,11.976,4.942,17.315c1.508,2.831,3.332,5.509,5.428,7.938C130.516,303.102,56.578,303.102,56.576,303.102z
			 M271.128,497h-30.256v-62.893c0-9.367,2.134-18.783,6.172-27.231c2.347-4.913,5.399-9.59,8.983-13.793
			c9.787,11.377,15.101,25.694,15.101,41.024V497z M300.644,497h-14.516v-62.893c0-21.728-9.123-42.625-25.03-57.335
			c-2.879-2.662-7.323-2.657-10.196,0.012c-7.18,6.67-13.194,14.839-17.391,23.624c-4.997,10.455-7.638,22.107-7.638,33.699V497
			h-14.515v-62.893c0-13.742,3.131-27.559,9.056-39.957c5.923-12.396,14.705-23.513,25.39-32.145
			c2.877-2.32,6.499-3.599,10.197-3.599s7.319,1.278,10.194,3.596c21.893,17.678,34.449,43.959,34.449,72.104V497z M341.315,497
			h-25.671v-62.893c0-32.701-14.589-63.235-40.029-83.777c-5.536-4.465-12.501-6.923-19.614-6.923
			c-7.113,0-14.078,2.458-19.618,6.927c-12.419,10.032-22.621,22.948-29.503,37.35c-6.883,14.404-10.522,30.458-10.522,46.424V497
			h-25.671l0.001-178.898h170.627V497z M163.188,303.101c-11.049,0-21.329-6.748-25.77-16.855c-1.17-2.663-1.925-5.503-2.222-8.396
			h241.609c-0.047,0.455-0.105,0.906-0.173,1.355c-1.54,10.147-9.03,19.079-18.743,22.388c-2.918,0.994-5.993,1.508-9.076,1.508
			C348.813,303.101,163.19,303.101,163.188,303.101z M417.816,497h-31.397v-72.623c0-15.723,5.216-31.287,14.691-43.829
			c0.311-0.413,0.719-0.499,1.007-0.499c0.288,0,0.696,0.086,1.011,0.503c9.472,12.538,14.688,28.103,14.688,43.825V497z
			 M447.923,497L447.923,497h-15.106v-72.623c0-18.966-6.293-37.741-17.716-52.862c-3.1-4.109-7.832-6.466-12.983-6.466
			s-9.883,2.356-12.979,6.462c-11.426,15.125-17.719,33.9-17.719,52.866V497h-15.105V318.102h91.608V497z M455.422,303.102h-73.938
			c4.85-5.62,8.458-12.6,9.674-19.957c0.077-0.465,0.671-5.296,0.697-5.296h93.57C482.956,292.172,470.442,303.102,455.422,303.102z
			"/>
	</g>
</g>
<g>
</g>
<g>
</g>
<g>
</g>
<g>
</g>
<g>
</g>
<g>
</g>
<g>
</g>
<g>
</g>
<g>
</g>
<g>
</g>
<g>
</g>
<g>
</g>
<g>
</g>
<g>
</g>
<g>
</g>
</svg>
