<?xml version="1.0" encoding="iso-8859-1"?>
<!-- Generator: Adobe Illustrator 19.0.0, SVG Export Plug-In . SVG Version: 6.00 Build 0)  -->
<svg version="1.1" id="Capa_1" xmlns="http://www.w3.org/2000/svg" xmlns:xlink="http://www.w3.org/1999/xlink" x="0px" y="0px"
	 viewBox="0 0 511.999 511.999" style="enable-background:new 0 0 511.999 511.999;" xml:space="preserve">
<g>
	<g>
		<path d="M160.999,412.372c-4.143,0-7.5,3.358-7.5,7.5v17.194c0,4.142,3.357,7.5,7.5,7.5s7.5-3.358,7.5-7.5v-17.194
			C168.499,415.73,165.142,412.372,160.999,412.372z"/>
	</g>
</g>
<g>
	<g>
		<path d="M350.999,412.372c-4.143,0-7.5,3.358-7.5,7.5v17.194c0,4.142,3.357,7.5,7.5,7.5s7.5-3.358,7.5-7.5v-17.194
			C358.499,415.73,355.142,412.372,350.999,412.372z"/>
	</g>
</g>
<g>
	<g>
		<path d="M284.383,430.223c-3.119-2.727-7.858-2.41-10.583,0.71c-4.339,4.963-10.827,7.81-17.801,7.81s-13.462-2.847-17.801-7.81
			c-2.725-3.118-7.464-3.436-10.582-0.711c-3.119,2.726-3.438,7.464-0.711,10.583c7.187,8.222,17.791,12.938,29.094,12.938
			s21.906-4.715,29.094-12.938C287.819,437.687,287.501,432.949,284.383,430.223z"/>
	</g>
</g>
<g>
	<g>
		<path d="M508.079,371.771c-9.542-5.183-20.324-7.923-31.183-7.923s-21.642,2.74-31.184,7.923
			c-6.82,3.704-14.465,5.764-22.214,6.046v-21.94h81c4.143,0,7.5-3.358,7.5-7.5v-35.016c0-4.142-3.357-7.5-7.5-7.5h-13v-43.494
			c3.827,0.98,7.692,1.836,11.595,2.541c0.443,0.08,0.89,0.119,1.333,0.119c1.744,0,3.449-0.609,4.809-1.745
			c1.706-1.425,2.691-3.533,2.691-5.755v-35.739c0-3.482-2.396-6.506-5.787-7.302c-17.938-4.208-34.778-12.768-48.7-24.753
			c-15.627-13.452-27.336-30.821-33.94-50.278v-38.886c0-10.219-8.313-18.533-18.533-18.533h-1.611v-51c0-4.142-3.357-7.5-7.5-7.5
			s-7.5,3.358-7.5,7.5v51h-1.322c-10.22,0-18.533,8.314-18.533,18.533v25.504c-5.125,24.593-18.448,47.18-37.592,63.66
			c-20.825,17.929-47.454,27.803-74.98,27.803c-18.457,0-36.867-4.519-53.241-13.067c-3.671-1.917-8.203-0.495-10.119,3.177
			c-1.917,3.672-0.494,8.203,3.178,10.12c18.508,9.663,39.318,14.77,60.183,14.77c31.116,0,61.221-11.164,84.767-31.435
			c11.128-9.58,20.52-20.985,27.806-33.59v34.146c-4.58,5.204-9.534,10.106-14.756,14.602
			c-27.176,23.394-61.914,36.277-97.816,36.277c-13.511,0-26.856-1.826-39.701-5.35c-21.278-5.838-41.167-16.338-58.115-30.928
			c-5.162-4.443-10.068-9.292-14.612-14.441v-34.083c7.12,12.25,16.229,23.37,26.973,32.751c3.122,2.725,7.857,2.405,10.583-0.716
			c2.725-3.12,2.403-7.858-0.716-10.583c-18.619-16.259-31.674-38.401-36.84-62.411v-26.207c0-10.219-8.313-18.533-18.533-18.533
			h-1.47v-51c0-4.142-3.357-7.5-7.5-7.5s-7.5,3.358-7.5,7.5v51h-1.467c-10.22,0-18.533,8.314-18.533,18.533v38.463
			c-6.577,19.629-18.336,37.144-34.084,50.701c-13.886,11.953-30.68,20.501-48.565,24.721c-3.386,0.799-5.778,3.821-5.778,7.3
			c0,0,0,35.667,0,35.746c0,4.55,4.373,8.193,8.84,7.38c3.9-0.708,7.763-1.567,11.588-2.55v43.532h-13c-4.143,0-7.5,3.358-7.5,7.5
			v35.016c-0.001,4.142,3.356,7.5,7.499,7.5h81v21.935c-7.7-0.302-15.292-2.36-22.069-6.042c-9.542-5.183-20.324-7.923-31.183-7.923
			s-21.642,2.74-31.184,7.923c-2.416,1.312-3.92,3.841-3.92,6.59v102.604c0,4.142,3.357,7.5,7.5,7.5h496.856
			c4.143,0,7.5-3.358,7.5-7.5V378.361C511.999,375.611,510.495,373.083,508.079,371.771z M423.499,173.512
			c6.677,10.235,14.796,19.533,24.154,27.589c14.237,12.256,31.168,21.343,49.273,26.488v20.686
			c-3.366-0.82-6.693-1.769-9.985-2.816c-19.799-6.3-36.521-15.585-52.336-29.2c-3.841-3.307-7.567-6.867-11.106-10.61V173.512z
			 M476.499,257.768v48.093h-27v-60.698C458.1,250.161,467.132,254.393,476.499,257.768z M423.499,226.454
			c0.441,0.388,0.875,0.79,1.319,1.172c3.131,2.696,6.367,5.253,9.681,7.696v70.539h-11V226.454z M423.499,320.861h73.5v20.016
			h-73.5V320.861z M383.499,100.569c0-1.948,1.585-3.533,3.533-3.533h17.934c1.948,0,3.533,1.585,3.533,3.533V376.09
			c-3.763-1.024-7.404-2.457-10.832-4.32c-4.479-2.433-9.248-4.326-14.168-5.653V100.569z M347.499,239.788
			c5.561-3.71,10.919-7.763,16.029-12.162c1.684-1.45,3.34-2.941,4.971-4.465v82.7h-21V239.788z M305.499,259.905
			c9.308-2.931,18.344-6.683,27-11.216v57.172h-27V259.905z M263.499,267.36c9.123-0.419,18.151-1.601,27-3.497v41.998h-27V267.36z
			 M221.499,263.894c8.849,1.888,17.877,3.063,27,3.474v38.493h-27V263.894z M179.499,248.764c8.656,4.523,17.693,8.265,27,11.186
			v45.911h-27V248.764z M143.499,223.298c1.584,1.478,3.193,2.922,4.826,4.328c5.154,4.437,10.561,8.522,16.174,12.258v65.977h-21
			V223.298z M143.499,320.861h225v20.016h-225V320.861z M143.499,355.877h225v8.002c-0.671-0.021-1.343-0.032-2.016-0.032
			c-10.858,0-21.641,2.74-31.183,7.923c-7.351,3.993-15.658,6.103-24.023,6.103c-8.365,0-16.672-2.11-24.022-6.103
			c-9.542-5.183-20.325-7.923-31.184-7.923c-10.859,0-21.642,2.74-31.184,7.923c-7.351,3.993-15.657,6.103-24.022,6.103
			c-8.365,0-16.673-2.11-24.023-6.103c-9.542-5.183-20.324-7.923-31.183-7.923c-0.72,0-1.441,0.014-2.16,0.038V355.877z
			 M103.499,100.569c0-1.948,1.585-3.533,3.533-3.533h17.934c1.948,0,3.533,1.585,3.533,3.533v265.587
			c-1.188,0.323-2.368,0.68-3.536,1.07c-7.362,2.456-13.94,6.886-21.464,8.905V100.569z M15.071,248.238v-20.69
			c18.051-5.152,34.933-14.226,49.13-26.447c9.428-8.117,17.596-17.489,24.298-27.807v32.201
			c-3.588,3.805-7.362,7.417-11.251,10.763C59.337,231.677,37.995,242.631,15.071,248.238z M88.499,226.325v79.536h-11v-70.644
			C80.762,232.805,88.01,226.757,88.499,226.325z M62.499,245.079v60.783h-27v-48.148C44.867,254.329,53.899,250.088,62.499,245.079
			z M14.999,340.877v-20.016h73.5v20.016H14.999z M496.999,473.464H15.144v-90.426c6.324-2.751,13.193-4.191,20.104-4.191
			c8.365,0,16.672,2.111,24.022,6.104c9.542,5.183,20.325,7.922,31.184,7.922c9.862,0,19.746-2.281,28.609-6.607
			c8.589-4.192,16.866-7.419,26.597-7.419c8.365,0,16.672,2.111,24.022,6.104c9.542,5.183,20.325,7.922,31.184,7.922
			s21.641-2.739,31.183-7.922c7.351-3.993,15.658-6.104,24.023-6.104c8.365,0,16.673,2.111,24.023,6.104
			c9.542,5.183,20.324,7.922,31.183,7.922s21.642-2.739,31.184-7.922c7.351-3.993,15.657-6.104,24.022-6.104
			c13.344,0,23.352,7.179,35.718,11.039c0.197,0.061,0.395,0.121,0.593,0.18c6.113,1.846,12.49,2.806,18.895,2.806
			c10.858,0.002,21.641-2.738,31.183-7.921c7.351-3.993,15.657-6.104,24.023-6.104c6.909,0,13.778,1.44,20.103,4.191V473.464z"/>
	</g>
</g>
<g>
</g>
<g>
</g>
<g>
</g>
<g>
</g>
<g>
</g>
<g>
</g>
<g>
</g>
<g>
</g>
<g>
</g>
<g>
</g>
<g>
</g>
<g>
</g>
<g>
</g>
<g>
</g>
<g>
</g>
</svg>
