<?xml version="1.0" encoding="iso-8859-1"?>
<!-- Generator: Adobe Illustrator 19.0.0, SVG Export Plug-In . SVG Version: 6.00 Build 0)  -->
<svg version="1.1" id="Capa_1" xmlns="http://www.w3.org/2000/svg" xmlns:xlink="http://www.w3.org/1999/xlink" x="0px" y="0px"
	 viewBox="0 0 512 512" style="enable-background:new 0 0 512 512;" xml:space="preserve">
<g>
	<g>
		<path d="M211.36,197.894c-4.142,0-7.5,3.358-7.5,7.5v8.079c0,4.142,3.358,7.5,7.5,7.5c4.142,0,7.5-3.358,7.5-7.5v-8.079
			C218.86,201.252,215.502,197.894,211.36,197.894z"/>
	</g>
</g>
<g>
	<g>
		<path d="M300.64,197.894c-4.143,0-7.5,3.358-7.5,7.5v8.079c0,4.142,3.357,7.5,7.5,7.5s7.5-3.358,7.5-7.5v-8.079
			C308.14,201.252,304.783,197.894,300.64,197.894z"/>
	</g>
</g>
<g>
	<g>
		<path d="M271.954,207.264c-3.119-2.728-7.857-2.409-10.583,0.71c-1.284,1.469-3.241,2.311-5.371,2.311
			c-2.129,0-4.087-0.842-5.371-2.311c-2.726-3.119-7.464-3.437-10.583-0.711c-3.119,2.726-3.437,7.464-0.711,10.583
			c4.133,4.728,10.207,7.439,16.665,7.439s12.531-2.711,16.664-7.438C275.391,214.728,275.072,209.99,271.954,207.264z"/>
	</g>
</g>
<g>
	<g>
		<path d="M158.672,45.671c-7.215-16.442-23.724-27.487-42.015-27.487c-18.854,0-35.484,11.529-42.425,28.428
			c-2.499-0.648-5.084-0.98-7.7-0.98c-16.912,0-30.67,13.758-30.67,30.67c0,16.91,13.759,30.668,30.67,30.668h90.565
			c16.911,0,30.669-13.758,30.669-30.669C187.766,59.918,174.853,46.494,158.672,45.671z M157.097,91.971H66.532
			c-8.641,0-15.67-7.029-15.67-15.669c0-8.642,7.03-15.671,15.67-15.671c2.993,0,5.904,0.851,8.42,2.459
			c4.396,2.81,10.426,0.203,11.406-4.904c2.782-14.487,15.525-25.002,30.299-25.002c13.673,0,25.865,9.17,29.649,22.301
			c1.045,3.628,4.623,5.912,8.356,5.335c0.806-0.125,1.625-0.188,2.435-0.188c8.64,0,15.669,7.029,15.669,15.67
			C172.766,84.942,165.737,91.971,157.097,91.971z"/>
	</g>
</g>
<g>
	<g>
		<path d="M438.681,79.697c0.002-0.178,0.003-0.356,0.003-0.533c0.001-32.554-26.484-59.039-59.038-59.039
			c-22.962,0-43.685,13.47-53.331,33.726c-6.566-3.288-13.867-5.043-21.27-5.043c-19.35,0-36.45,11.634-43.755,29.026
			c-1.034-0.095-2.073-0.143-3.116-0.143c-18.691,0-33.897,15.207-33.897,33.898s15.207,33.898,33.897,33.898h169.031
			c18.691,0,33.897-15.207,33.897-33.898C461.102,97.126,451.846,84.452,438.681,79.697z M427.206,130.487H258.174
			c-10.42,0-18.897-8.478-18.897-18.898s8.477-18.897,18.896-18.898c5.601,0,13.358,3.666,15.392-4.387
			c3.64-14.423,16.585-24.496,31.48-24.496c7.47,0,14.496,2.473,20.317,7.151c4.121,3.312,10.483,1.262,11.915-3.804
			c5.335-18.859,22.757-32.03,42.368-32.03c24.283,0,44.039,19.756,44.039,44.04c0,1.736-0.111,3.494-0.339,5.371
			c-0.494,4.071,2.372,7.784,6.436,8.336c9.305,1.264,16.322,9.311,16.322,18.717C446.103,122.009,437.625,130.487,427.206,130.487z
			"/>
	</g>
</g>
<g>
	<g>
		<path d="M490.845,336.281l-0.142-0.116c-8.829-7.256-14.318-17.515-15.457-28.886c-0.857-8.556-3.671-16.962-8.138-24.312
			l-21.439-35.276v-50.872c0-16.069-13.073-29.142-29.143-29.142h-63.493c-8.677,0-16.475,3.817-21.819,9.854
			c-5.456-6.047-13.349-9.854-22.115-9.854H202.9c-8.766,0-16.659,3.808-22.115,9.854c-5.343-6.037-13.142-9.854-21.819-9.854
			H95.474c-16.069,0-29.142,13.073-29.142,29.142v50.869l-21.44,35.278c-4.466,7.349-7.28,15.756-8.137,24.313
			c-1.14,11.371-6.629,21.63-15.447,28.878l-0.162,0.132C7.708,347.335,0,363.647,0,381.042v105.274c0,4.142,3.358,7.5,7.5,7.5h497
			c4.143,0,7.5-3.358,7.5-7.5V381.042C512,363.647,504.293,347.335,490.845,336.281z M353.034,182.677h63.493
			c7.798,0,14.143,6.344,14.143,14.142v45.47h-91.777v-45.47h-0.001C338.892,189.021,345.236,182.677,353.034,182.677z
			 M403.588,350.944l8.164,32.862h-18.696c-7.495-22.47-12.765-45.732-15.674-69.231l-7.09-57.286h20.843l2.894,35.376
			C395.632,312.258,398.848,331.866,403.588,350.944z M355.177,257.29l7.318,59.128c2.826,22.833,7.79,45.455,14.78,67.389h-94.679
			c0.148-12.992,2.397-25.792,6.692-38.068c5.003-14.298,7.539-29.229,7.539-44.379c0-15.227,2.954-29.667,7.65-44.07H355.177z
			 M281.828,301.359c0,13.458-2.253,26.723-6.697,39.426c-4.853,13.872-7.379,28.339-7.526,43.021h-23.21
			c-0.147-14.683-2.672-29.15-7.525-43.021c-4.444-12.703-6.697-25.967-6.697-39.426c0-14.727-2.049-29.276-6.622-43.3l-0.251-0.771
			h65.4l-0.251,0.771C283.915,272.098,281.828,286.623,281.828,301.359z M188.109,197.458c0.005-8.151,6.638-14.782,14.791-14.782
			h106.2c8.156,0,14.791,6.636,14.791,14.792v44.821H188.109V197.458z M81.332,196.819c0-7.798,6.344-14.142,14.142-14.142h63.493
			c7.798,0,14.143,6.344,14.143,14.142v0.63c0,0.007,0,0.013,0,0.019v44.821H81.332V196.819z M141.708,257.289l-7.09,57.286
			c-2.909,23.498-8.18,46.76-15.675,69.231h-18.694l8.164-32.862c4.739-19.077,7.956-38.685,9.559-58.279l2.894-35.376H141.708z
			 M15,381.042c0-12.892,5.712-24.98,15.661-33.158l0.161-0.132c11.913-9.792,19.32-23.635,20.858-38.979
			c0.635-6.341,2.72-12.571,6.03-18.017l20.339-33.467h27.766l-2.794,34.152c-1.538,18.79-4.622,37.593-9.167,55.886l-9.062,36.479
			H15V381.042z M497,478.817H15v-80.011h141.672c4.142,0,7.5-3.358,7.5-7.5c0-4.142-3.358-7.5-7.5-7.5h-21.949
			c6.99-21.935,11.955-44.557,14.781-67.389l7.318-59.128h50.7c4.708,14.435,7.65,28.822,7.65,44.07
			c0,15.149,2.537,30.081,7.539,44.379c4.294,12.275,6.543,25.074,6.689,38.067h-42.767c-4.142,0-7.5,3.358-7.5,7.5
			c0,4.142,3.358,7.5,7.5,7.5H497V478.817z M497,383.806L497,383.806h-69.793l-9.063-36.479
			c-4.544-18.294-7.628-37.097-9.166-55.886l-2.794-34.152h27.765l20.341,33.467c3.31,5.447,5.396,11.677,6.03,18.017
			c1.537,15.344,8.945,29.188,20.867,38.987l0.142,0.116C491.288,356.062,497,368.15,497,381.042V383.806z"/>
	</g>
</g>
<g>
</g>
<g>
</g>
<g>
</g>
<g>
</g>
<g>
</g>
<g>
</g>
<g>
</g>
<g>
</g>
<g>
</g>
<g>
</g>
<g>
</g>
<g>
</g>
<g>
</g>
<g>
</g>
<g>
</g>
</svg>
