<?xml version="1.0" encoding="iso-8859-1"?>
<!-- Generator: Adobe Illustrator 19.0.0, SVG Export Plug-In . SVG Version: 6.00 Build 0)  -->
<svg version="1.1" id="Capa_1" xmlns="http://www.w3.org/2000/svg" xmlns:xlink="http://www.w3.org/1999/xlink" x="0px" y="0px"
	 viewBox="0 0 512 512" style="enable-background:new 0 0 512 512;" xml:space="preserve">
<g>
	<g>
		<path d="M121.111,309.098c-4.142,0-7.5,3.358-7.5,7.5v8.323c0,4.142,3.358,7.5,7.5,7.5c4.142,0,7.5-3.358,7.5-7.5v-8.323
			C128.611,312.456,125.253,309.098,121.111,309.098z"/>
	</g>
</g>
<g>
	<g>
		<path d="M213.085,309.098c-4.142,0-7.5,3.358-7.5,7.5v8.323c0,4.142,3.358,7.5,7.5,7.5c4.142,0,7.5-3.358,7.5-7.5v-8.323
			C220.585,312.456,217.227,309.098,213.085,309.098z"/>
	</g>
</g>
<g>
	<g>
		<path d="M183.384,318.695c-3.119-2.726-7.857-2.409-10.583,0.711c-1.365,1.562-3.444,2.458-5.703,2.458
			c-2.259,0-4.338-0.896-5.703-2.458c-2.726-3.119-7.464-3.436-10.583-0.712c-3.119,2.726-3.437,7.464-0.712,10.583
			c4.214,4.821,10.409,7.586,16.998,7.586c6.588,0,12.783-2.765,16.997-7.586C186.821,326.159,186.503,321.421,183.384,318.695z"/>
	</g>
</g>
<g>
	<g>
		<path d="M508.08,445.235c-19.265-10.464-43.104-10.463-62.366,0c-2.31,1.255-4.722,2.3-7.192,3.176v-6.012
			c0-19.728-16.05-35.778-35.778-35.778h-27c-4.142,0-7.5,3.358-7.5,7.5c0,4.142,3.358,7.5,7.5,7.5h27
			c11.457,0,20.778,9.321,20.778,20.778v8.876c-3.345,0.122-6.691-0.093-9.982-0.629c-0.033-0.006-0.067-0.01-0.1-0.016
			c-5.502-0.91-10.869-2.735-15.771-5.396c-19.525-10.606-42.839-10.606-62.367,0c-14.84,8.063-33.205,8.061-48.046,0
			c-19.526-10.606-42.84-10.606-62.366,0c-14.846,8.065-33.2,8.064-48.047,0c-19.525-10.606-42.84-10.606-62.366,0
			c-14.846,8.064-33.2,8.064-48.046,0c-8.74-4.747-19.037-7.576-29.17-7.891c2.264-9.022,10.442-15.723,20.156-15.723h289.027
			c4.142,0,7.5-3.358,7.5-7.5c0-4.142-3.358-7.5-7.5-7.5h-50.891c-0.844-67.993-13.199-128.817-36.763-180.887
			c-1.169-2.582-2.369-5.14-3.592-7.679h35.322c12.507,0,22.683-10.175,22.683-22.683s-10.175-22.683-22.683-22.683h-61.635
			c-14.819-21.469-32.004-40.888-51.428-58.064c-3.104-2.744-7.843-2.454-10.586,0.65c-2.744,3.103-2.453,7.843,0.65,10.586
			c33.107,29.273,59.404,65.839,77.603,106.056c22.685,50.127,34.594,108.868,35.433,174.703h-20.829
			c-3.655-65.674-13.353-135.597-46.65-193.441c-1.338-2.325-3.817-3.758-6.5-3.758H92.41c-4.142,0-7.5,3.358-7.5,7.5v189.699
			H64.917V66.455c14.994,4.773,46.578,16.806,80.752,41.815c3.341,2.446,8.035,1.72,10.481-1.623
			c2.446-3.343,1.72-8.035-1.623-10.481c-20.466-14.978-39.894-25.497-55.822-32.728l-10.41-38.282
			C85.25,10.604,72.307,0.071,57.417,0.071c-4.142,0-7.5,3.358-7.5,7.5v165.118H22.683C10.175,172.689,0,182.865,0,195.372
			c0,12.507,10.175,22.683,22.683,22.683h27.234v189.364c-14.97,3.207-26.498,15.801-28.09,31.3
			c-6.189,1.301-12.188,3.488-17.762,6.516c-2.416,1.312-3.92,3.841-3.92,6.59v52.604c0,4.142,3.358,7.5,7.5,7.5H504.5
			c4.142,0,7.5-3.358,7.5-7.5v-52.604C512,449.075,510.496,446.547,508.08,445.235z M238.65,187.689h51.87
			c4.236,0,7.683,3.446,7.683,7.683s-3.446,7.683-7.683,7.683h-43C244.696,197.862,241.738,192.73,238.65,187.689z M99.91,224.422
			h102.294c7.49,13.466,14.016,27.441,18.877,42.074H99.91V224.422z M99.91,281.496h125.708
			c5.392,19.527,10.005,42.799,13.491,68.056H99.91V281.496z M99.91,364.551h141.113c1.652,14.12,2.904,28.43,3.681,42.07H99.91
			V364.551z M64.916,16.879c4.394,2.246,7.708,6.409,8.726,11.49c0.033,0.167,0.072,0.331,0.117,0.495l7.425,27.31
			c-6.884-2.578-12.437-4.324-16.268-5.426V16.879z M22.683,203.054c-4.236,0-7.683-3.446-7.683-7.683s3.446-7.682,7.683-7.682
			h27.234v15.365H22.683z M497,496.929H15.145v-40.426c4.628-2.013,9.549-3.316,14.563-3.875c0.074-0.006,0.148-0.004,0.222-0.012
			c10.162-1.078,20.307,1.068,29.34,5.799c19.418,10.171,42.795,10.631,62.366,0c14.698-7.984,33.173-8.079,48.046,0
			c19.526,10.606,42.84,10.606,62.366,0c14.849-8.066,33.197-8.066,48.046,0c19.526,10.606,42.84,10.606,62.366,0
			c14.83-8.055,33.224-8.051,48.046,0c19.251,10.456,43.127,10.452,62.368,0.001c13.523-7.346,30.019-8.049,44.126-1.913V496.929z"
			/>
	</g>
</g>
<g>
	<g>
		<path d="M187.332,175.487c-9.264-11.509-19.438-22.319-30.239-32.13c-18.439-16.748-39.052-31.008-61.269-42.383
			c-4.93-2.523-10.918,1.165-10.918,6.676v72.54c0,4.142,3.358,7.5,7.5,7.5h89.083c2.887,0,5.518-1.657,6.765-4.261
			C189.501,180.825,189.142,177.737,187.332,175.487z M99.906,172.689v-52.451c16.899,9.665,32.701,21.142,47.101,34.222
			c6.315,5.736,12.406,11.835,18.207,18.229H99.906z"/>
	</g>
</g>
<g>
</g>
<g>
</g>
<g>
</g>
<g>
</g>
<g>
</g>
<g>
</g>
<g>
</g>
<g>
</g>
<g>
</g>
<g>
</g>
<g>
</g>
<g>
</g>
<g>
</g>
<g>
</g>
<g>
</g>
</svg>
