<?xml version="1.0" encoding="iso-8859-1"?>
<!-- Generator: Adobe Illustrator 19.0.0, SVG Export Plug-In . SVG Version: 6.00 Build 0)  -->
<svg version="1.1" id="Capa_1" xmlns="http://www.w3.org/2000/svg" xmlns:xlink="http://www.w3.org/1999/xlink" x="0px" y="0px"
	 viewBox="0 0 512 512" style="enable-background:new 0 0 512 512;" xml:space="preserve">
<g>
	<g>
		<path d="M196.617,166.506c-4.143,0-7.5,3.358-7.5,7.5v10.748c0,4.142,3.357,7.5,7.5,7.5s7.5-3.357,7.5-7.5v-10.748
			C204.117,169.863,200.76,166.506,196.617,166.506z"/>
	</g>
</g>
<g>
	<g>
		<path d="M315.383,166.506c-4.143,0-7.5,3.358-7.5,7.5v10.748c0,4.142,3.357,7.5,7.5,7.5s7.5-3.357,7.5-7.5v-10.748
			C322.883,169.863,319.526,166.506,315.383,166.506z"/>
	</g>
</g>
<g>
	<g>
		<path d="M275.592,178.36c-3.117-2.726-7.857-2.408-10.582,0.711c-2.178,2.492-5.462,3.92-9.01,3.92
			c-3.548,0-6.832-1.429-9.01-3.92c-2.726-3.119-7.465-3.437-10.582-0.711c-3.119,2.726-3.438,7.464-0.711,10.583
			c5.027,5.75,12.427,9.048,20.303,9.048c7.876,0,15.276-3.298,20.303-9.048C279.03,185.824,278.711,181.086,275.592,178.36z"/>
	</g>
</g>
<g>
	<g>
		<path d="M397.262,349.1c-14.239,0-25.823,11.584-25.823,25.823v23.77c0,4.142,3.357,7.5,7.5,7.5h36.646c4.143,0,7.5-3.358,7.5-7.5
			v-23.77C423.085,360.685,411.501,349.1,397.262,349.1z M408.085,391.193h-21.646v-16.27c0-5.968,4.855-10.823,10.823-10.823
			c5.968,0,10.823,4.855,10.823,10.823V391.193z"/>
	</g>
</g>
<g>
	<g>
		<path d="M458.416,349.1c-14.239,0-25.823,11.584-25.823,25.823v23.77c0,4.142,3.357,7.5,7.5,7.5h36.646c4.143,0,7.5-3.358,7.5-7.5
			v-23.77C484.239,360.685,472.655,349.1,458.416,349.1z M469.239,391.193h-21.646v-16.27c0-5.968,4.855-10.823,10.823-10.823
			c5.968,0,10.823,4.855,10.823,10.823V391.193z"/>
	</g>
</g>
<g>
	<g>
		<path d="M397.262,416.066c-14.239,0-25.823,11.584-25.823,25.823v23.77c0,4.142,3.357,7.5,7.5,7.5h36.646
			c4.143,0,7.5-3.358,7.5-7.5v-23.77C423.085,427.65,411.501,416.066,397.262,416.066z M408.085,458.159h-21.646v-16.27
			c0-5.968,4.855-10.823,10.823-10.823c5.968,0,10.823,4.855,10.823,10.823V458.159z"/>
	</g>
</g>
<g>
	<g>
		<path d="M458.416,416.066c-14.239,0-25.823,11.584-25.823,25.823v23.77c0,4.142,3.357,7.5,7.5,7.5h36.646
			c4.143,0,7.5-3.358,7.5-7.5v-23.77C484.239,427.65,472.655,416.066,458.416,416.066z M469.239,458.159h-21.646v-16.27
			c0-5.968,4.855-10.823,10.823-10.823c5.968,0,10.823,4.855,10.823,10.823V458.159z"/>
	</g>
</g>
<g>
	<g>
		<path d="M504.5,322.759h-1.263c-0.588-11.22-2.318-22.202-3.637-29.313c3.67-1.865,6.196-5.67,6.196-10.061V265.71
			c0-5.134-3.448-9.47-8.147-10.835c-0.743-6.02-2.545-15.133-6.908-24.322c-6.44-13.564-19.57-29.506-45.934-32.067v-30.722
			c0-4.142-3.357-7.5-7.5-7.5s-7.5,3.358-7.5,7.5v30.722c-26.363,2.561-39.494,18.503-45.935,32.067
			c-4.363,9.19-6.164,18.303-6.908,24.323c-4.699,1.365-8.146,5.701-8.146,10.835v17.674c0,4.391,2.526,8.195,6.196,10.061
			c-1.319,7.111-3.048,18.093-3.636,29.313h-12.7v-26.154v-53.623c17.874-17.953,26.478-39.358,24.266-60.592
			c-2.316-22.227-16.479-42.839-38.857-56.551c-9.063-5.549-17.795-12.034-25.952-19.276c-0.001-0.001-0.003-0.002-0.004-0.003
			c-12.158-10.793-20.741-21.235-25.753-28.013c5.581-3.778,9.256-10.167,9.256-17.399c0-11.577-9.419-20.996-20.996-20.996H263.5
			V11.868c0-4.142-3.357-7.5-7.5-7.5s-7.5,3.358-7.5,7.5v28.283h-17.137c-11.577,0-20.996,9.419-20.996,20.996
			c0,7.232,3.676,13.621,9.256,17.399c-5.013,6.78-13.595,17.22-25.753,28.013c-0.001,0.001-0.003,0.002-0.004,0.003
			c-8.157,7.242-16.889,13.728-25.955,19.278c-2.172,1.331-4.333,2.773-6.424,4.286c-3.355,2.428-4.106,7.117-1.679,10.473
			c2.429,3.356,7.118,4.107,10.474,1.679c1.78-1.289,3.62-2.516,5.464-3.646c9.019-5.521,17.726-11.892,25.918-18.961h108.672
			c8.192,7.069,16.899,13.44,25.916,18.959c18.363,11.251,29.943,27.768,31.772,45.314c1.757,16.867-5.113,33.543-19.895,48.384
			H163.872c-21.616-21.749-26.171-47.97-12.096-70.625c2.186-3.519,1.105-8.143-2.413-10.329c-3.519-2.186-8.142-1.106-10.329,2.413
			c-17.775,28.611-12.248,62.528,14.288,89.194v53.623v26.154h-12.699c-0.363-6.947-1.206-14.592-2.525-22.831
			c-0.4-2.5-0.751-4.649-1.072-6.502c3.648-1.873,6.155-5.666,6.155-10.041V265.71c0-5.134-3.448-9.47-8.147-10.835
			c-0.743-6.02-2.543-15.13-6.907-24.323c-6.441-13.564-19.572-29.506-45.935-32.067v-30.722c0-4.142-3.357-7.5-7.5-7.5
			s-7.5,3.358-7.5,7.5v30.722c-26.363,2.561-39.494,18.503-45.934,32.067c-4.363,9.19-6.164,18.303-6.908,24.323
			c-4.7,1.365-8.147,5.701-8.147,10.835v17.674c0,4.391,2.526,8.196,6.196,10.061c-1.319,7.111-3.049,18.093-3.637,29.313H7.5
			c-4.143,0-7.5,3.358-7.5,7.5v169.873c0,4.142,3.357,7.5,7.5,7.5h497c4.143,0,7.5-3.358,7.5-7.5V330.259
			C512,326.117,508.643,322.759,504.5,322.759z M231.363,55.152h49.273c3.307,0,5.996,2.69,5.996,5.996
			c0,3.306-2.689,5.996-5.996,5.996h-49.273c-3.307,0-5.996-2.69-5.996-5.996C225.367,57.842,228.057,55.152,231.363,55.152z
			 M217.305,104.672c9.09-9.683,15.104-17.979,18.158-22.527h41.074c3.054,4.548,9.068,12.844,18.158,22.527H217.305z
			 M35.001,236.587c7.554-15.57,20.908-23.465,39.691-23.465c18.784,0,32.138,7.895,39.692,23.465
			c3.124,6.441,4.669,13.001,5.431,17.835H29.57C30.332,249.587,31.877,243.027,35.001,236.587z M21.203,269.421h0.125h106.729
			c0.007,0.001,0.015,0,0.02,0h0.104v10.251h-0.117c-0.002,0.001-0.005,0-0.007,0H21.328h-0.125V269.421z M125.599,322.759H23.784
			c0.631-10.924,2.434-21.713,3.654-28.086h94.506C123.165,301.059,124.966,311.862,125.599,322.759z M153.323,492.633H15V337.759
			h1.056h137.267V492.633z M304.947,492.631h-97.893v-53.149c0-26.801,12.92-52.247,34.556-68.065l11.078-8.087
			c0.03-0.022,0.063-0.036,0.093-0.057c1.934-1.352,4.62-1.339,6.534,0.058l11.071,8.083c21.641,15.821,34.561,41.268,34.561,68.068
			V492.631z M343.678,492.631h-23.731v-53.149c-0.001-31.568-15.218-61.542-40.713-80.18l-11.073-8.084
			c-7.123-5.203-17.204-5.237-24.319-0.001l-11.081,8.089c-25.489,18.636-40.707,48.609-40.707,80.178v53.149h-23.731V304.104H288
			c4.143,0,7.5-3.358,7.5-7.5c0-4.142-3.357-7.5-7.5-7.5H168.322v-41.776h175.355v41.776H318c-4.143,0-7.5,3.358-7.5,7.5
			c0,4.142,3.357,7.5,7.5,7.5h25.678V492.631z M397.616,236.587c7.554-15.57,20.907-23.465,39.691-23.465
			c18.783,0,32.138,7.895,39.691,23.465c3.125,6.441,4.669,13.001,5.431,17.835h-90.245
			C392.947,249.587,394.491,243.027,397.616,236.587z M383.818,269.422h0.124h106.729h0.125v10.251h-0.125H383.942h-0.124V269.422z
			 M488.215,322.759H386.398c0.631-10.925,2.434-21.714,3.655-28.086h94.507C485.78,301.059,487.582,311.862,488.215,322.759z
			 M497,492.632H358.678V337.759h137.267H497V492.632z"/>
	</g>
</g>
<g>
	<g>
		<path d="M114.738,349.1c-14.239,0-25.823,11.584-25.823,25.823v23.77c0,4.142,3.357,7.5,7.5,7.5h36.646c4.143,0,7.5-3.358,7.5-7.5
			v-23.77C140.562,360.685,128.978,349.1,114.738,349.1z M125.562,391.193h-21.646v-16.27c0-5.968,4.855-10.823,10.823-10.823
			c5.968,0,10.823,4.855,10.823,10.823V391.193z"/>
	</g>
</g>
<g>
	<g>
		<path d="M53.584,349.1c-14.239,0-25.823,11.584-25.823,25.823v23.77c0,4.142,3.357,7.5,7.5,7.5h36.646c4.143,0,7.5-3.358,7.5-7.5
			v-23.77C79.407,360.685,67.823,349.1,53.584,349.1z M64.407,391.193H42.761v-16.27c0-5.968,4.855-10.823,10.823-10.823
			c5.968,0,10.823,4.855,10.823,10.823V391.193z"/>
	</g>
</g>
<g>
	<g>
		<path d="M114.738,416.066c-14.239,0-25.823,11.584-25.823,25.823v23.77c0,4.142,3.357,7.5,7.5,7.5h36.646
			c4.143,0,7.5-3.358,7.5-7.5v-23.77C140.562,427.65,128.978,416.066,114.738,416.066z M125.562,458.159h-21.646v-16.27
			c0-5.968,4.855-10.823,10.823-10.823c5.968,0,10.823,4.855,10.823,10.823V458.159z"/>
	</g>
</g>
<g>
	<g>
		<path d="M53.584,416.066c-14.239,0-25.823,11.584-25.823,25.823v23.77c0,4.142,3.357,7.5,7.5,7.5h36.646
			c4.143,0,7.5-3.358,7.5-7.5v-23.77C79.407,427.65,67.823,416.066,53.584,416.066z M64.407,458.159H42.761v-16.27
			c0-5.968,4.855-10.823,10.823-10.823c5.968,0,10.823,4.855,10.823,10.823V458.159z"/>
	</g>
</g>
<g>
</g>
<g>
</g>
<g>
</g>
<g>
</g>
<g>
</g>
<g>
</g>
<g>
</g>
<g>
</g>
<g>
</g>
<g>
</g>
<g>
</g>
<g>
</g>
<g>
</g>
<g>
</g>
<g>
</g>
</svg>
