<?xml version="1.0" encoding="iso-8859-1"?>
<!-- Generator: Adobe Illustrator 19.0.0, SVG Export Plug-In . SVG Version: 6.00 Build 0)  -->
<svg version="1.1" id="Capa_1" xmlns="http://www.w3.org/2000/svg" xmlns:xlink="http://www.w3.org/1999/xlink" x="0px" y="0px"
	 viewBox="0 0 512 512" style="enable-background:new 0 0 512 512;" xml:space="preserve">
<g>
	<g>
		<path d="M169.607,257.031c-4.143,0-7.5,3.358-7.5,7.5v15.636c0,4.142,3.358,7.5,7.5,7.5c4.143,0,7.5-3.358,7.5-7.5v-15.636
			C177.107,260.389,173.75,257.031,169.607,257.031z"/>
	</g>
</g>
<g>
	<g>
		<path d="M342.393,257.031c-4.143,0-7.5,3.358-7.5,7.5v15.636c0,4.142,3.357,7.5,7.5,7.5s7.5-3.358,7.5-7.5v-15.636
			C349.893,260.389,346.536,257.031,342.393,257.031z"/>
	</g>
</g>
<g>
	<g>
		<path d="M282.26,273.432c-3.12-2.727-7.858-2.409-10.583,0.71c-3.816,4.366-9.53,6.87-15.677,6.87
			c-6.146,0-11.859-2.504-15.677-6.87c-2.727-3.119-7.464-3.437-10.583-0.71c-3.118,2.726-3.437,7.464-0.71,10.583
			c6.665,7.625,16.495,11.998,26.97,11.998c10.475,0,20.305-4.373,26.97-11.998C285.697,280.897,285.378,276.159,282.26,273.432z"/>
	</g>
</g>
<g>
	<g>
		<path d="M492.411,28.013h-31.044c-10.802,0-19.59,8.788-19.59,19.589v17.19h-40.222v-17.19c0-10.801-8.787-19.589-19.589-19.589
			h-31.045c-10.802,0-19.589,8.788-19.589,19.589v17.19H291.11v-17.19c0-10.801-8.787-19.589-19.589-19.589h-31.045
			c-10.802,0-19.589,8.788-19.589,19.589v17.19h-40.222v-17.19c0-10.801-8.787-19.589-19.589-19.589h-31.045
			c-10.802,0-19.589,8.788-19.589,19.589v17.19H70.223v-17.19c0-10.801-8.788-19.589-19.59-19.589H19.589
			C8.787,28.013,0,36.801,0,47.602v59.047v369.838c0,4.142,3.357,7.5,7.5,7.5h497c4.143,0,7.5-3.358,7.5-7.5V106.649V47.602
			C512,36.801,503.213,28.013,492.411,28.013z M15,114.149h28.748v96.068H15V114.149z M15,225.217h89.836v96.067H15V225.217z
			 M392.164,225.218v96.067H119.836v-96.067H392.164z M263.5,210.217v-96.068h189.752v96.068H263.5z M453.252,336.284v40.942
			c-56.956,3.17-110.826,11.611-158.438,24.734c-1.808,0.499-3.61,1.016-5.412,1.533c-8.695,2.495-17.34,5.164-25.902,8.081v-75.29
			H453.252z M248.5,336.285v80.673c-5.193,1.962-10.259,3.983-15.191,6.061c-0.13-0.099-1.642-1.204-2.271-1.65
			c-18.693-13.266-40.79-20.62-62.853-26.048c-31.894-7.847-69.476-12.208-109.437-15.596l0.001-43.44H248.5z M248.5,210.217H58.748
			v-96.068H248.5V210.217z M15,336.285h28.748l-0.001,42.217c-9.489-0.746-19.086-1.457-28.747-2.163V336.285z M156.41,468.986H15
			V391.38c11.697,0.862,23.83,1.781,35.633,2.759c37.637,3.119,75.494,6.559,112.321,15.289
			c21.345,5.123,39.838,11.786,54.293,20.771c-7.582,3.605-14.792,7.354-21.614,11.238c-11.298,6.432-22.234,13.593-32.358,21.764
			C160.948,465.081,158.651,467.003,156.41,468.986z M497,468.987c0,0-316.584,0-316.578-0.004
			c22.537-16.365,48.078-28.511,74.072-38.3c14.435-5.436,29.165-10.064,44.025-14.185c0.031-0.009,0.063-0.017,0.094-0.026
			c44.02-12.139,93.429-20.137,145.323-23.638c0.193-0.013,0.385-0.026,0.579-0.039c17.472-1.158,34.976-1.793,52.485-1.938V468.987
			z M497,375.841c-0.073,0.001-0.146,0.003-0.219,0.003c-4.718,0.001-23.697,0.489-28.461,0.675
			c-0.023,0.001-0.045,0.001-0.068,0.002v-40.237H497V375.841z M497,321.285h-89.836v-96.067H497V321.285z M497,210.217h-28.748
			v-96.068H497V210.217z M497.003,99.149H15V47.602c0-2.53,2.059-4.589,4.589-4.589h31.044c2.531,0,4.59,2.059,4.59,4.589v24.69
			c0,4.142,3.357,7.5,7.5,7.5h55.222c4.143,0,7.5-3.358,7.5-7.5v-24.69c0-2.53,2.059-4.589,4.589-4.589h31.045
			c2.53,0,4.589,2.059,4.589,4.589v24.69c0,4.142,3.357,7.5,7.5,7.5h55.222c4.143,0,7.5-3.358,7.5-7.5v-24.69
			c0-2.53,2.059-4.589,4.589-4.589h31.045c2.53,0,4.589,2.059,4.589,4.589v24.69c0,4.142,3.357,7.5,7.5,7.5h55.222
			c4.143,0,7.5-3.358,7.5-7.5v-24.69c0-2.53,2.059-4.589,4.589-4.589h31.045c2.53,0,4.589,2.059,4.589,4.589v24.69
			c0,4.142,3.357,7.5,7.5,7.5h55.222c4.143,0,7.5-3.358,7.5-7.5v-24.69c0-2.53,2.059-4.589,4.59-4.589h31.044
			c2.53,0,4.589,2.059,4.589,4.589V99.149z"/>
	</g>
</g>
<g>
</g>
<g>
</g>
<g>
</g>
<g>
</g>
<g>
</g>
<g>
</g>
<g>
</g>
<g>
</g>
<g>
</g>
<g>
</g>
<g>
</g>
<g>
</g>
<g>
</g>
<g>
</g>
<g>
</g>
</svg>
