<?xml version="1.0" encoding="iso-8859-1"?>
<!-- Generator: Adobe Illustrator 19.0.0, SVG Export Plug-In . SVG Version: 6.00 Build 0)  -->
<svg version="1.1" id="Capa_1" xmlns="http://www.w3.org/2000/svg" xmlns:xlink="http://www.w3.org/1999/xlink" x="0px" y="0px"
	 viewBox="0 0 512 512" style="enable-background:new 0 0 512 512;" xml:space="preserve">
<g>
	<g>
		<path d="M172.843,203.264c-4.142,0-7.5,3.358-7.5,7.5v15.05c0,4.142,3.358,7.5,7.5,7.5c4.142,0,7.5-3.358,7.5-7.5v-15.05
			C180.343,206.621,176.985,203.264,172.843,203.264z"/>
	</g>
</g>
<g>
	<g>
		<path d="M339.157,203.264c-4.143,0-7.5,3.358-7.5,7.5v15.05c0,4.142,3.357,7.5,7.5,7.5s7.5-3.358,7.5-7.5v-15.05
			C346.657,206.621,343.3,203.264,339.157,203.264z"/>
	</g>
</g>
<g>
	<g>
		<path d="M281.461,219.12c-3.12-2.727-7.857-2.409-10.583,0.71c-3.62,4.142-9.043,6.517-14.878,6.517s-11.258-2.375-14.877-6.517
			c-2.727-3.119-7.464-3.437-10.583-0.711c-3.119,2.726-3.437,7.464-0.711,10.583c6.469,7.4,16.008,11.645,26.171,11.645
			s19.702-4.244,26.171-11.645C284.897,226.584,284.579,221.845,281.461,219.12z"/>
	</g>
</g>
<g>
	<g>
		<path d="M480.405,181.027l-35.439-11.437c-5.82-1.879-10.965-5.356-14.878-10.056l-19.246-23.113
			c-7.127-8.558-17.091-14.343-28.056-16.289l-27.457-4.871c-9.498-1.685-17.672-7.465-22.427-15.859l-23.475-41.44
			c-8.729-15.41-25.081-25.208-42.677-25.571c-3.58-0.074-7.197-0.111-10.751-0.111c-63.556,0-124.4,11.5-171.323,32.38
			c-3.784,1.684-5.487,6.117-3.803,9.901c1.684,3.785,6.119,5.487,9.901,3.803C135.821,58.321,194.499,47.282,256,47.282
			c3.451,0,6.965,0.036,10.442,0.108c12.331,0.254,23.801,7.139,29.935,17.967l23.475,41.44
			c6.966,12.298,18.941,20.767,32.857,23.236l27.456,4.871c7.484,1.328,14.285,5.276,19.149,11.118l19.246,23.113
			c5.733,6.885,13.271,11.979,21.798,14.732l35.439,11.438c12.682,4.092,21.203,15.794,21.203,29.12v25.138
			c-0.044-0.061-0.093-0.122-0.138-0.184c-15.395-21.414-38.454-36.444-61.883-47.768c-37.4-18.074-84.317-29.811-135.187-34.097
			v-50.86c0-24.147-19.646-43.792-43.793-43.792c-24.147,0-43.792,19.645-43.792,43.792v50.86
			c-10.82,0.912-21.456,2.167-31.865,3.742V133.97c0-16.243-13.209-29.457-29.446-29.457c-19.832,0-34.736,19.631-34.736,38.352
			v43.221c-8.474,2.731-16.644,5.725-24.476,8.968v-16.572c0-15.765-12.821-28.59-28.58-28.59c-19.211,0-33.661,18.99-33.661,37.133
			v46.165c-0.234,0.22-0.451,0.445-0.683,0.667c-4.98,4.769-9.596,9.925-13.627,15.525c-0.043,0.06-0.092,0.12-0.135,0.18v-89.688
			c0-30.664,26.564-53.571,48.85-67.389c3.521-2.183,4.605-6.806,2.422-10.326c-2.183-3.521-6.806-4.605-10.326-2.422
			C19.346,102.43,0,130.141,0,159.873v312.346c0,4.142,3.358,7.5,7.5,7.5h497c4.143,0,7.5-3.358,7.5-7.5V224.425
			C512,204.566,499.303,187.126,480.405,181.027z M256,87.86c15.877,0,28.793,12.916,28.793,28.792v49.827
			c-2.321-0.127-4.65-0.238-6.984-0.334c-0.131-0.005-0.263-0.011-0.394-0.016c-14.271-0.583-28.559-0.56-42.829,0
			c-0.131,0.005-0.262,0.011-0.393,0.016c-2.335,0.096-4.663,0.208-6.984,0.334v-49.827h-0.001
			C227.208,100.777,240.125,87.86,256,87.86z M131.161,142.865c0-10.552,8.135-23.352,19.736-23.352
			c6.947,0,14.446,5.527,14.446,14.457v39.805c-11.768,2.187-23.189,4.803-34.182,7.832
			C131.161,181.607,131.161,142.9,131.161,142.865z M44.445,187.024c-0.001-8.592,4.706-16.447,12.284-20.501
			c8.741-4.676,19.957,1.77,19.957,11.958v23.294c-6.288,3.05-12.46,6.356-18.449,9.962c-4.716,2.84-9.337,5.854-13.792,9.088
			V187.024z M76.685,464.719H44.441c0,0,0-10.869,0-10.875c0-9.845,7.802-22.14,18.663-22.14c6.532,0,13.581,5.195,13.581,13.588
			V464.719z M165.339,464.719h-34.175c0-0.003,0-55.007,0-55.042c0-10.415,8.257-23.351,19.73-23.351
			c6.947,0,14.445,5.528,14.445,14.459V464.719z M284.795,464.719h-57.589v-81.251c0-15.877,12.917-28.795,28.794-28.795
			c15.878,0,28.795,12.917,28.795,28.795V464.719z M380.836,464.719H346.66v-63.934c0-8.931,7.498-14.459,14.445-14.459
			c11.558,0,19.731,12.895,19.731,23.351V464.719z M467.558,464.719h-32.244v-19.427c0-8.393,7.05-13.588,13.581-13.588
			c10.937,0,18.663,12.248,18.663,22.14V464.719z M482.559,464.719c0,0,0-10.867,0-10.875c0-18.065-14.566-37.14-33.663-37.14
			c-15.76,0-28.581,12.825-28.581,28.588v19.427h-24.479c0,0,0-55.008,0-55.042c0-18.678-14.978-38.351-34.73-38.351
			c-16.236,0-29.445,13.215-29.445,29.459v63.934h-31.865v-81.251c0-24.148-19.646-43.795-43.795-43.795
			c-24.149,0-43.794,19.646-43.794,43.795v81.251H180.34v-63.934c0-16.244-13.209-29.459-29.445-29.459
			c-19.833,0-34.731,19.633-34.731,38.351v55.042H91.686v-19.427c0-15.764-12.821-28.588-28.581-28.588
			c-19.215,0-33.663,18.993-33.663,37.14v10.875H15c0,0,0-38.023,0-38.026c0-12.366,4.711-24.398,11.755-34.422
			c0.038-0.054,0.08-0.108,0.118-0.162c22.411-31.79,63.036-48.924,98.974-59.899c42.037-12.837,86.28-18.112,130.153-18.112
			c27.164,0,54.37,2.089,81.161,6.625c37.739,6.39,75.464,17.29,108.491,37.065c24.297,14.548,50.794,37.274,51.325,67.995
			c0.004,0.303,0.023,38.936,0.023,38.936H482.559z M44.445,354.237c0,0,0-33.769,0-33.804c0-9.918,7.73-22.134,18.662-22.134
			c6.531,0,13.58,5.196,13.58,13.59v23.298h-0.001c-2.068,1.003-4.116,2.04-6.155,3.099
			C61.483,342.987,52.701,348.245,44.445,354.237z M131.162,315.016c0,0,0-38.712,0-38.745c0-10.448,8.222-23.352,19.736-23.352
			c6.947,0,14.445,5.527,14.445,14.457v39.808c-5.863,1.089-11.641,2.284-17.322,3.584c-0.03,0.007-0.06,0.013-0.09,0.02
			C142.24,312.092,136.649,313.504,131.162,315.016z M346.657,307.184v-39.807c0-8.93,7.498-14.456,14.445-14.457
			c11.558,0,19.737,12.89,19.737,23.352v38.745C369.846,311.987,358.425,309.371,346.657,307.184z M435.314,335.186v-23.297
			c0-8.394,7.049-13.59,13.58-13.59c10.936,0,18.661,12.244,18.661,22.134v33.804c-0.213-0.155-0.438-0.306-0.652-0.46
			c-9.844-7.078-20.4-13.142-31.294-18.444C435.51,335.284,435.414,335.234,435.314,335.186z M497,382.974
			c-0.042-0.059-0.09-0.118-0.133-0.177c-1.562-2.17-3.212-4.276-4.936-6.32c-2.929-3.471-6.073-6.761-9.375-9.875
			c0,0,0-46.147,0-46.168c0-18.091-14.537-37.134-33.661-37.134c-15.759,0-28.58,12.825-28.58,28.59v16.575
			c-7.831-3.244-16.002-6.237-24.476-8.968c0,0,0-43.203,0-43.223c0-18.68-14.981-38.352-34.736-38.352
			c-16.236,0-29.445,13.214-29.445,29.457v37.287c-25.02-3.787-50.356-5.566-75.657-5.566c-25.303,0-50.635,1.78-75.657,5.567
			V267.38c0-16.242-13.209-29.456-29.445-29.457c-19.823,0-34.737,19.633-34.737,38.352v43.223c-0.016,0.005-0.031,0.01-0.047,0.015
			c-8.261,2.646-16.415,5.634-24.428,8.954v-16.575c0-15.764-12.82-28.589-28.579-28.59c-19.206,0-33.662,18.992-33.662,37.134
			v46.168c-0.235,0.222-0.455,0.448-0.687,0.671c-4.945,4.735-9.599,9.932-13.625,15.524c-0.043,0.059-0.09,0.118-0.133,0.177
			c0,0,0-89.648,0-89.693c0.001-38.813,37.796-63.369,68.916-78.338c41.048-19.745,90.187-32.7,135.835-32.976
			c0.162-0.001,0.324-0.006,0.486-0.017c23.822-1.684,47.704-1.597,71.527,0c0.108,0.008,0.215,0.003,0.322,0.006
			c51.533,3.651,99.01,15.108,136.366,33.161C472.656,236.478,497,264.237,497,293.281V382.974z"/>
	</g>
</g>
<g>
</g>
<g>
</g>
<g>
</g>
<g>
</g>
<g>
</g>
<g>
</g>
<g>
</g>
<g>
</g>
<g>
</g>
<g>
</g>
<g>
</g>
<g>
</g>
<g>
</g>
<g>
</g>
<g>
</g>
</svg>
