<?xml version="1.0" encoding="iso-8859-1"?>
<!-- Generator: Adobe Illustrator 19.0.0, SVG Export Plug-In . SVG Version: 6.00 Build 0)  -->
<svg version="1.1" id="Capa_1" xmlns="http://www.w3.org/2000/svg" xmlns:xlink="http://www.w3.org/1999/xlink" x="0px" y="0px"
	 viewBox="0 0 512.001 512.001" style="enable-background:new 0 0 512.001 512.001;" xml:space="preserve">
<g>
	<g>
		<path d="M184.381,81.243c-4.142,0-7.5,3.358-7.5,7.5v12.962c0,4.142,3.358,7.5,7.5,7.5s7.5-3.358,7.5-7.5V88.743
			C191.881,84.601,188.523,81.243,184.381,81.243z"/>
	</g>
</g>
<g>
	<g>
		<path d="M327.619,81.243c-4.142,0-7.5,3.358-7.5,7.5v12.962c0,4.142,3.358,7.5,7.5,7.5c4.142,0,7.5-3.358,7.5-7.5V88.743
			C335.119,84.601,331.761,81.243,327.619,81.243z"/>
	</g>
</g>
<g>
	<g>
		<path d="M278.612,95.156c-3.119-2.726-7.857-2.407-10.583,0.712c-2.92,3.34-7.305,5.256-12.03,5.256
			c-4.725,0-9.11-1.916-12.03-5.257c-2.727-3.119-7.464-3.437-10.583-0.711c-3.119,2.726-3.437,7.464-0.711,10.583
			c5.769,6.6,14.271,10.385,23.324,10.385c9.054,0,17.555-3.785,23.324-10.385C282.049,102.62,281.731,97.883,278.612,95.156z"/>
	</g>
</g>
<g>
	<g>
		<path d="M486.107,196.287v-8.661h7.848c9.546,0,17.313-7.767,17.313-17.313v-15.748c0-8.736-6.511-15.962-14.931-17.129
			L334.635,40.549c-3.554-2.129-8.16-0.975-10.289,2.579c-2.129,3.554-0.975,8.16,2.579,10.289l139.921,83.837H45.155
			L243.328,18.516c7.816-4.683,17.527-4.684,25.344,0l34.027,20.389c3.555,2.13,8.16,0.975,10.289-2.579
			c2.129-3.553,0.974-8.16-2.579-10.289L276.381,5.649c-12.571-7.532-28.19-7.532-40.762,0L15.664,137.439
			c-8.421,1.167-14.931,8.392-14.931,17.129v15.748c0,9.546,7.766,17.313,17.313,17.313h7.848v8.661
			c0,9.534,6.079,17.673,14.564,20.75v210.953c-5.795,2.802-9.813,8.722-9.813,15.579v15.749c0,0.786,0.071,1.554,0.173,2.312
			H18.045c-9.546-0.002-17.312,7.764-17.312,17.31v15.748c0,9.546,7.766,17.313,17.313,17.313h475.909
			c9.546,0,17.313-7.766,17.313-17.313v-15.748c0-9.546-7.766-17.312-17.313-17.312h-12.772c0.102-0.758,0.173-1.526,0.173-2.312
			v-15.749c0-6.857-4.017-12.777-9.813-15.579V217.037C480.028,213.961,486.107,205.821,486.107,196.287z M493.955,476.629
			c1.275,0,2.313,1.037,2.313,2.312v15.748c0,1.275-1.038,2.313-2.313,2.313H18.045c-1.275,0-2.313-1.038-2.313-2.313v-15.748
			c0-1.275,1.038-2.312,2.313-2.312h88.059c4.142,0,7.5-3.358,7.5-7.5s-3.358-7.5-7.5-7.5H47.957c-1.275,0-2.312-1.037-2.312-2.312
			v-15.749c0-1.275,1.038-2.312,2.313-2.312h416.086c1.275,0,2.313,1.037,2.313,2.312v15.749c0,1.275-1.038,2.312-2.313,2.312
			H135.986c-4.142,0-7.5,3.358-7.5,7.5s3.358,7.5,7.5,7.5H493.955z M47.957,203.352c-3.895,0-7.064-3.169-7.064-7.064v-8.661h62.431
			v8.661c0,3.895-3.169,7.064-7.064,7.064H47.957z M88.759,218.352v207.906H55.456V218.352H88.759z M163.052,217.037v209.22h-59.293
			v-209.22c8.485-3.076,14.564-11.216,14.564-20.75v-8.661h30.165v8.661C148.489,205.821,154.567,213.96,163.052,217.037z
			 M170.551,203.352c-3.895,0-7.064-3.169-7.064-7.064v-8.661h62.43v8.661c0,3.895-3.169,7.064-7.064,7.064H170.551z
			 M211.353,218.352v207.906h-33.302V218.352H211.353z M285.646,217.037v209.22h-59.293v-209.22
			c8.485-3.076,14.564-11.216,14.564-20.75v-8.661h30.165v8.661C271.082,205.821,277.161,213.96,285.646,217.037z M293.146,203.352
			c-3.895,0-7.064-3.169-7.064-7.064v-8.661h62.43v8.661c0,3.895-3.169,7.064-7.064,7.064H293.146z M333.948,218.352v207.906
			h-33.302V218.352H333.948z M408.241,217.037v209.22h-59.293v-209.22c8.485-3.076,14.564-11.216,14.564-20.75v-8.661h30.165v8.661
			C393.677,205.821,399.756,213.96,408.241,217.037z M415.74,203.352c-3.895,0-7.064-3.169-7.064-7.064v-8.661h62.43v8.661
			c0,3.895-3.169,7.064-7.064,7.064H415.74z M456.543,218.352v207.906H423.24V218.352H456.543z M18.045,172.629
			c-1.275-0.001-2.312-1.038-2.312-2.313v-15.748c0-1.275,1.038-2.312,2.313-2.312h475.909c1.275,0,2.313,1.037,2.313,2.312v15.748
			c0,1.275-1.038,2.313-2.313,2.313H18.045z"/>
	</g>
</g>
<g>
</g>
<g>
</g>
<g>
</g>
<g>
</g>
<g>
</g>
<g>
</g>
<g>
</g>
<g>
</g>
<g>
</g>
<g>
</g>
<g>
</g>
<g>
</g>
<g>
</g>
<g>
</g>
<g>
</g>
</svg>
