<?xml version="1.0" encoding="iso-8859-1"?>
<!-- Generator: Adobe Illustrator 19.0.0, SVG Export Plug-In . SVG Version: 6.00 Build 0)  -->
<svg version="1.1" id="Capa_1" xmlns="http://www.w3.org/2000/svg" xmlns:xlink="http://www.w3.org/1999/xlink" x="0px" y="0px"
	 viewBox="0 0 511.997 511.997" style="enable-background:new 0 0 511.997 511.997;" xml:space="preserve">
<g>
	<g>
		<path d="M207.115,312.192c-4.143,0-7.5,3.358-7.5,7.5v17.364c0,4.142,3.358,7.5,7.5,7.5c4.143,0,7.5-3.358,7.5-7.5v-17.364
			C214.615,315.55,211.258,312.192,207.115,312.192z"/>
	</g>
</g>
<g>
	<g>
		<path d="M218.939,355.078H195.29c-4.143,0-7.5,3.358-7.5,7.5c0,4.142,3.357,7.5,7.5,7.5h23.649c4.143,0,7.5-3.358,7.5-7.5
			C226.439,358.436,223.082,355.078,218.939,355.078z"/>
	</g>
</g>
<g>
	<g>
		<path d="M385.72,312.192c-4.143,0-7.5,3.358-7.5,7.5v17.364c0,4.142,3.357,7.5,7.5,7.5s7.5-3.358,7.5-7.5v-17.364
			C393.22,315.55,389.863,312.192,385.72,312.192z"/>
	</g>
</g>
<g>
	<g>
		<path d="M397.545,355.078h-23.65c-4.143,0-7.5,3.358-7.5,7.5c0,4.142,3.357,7.5,7.5,7.5h23.65c4.143,0,7.5-3.358,7.5-7.5
			C405.045,358.436,401.687,355.078,397.545,355.078z"/>
	</g>
</g>
<g>
	<g>
		<path d="M317.325,348.883c-3.117-2.726-7.856-2.409-10.582,0.711c-2.502,2.861-6.266,4.502-10.326,4.502
			s-7.824-1.641-10.326-4.502c-2.725-3.119-7.464-3.438-10.582-0.711c-3.119,2.726-3.438,7.464-0.711,10.583
			c5.35,6.121,13.229,9.631,21.619,9.631c8.39,0,16.27-3.51,21.619-9.631C320.763,356.347,320.444,351.609,317.325,348.883z"/>
	</g>
</g>
<g>
	<g>
		<path d="M501.447,503.674c-0.111-1.008-2.865-24.974-14.833-49.262c-13.542-27.485-33.432-44.275-58.097-49.326
			c22.975-25.365,37.634-57.474,39.918-92.8c0-0.002,0-0.004,0-0.006c0.212-3.203,0.319-6.467,0.319-9.7
			c0-28.795-8.27-55.833-22.721-79.187c24.646-18.281,37.156-32.048,43.375-40.586c3.169-4.352,3.621-10.035,1.181-14.83
			c-2.452-4.818-7.298-7.812-12.647-7.812c-0.709,0-1.429,0.053-2.139,0.158c-11.657,1.724-32.112,7.257-64.167,23.606
			c-5.878-4.906-12.117-9.446-18.682-13.575c13.908-39.903,16.737-63.9,16.585-77.153c-0.091-7.902-6.375-14.092-14.307-14.092
			c-3.777,0-7.344,1.493-10.043,4.204c-9.237,9.283-23.747,28.162-41.365,65.717c-6.516-1.73-13.191-3.106-19.996-4.118
			c-1.013-52.944-8.248-81.052-14.272-95.411c-2.225-5.302-7.383-8.728-13.14-8.728c-5.758,0-10.916,3.426-13.141,8.728
			c-6.024,14.359-13.258,42.471-14.272,95.411c-6.805,1.012-13.48,2.388-19.996,4.118c-17.619-37.559-32.129-56.437-41.365-65.716
			c-2.698-2.711-6.265-4.204-10.043-4.204c-7.931,0-14.214,6.189-14.306,14.092c-0.152,13.255,2.678,37.255,16.585,77.152
			c-6.564,4.129-12.804,8.668-18.681,13.574c-18.336-9.356-34.683-16.113-48.717-20.141c-1.477-3.461-3.307-6.734-5.433-9.787
			h10.559c8.841,0,16.034-7.193,16.034-16.034v-15.152c0-8.841-7.193-16.033-16.034-16.033h-8.595
			c7.443-17.529,9.627-33.717,6.646-49.197c-4.133-21.459-19.489-41.324-42.132-54.501c-7.066-4.111-15.842-4.111-22.908,0
			c-6.521,3.795-12.548,8.227-17.912,13.173c-3.045,2.808-3.237,7.553-0.43,10.598c2.807,3.045,7.553,3.237,10.598,0.43
			c4.564-4.208,9.708-7.989,15.289-11.236c2.412-1.403,5.408-1.403,7.818,0c18.896,10.998,31.634,27.171,34.948,44.374
			c2.713,14.088-0.032,29.29-8.393,46.36h-4.969c0.434-4.388,0.275-8.572-0.505-12.626c-2.059-10.679-9.321-21.222-20.45-29.686
			c-2.684-2.04-6.396-2.04-9.08,0c-11.13,8.464-18.393,19.007-20.449,29.687c-0.781,4.053-0.94,8.237-0.506,12.625h-4.969
			c-8.361-17.071-11.106-32.273-8.393-46.361c0.758-3.933,2.012-7.853,3.729-11.651c1.706-3.775,0.029-8.218-3.745-9.924
			c-3.774-1.705-8.217-0.029-9.923,3.745c-2.199,4.866-3.811,9.91-4.789,14.993c-2.982,15.479-0.798,31.668,6.646,49.198h-8.595
			c-8.841,0-16.033,7.192-16.033,16.033v15.152c0,8.841,7.192,16.034,16.033,16.034h10.559c-6.17,8.863-9.801,19.62-9.801,31.213
			c0,15.498,6.48,29.503,16.861,39.477v82.294l-1.697,0.585c-14.921,5.144-22.876,21.468-17.732,36.391
			c2.004,5.813,5.76,10.662,10.55,14.047c-2.07,2.143-3.818,4.618-5.161,7.375c-3.349,6.873-3.821,14.639-1.329,21.867
			c3.894,11.293,14.391,18.942,26.272,19.27c0.105,21.032,3.573,73.248,33.604,103.28c1.407,1.407,3.314,2.197,5.304,2.197h400.025
			c2.133,0,4.164-0.908,5.587-2.496C501.002,507.913,501.681,505.793,501.447,503.674z M307.693,446.907
			c-0.016,0.001-0.033,0.002-0.049,0.003c-72.532,4.32-146.992-39.582-164.778-112.72c-0.197-0.811-3.735-16.359-2.92-16.561
			c0.114-0.028,0.506-0.127,0.582-0.146c30.329-7.582,59.874-18.773,87.631-33.129c13.17-6.812,25.938-14.447,38.029-23.036
			c2.647-1.883,31.009-24.531,30.23-25.308c25.612,25.515,57.166,44.317,90.11,58.773c21.106,9.261,43.276,17.05,65.78,22.7
			c0.076,0.019,0.481,0.121,0.601,0.151C445.079,387.398,383.439,441.945,307.693,446.907z M476.184,175.446
			c-5.908,7.719-17.212,19.633-38.588,35.532c-4.305-5.687-9.007-11.113-14.071-16.238
			C449.255,182.047,466.057,177.189,476.184,175.446z M394.54,95.214c-0.145,12.109-3.042,33.137-14.823,67.539
			c-6.907-3.539-14.067-6.633-21.419-9.255C373.746,120.907,386.254,103.94,394.54,95.214z M296.418,57.014
			c4.509,11.55,11.268,36.871,12.378,86.281c-0.118-0.008-3.782-0.211-5.505-0.274c-4.578-0.17-9.163-0.191-13.74,0
			c-1.838,0.067-3.678,0.152-5.512,0.274C285.149,93.885,291.909,68.564,296.418,57.014z M198.294,95.214
			c8.285,8.724,20.793,25.69,36.243,58.284c-7.352,2.622-14.513,5.716-21.419,9.255C201.338,128.354,198.439,107.325,198.294,95.214
			z M277.36,158.943c12.635-1.403,25.476-1.436,38.11,0c71.212,7.941,127.912,59.801,137.009,125.161
			c-0.157-0.226-1.974-2.808-2.729-3.872c-3.277-4.584-6.688-9.062-10.175-13.488c-6.109-7.68-12.573-15.088-19.382-22.155
			c-2.877-2.98-7.626-3.064-10.604-0.187c-2.98,2.877-3.063,7.625-0.187,10.605c8.993,9.316,17.328,19.302,25.027,29.71
			c3.53,4.772,10.425,14.981,10.547,15.168c-21.47-6.239-59.393-19.218-95.037-41.222c-0.042-0.026-0.083-0.051-0.125-0.077
			c-17.466-10.764-33.911-23.415-47.901-38.473c-1.42-1.528-3.411-2.396-5.496-2.396c-2.086,0-4.077,0.868-5.496,2.396
			c-12.025,12.952-25.912,24.11-40.643,33.833c-0.13,0.086-0.26,0.174-0.39,0.26c-31.156,20.499-65.938,35.162-101.667,45.573
			c0.283-0.082,3.111-5.133,3.811-6.128c9.136-13.001,18.948-25.555,29.899-37.084c45.174-47.546,87.192-57.526,114.486-57.526
			c31.387,0,62.384,12.339,92.129,36.675c3.206,2.624,7.932,2.151,10.554-1.056c2.586-3.163,2.106-7.967-1.056-10.554
			c-32.495-26.585-66.688-40.065-101.627-40.065c-43.459,0-86.9,21.604-125.629,62.477c-11.074,11.687-21.187,24.27-30.369,37.492
			c-0.02,0.029-0.041,0.059-0.061,0.088C149.454,218.739,206.151,166.885,277.36,158.943z M135.968,194.943
			c0.418-2.327,0.702-4.703,0.815-7.065c0.112-2.347,0.08-4.7-0.107-7.043c9.801,3.374,20.714,8.023,32.634,13.904
			c-5.064,5.125-9.767,10.551-14.071,16.237c-7.17-5.335-13.646-10.551-19.346-15.58
			C135.922,195.245,135.941,195.094,135.968,194.943z M130.584,210.61c4.959,4.176,10.377,8.445,16.219,12.778
			c-10.392,16.794-17.584,35.494-20.807,55.383l-6.007,2.071V224.69h0.001C124.234,220.612,127.823,215.864,130.584,210.61z
			 M71.812,96.993c1.069-5.547,4.724-11.448,10.261-16.725c5.536,5.277,9.192,11.179,10.261,16.724
			c0.585,3.039,0.635,6.274,0.144,9.789H71.67C71.178,103.266,71.227,100.032,71.812,96.993z M26.538,139
			c-0.569,0-1.033-0.464-1.033-1.034v-15.152c0-0.57,0.464-1.033,1.033-1.033h111.07c0.57,0,1.034,0.463,1.034,1.033v15.152
			c0,0.57-0.464,1.034-1.034,1.034h-26.137c-4.106-2.62-8.502-4.653-13.089-6.084c-0.027-0.008-0.053-0.016-0.08-0.025
			c-10.474-3.267-21.973-3.253-32.449-0.003c-0.033,0.01-0.067,0.021-0.1,0.031c-4.582,1.431-8.975,3.462-13.078,6.081H26.538z
			 M42.296,185.213c0-21.571,18.207-39.777,39.777-39.777c21.572,0,39.777,18.198,39.777,39.777
			c0,21.554-18.231,39.777-39.777,39.777C60.406,224.991,42.296,206.848,42.296,185.213z M59.158,264.818l2.721,7.64
			c2.432,6.827,8.934,11.413,16.18,11.413h8.029c7.246,0,13.749-4.586,16.181-11.414l2.722-7.643v21.198l-45.833,15.801V264.818z
			 M65.301,237.353c0.573,0.185,1.152,0.354,1.733,0.521c5.688,1.628,11.636,2.331,17.546,2.058
			c4.243-0.197,8.462-0.892,12.545-2.062c0.577-0.165,1.152-0.334,1.721-0.517l-10.709,30.071c-0.308,0.865-1.132,1.446-2.05,1.446
			h-8.029c-0.918,0-1.741-0.581-2.049-1.446L65.301,237.353z M38.91,339.07c-2.449-7.101,1.337-14.871,8.439-17.32l76.916-26.517
			c-0.122,2.445-0.185,4.897-0.185,7.345c0,7.025,0.503,14.072,1.491,21.027c0,0-69.324,23.899-69.341,23.905
			C49.206,349.932,41.33,346.091,38.91,339.07z M42.969,382.361c-2.449-7.102,1.337-14.872,8.439-17.321l77.055-26.565
			c2.127,8.581,5.025,16.97,8.627,25.043c0.104,0.233,0.202,0.467,0.307,0.699c0,0-77.1,26.58-77.108,26.583
			C53.265,393.223,45.389,389.383,42.969,382.361z M97.176,496.996c-25.464-27.962-27.206-77.885-27.08-93.709l74.213-25.584
			c0.358,0.623,0.74,1.232,1.107,1.85c14.139,23.8,34.532,43.596,58.313,57.681c29.245,17.321,63.444,25.815,97.373,24.98
			c42.677-1.052,82.83-16.451,113.842-43.703c25.104,0.974,44.622,15.157,58.05,42.194c6.839,13.769,10.418,27.738,12.143,36.291
			H97.176z"/>
	</g>
</g>
<g>
</g>
<g>
</g>
<g>
</g>
<g>
</g>
<g>
</g>
<g>
</g>
<g>
</g>
<g>
</g>
<g>
</g>
<g>
</g>
<g>
</g>
<g>
</g>
<g>
</g>
<g>
</g>
<g>
</g>
</svg>
