<?xml version="1.0" encoding="iso-8859-1"?>
<!-- Generator: Adobe Illustrator 19.0.0, SVG Export Plug-In . SVG Version: 6.00 Build 0)  -->
<svg version="1.1" id="Capa_1" xmlns="http://www.w3.org/2000/svg" xmlns:xlink="http://www.w3.org/1999/xlink" x="0px" y="0px"
	 viewBox="0 0 512 512" style="enable-background:new 0 0 512 512;" xml:space="preserve">
<g>
	<g>
		<path d="M192.783,282.454c-4.143,0-7.5,3.358-7.5,7.5v11.441c0,4.142,3.358,7.5,7.5,7.5c4.143,0,7.5-3.358,7.5-7.5v-11.441
			C200.283,285.813,196.926,282.454,192.783,282.454z"/>
	</g>
</g>
<g>
	<g>
		<path d="M319.217,282.454c-4.143,0-7.5,3.358-7.5,7.5v11.441c0,4.142,3.357,7.5,7.5,7.5s7.5-3.358,7.5-7.5v-11.441
			C326.717,285.813,323.36,282.454,319.217,282.454z"/>
	</g>
</g>
<g>
	<g>
		<path d="M276.538,294.951c-3.12-2.726-7.855-2.408-10.583,0.711c-2.409,2.757-6.038,4.339-9.955,4.339s-7.546-1.582-9.955-4.339
			c-2.727-3.119-7.465-3.437-10.583-0.711c-3.119,2.726-3.438,7.463-0.712,10.583c5.259,6.018,13.004,9.468,21.25,9.468
			c8.246,0,15.991-3.451,21.25-9.468C279.976,302.416,279.657,297.677,276.538,294.951z"/>
	</g>
</g>
<g>
	<g>
		<path d="M510.033,322.633l-52.054-56.9c0,0,23.272-47.365,23.301-47.424c1.872-3.811,0.045-8.622-3.867-10.239
			c-11.207-4.631-23.03-7.136-35.186-7.467c0,0,24.067-48.983,24.092-49.034c1.889-3.844,0.079-8.608-3.867-10.239
			c-15.481-6.397-31.88-9.641-48.741-9.641c-25.741,0-50.951,7.856-72.081,22.301c-11.86-34.178-35.748-63.679-68.009-82.174
			c-3.593-2.06-8.177-0.817-10.237,2.777c-2.06,3.593-0.816,8.177,2.776,10.237c41.081,23.55,67.104,66.892,68.759,113.954
			c0.089,2.391,0.102,4.782,0.059,7.174c-7.138-2.467-14.509-4.073-22.049-4.847c-16.371-1.681-33.062,0.671-48.281,6.961
			c-3.943,1.629-5.749,6.409-3.867,10.239l20.253,41.22h-36.447l-91.02-185.253c14.332-4.962,29.328-7.473,44.687-7.473
			c13.555,0,26.954,1.984,39.827,5.897c3.966,1.207,8.153-1.031,9.357-4.995c1.205-3.963-1.031-8.152-4.994-9.357
			c-14.289-4.343-29.157-6.545-44.19-6.545c-20.035,0-39.52,3.854-57.915,11.456c-3.948,1.631-5.753,6.399-3.867,10.239
			l12.272,24.977c-8.363-1.553-16.877-2.348-25.461-2.348c-18.314,0-36.127,3.523-52.943,10.473
			c-3.945,1.63-5.752,6.403-3.867,10.239l10.87,22.123c-7.867-1.496-15.878-2.271-23.964-2.271c-16.86,0-33.259,3.244-48.74,9.641
			c-3.94,1.628-5.747,6.412-3.867,10.239l32.244,65.626H7.5c-4.143,0-7.5,3.358-7.5,7.5v223c0,4.139,3.357,7.497,7.5,7.497h497
			c4.143,0,7.5-3.358,7.5-7.5v-125C512,325.883,511.272,323.966,510.033,322.633z M413.711,146.69
			c12.181,0,24.085,1.916,35.49,5.704l-24.182,49.218c-0.525,0.076-2.111,0.348-2.382,0.394
			c-16.214,2.767-31.393,9.506-44.291,19.578c-2.531,1.977-4.985,4.067-7.314,6.28c-0.536-0.51-1.719-1.581-1.762-1.621
			c-5.935-5.377-12.461-10.001-19.527-13.807c0.014-0.233,0.018-0.464,0.031-0.697c0.424-7.858,0.233-15.746-0.56-23.574
			c-0.645-6.373-1.676-12.698-3.116-18.928C365.518,154.664,389.345,146.69,413.711,146.69z M277.94,219.221
			c7.956-2.429,16.219-3.658,24.662-3.658c17.487,0,34.795,5.568,49.031,15.718c5.034,3.589,9.686,7.745,13.817,12.346
			c2.938,3.272,8.229,3.27,11.162,0c4.004-4.46,8.495-8.502,13.354-12.012c14.32-10.345,31.823-16.052,49.494-16.052
			c8.442,0,16.706,1.228,24.661,3.658l-19.806,40.308H297.746L277.94,219.221z M123.281,111.127c11.565,0,22.988,1.591,34.002,4.732
			l70.59,143.67h-52.021l-39.869-35.439c-0.059-0.052-0.118-0.104-0.179-0.154l-1.494-3.041L83.577,117.64
			C96.325,113.314,109.645,111.127,123.281,111.127z M17.887,157.393c11.405-3.788,23.309-5.704,35.489-5.704
			c11.098,0,22.038,1.607,32.567,4.781l32.293,65.726h-68.51L17.887,157.393z M496.999,445.195H15v-70.419
			c1.007-0.44,2.021-0.844,3.054-1.218c13.404-4.853,28.565-3.692,41.089,3.11c19.531,10.609,42.851,10.607,62.382,0
			c14.849-8.064,33.215-8.065,48.062,0c19.529,10.608,42.849,10.61,62.382,0c14.849-8.065,33.215-8.065,48.062,0
			c19.252,10.457,43.041,10.506,62.382,0c14.311-7.773,31.891-8.071,46.462-0.806c21.8,10.871,43.672,10.987,65.477,0.053
			c13.137-6.588,29.179-7.034,42.647-1.14V445.195z M497,358.721c-13.037-4.238-27.026-4.236-40.071-0.029
			c-0.047,0.015-0.094,0.031-0.141,0.047c-3.829,1.23-7.556,2.828-11.091,4.749c-14.85,8.068-33.212,8.067-48.062,0
			c-19.531-10.607-42.852-10.608-62.383,0c-14.845,8.063-33.221,8.063-48.062,0c-19.531-10.607-42.852-10.608-62.383,0
			c-14.843,8.062-33.224,8.061-48.062,0c-19.531-10.607-42.852-10.607-62.383,0c-14.785,8.031-33.279,8.027-48.062,0
			c-15.458-8.394-34.375-10.268-51.303-4.766v-23.525h62.17c4.143,0,7.5-3.358,7.5-7.5c0-4.142-3.357-7.5-7.5-7.5H15v-83.002
			h113.148l39.869,35.439c1.373,1.22,3.146,1.895,4.982,1.895h272.696l41.777,45.667h-380.52c-4.143,0-7.5,3.358-7.5,7.5
			c0,4.142,3.357,7.5,7.5,7.5H497V358.721z"/>
	</g>
</g>
<g>
</g>
<g>
</g>
<g>
</g>
<g>
</g>
<g>
</g>
<g>
</g>
<g>
</g>
<g>
</g>
<g>
</g>
<g>
</g>
<g>
</g>
<g>
</g>
<g>
</g>
<g>
</g>
<g>
</g>
</svg>
