<?xml version="1.0" encoding="iso-8859-1"?>
<!-- Generator: Adobe Illustrator 19.0.0, SVG Export Plug-In . SVG Version: 6.00 Build 0)  -->
<svg version="1.1" id="Capa_1" xmlns="http://www.w3.org/2000/svg" xmlns:xlink="http://www.w3.org/1999/xlink" x="0px" y="0px"
	 viewBox="0 0 512 512" style="enable-background:new 0 0 512 512;" xml:space="preserve">
<g>
	<g>
		<path d="M183.777,328.509c-4.142,0-7.5,3.358-7.5,7.5v13.071c0,4.142,3.358,7.5,7.5,7.5c4.142,0,7.5-3.358,7.5-7.5v-13.071
			C191.277,331.867,187.919,328.509,183.777,328.509z"/>
	</g>
</g>
<g>
	<g>
		<path d="M328.224,328.509c-4.143,0-7.5,3.358-7.5,7.5v13.071c0,4.142,3.357,7.5,7.5,7.5s7.5-3.358,7.5-7.5v-13.071
			C335.724,331.867,332.367,328.509,328.224,328.509z"/>
	</g>
</g>
<g>
	<g>
		<path d="M278.761,342.524c-3.12-2.725-7.858-2.407-10.583,0.712c-2.956,3.382-7.395,5.322-12.178,5.322s-9.222-1.94-12.179-5.323
			c-2.726-3.12-7.465-3.437-10.583-0.711c-3.119,2.726-3.438,7.464-0.711,10.583c5.806,6.642,14.361,10.451,23.473,10.451
			s17.668-3.81,23.473-10.451C282.199,349.988,281.88,345.25,278.761,342.524z"/>
	</g>
</g>
<g>
	<g>
		<path d="M82.016,243.87c-4.142,0-7.5,3.358-7.5,7.5v6.936c0,4.142,3.358,7.5,7.5,7.5c4.142,0,7.5-3.358,7.5-7.5v-6.936
			C89.516,247.228,86.158,243.87,82.016,243.87z"/>
	</g>
</g>
<g>
	<g>
		<path d="M158.668,243.869c-4.142,0-7.5,3.358-7.5,7.5v6.936c0,4.142,3.358,7.5,7.5,7.5c4.142,0,7.5-3.358,7.5-7.5v-6.936
			C166.168,247.228,162.81,243.869,158.668,243.869z"/>
	</g>
</g>
<g>
	<g>
		<path d="M134.738,252.176c-3.119-2.727-7.856-2.409-10.583,0.71c-0.901,1.03-2.291,1.621-3.813,1.621
			c-1.522,0-2.912-0.591-3.813-1.621c-2.727-3.119-7.464-3.438-10.583-0.71c-3.119,2.726-3.437,7.464-0.71,10.583
			c3.749,4.289,9.255,6.749,15.106,6.749c5.851,0,11.357-2.46,15.106-6.749C138.174,259.641,137.856,254.902,134.738,252.176z"/>
	</g>
</g>
<g>
	<g>
		<path d="M429.984,243.869c-4.143,0-7.5,3.358-7.5,7.5v6.936c0,4.142,3.358,7.5,7.5,7.5c4.143,0,7.5-3.358,7.5-7.5v-6.936
			C437.484,247.228,434.127,243.869,429.984,243.869z"/>
	</g>
</g>
<g>
	<g>
		<path d="M353.332,243.869c-4.143,0-7.5,3.358-7.5,7.5v6.936c0,4.142,3.357,7.5,7.5,7.5s7.5-3.358,7.5-7.5v-6.936
			C360.832,247.228,357.475,243.869,353.332,243.869z"/>
	</g>
</g>
<g>
	<g>
		<path d="M406.052,252.176c-3.119-2.726-7.855-2.408-10.582,0.711c-0.899,1.03-2.289,1.621-3.812,1.621s-2.913-0.591-3.813-1.622
			c-2.728-3.119-7.465-3.436-10.583-0.709c-3.118,2.727-3.437,7.464-0.71,10.583c3.75,4.289,9.256,6.749,15.106,6.749
			c5.852,0,11.357-2.46,15.106-6.75C409.49,259.641,409.171,254.902,406.052,252.176z"/>
	</g>
</g>
<g>
	<g>
		<path d="M183.777,37.292c-26.438,0-47.946,21.509-47.946,47.946s21.509,47.946,47.946,47.946
			c26.437,0,47.946-21.508,47.946-47.946S210.215,37.292,183.777,37.292z M183.777,118.184c-18.167,0-32.946-14.779-32.946-32.946
			s14.78-32.946,32.946-32.946c18.166,0,32.946,14.78,32.946,32.946S201.943,118.184,183.777,118.184z"/>
	</g>
</g>
<g>
	<g>
		<path d="M183.777,7.038c-4.142,0-7.5,3.358-7.5,7.5v9.869c0,4.142,3.358,7.5,7.5,7.5c4.142,0,7.5-3.358,7.5-7.5v-9.869
			C191.277,10.396,187.919,7.038,183.777,7.038z"/>
	</g>
</g>
<g>
	<g>
		<path d="M239.072,29.943c-2.929-2.929-7.678-2.929-10.606,0l-6.978,6.978c-2.929,2.929-2.929,7.678,0,10.606
			c1.464,1.464,3.384,2.197,5.303,2.197c1.919,0,3.838-0.732,5.303-2.197l6.978-6.978C242.001,37.62,242.001,32.871,239.072,29.943z
			"/>
	</g>
</g>
<g>
	<g>
		<path d="M254.476,77.738h-9.869c-4.142,0-7.5,3.358-7.5,7.5c0,4.142,3.358,7.5,7.5,7.5h9.869c4.142,0,7.5-3.358,7.5-7.5
			C261.976,81.095,258.619,77.738,254.476,77.738z"/>
	</g>
</g>
<g>
	<g>
		<path d="M239.072,129.928l-6.978-6.979c-2.93-2.929-7.678-2.928-10.607,0c-2.929,2.929-2.929,7.678,0,10.607l6.978,6.978
			c1.465,1.464,3.384,2.197,5.304,2.197c1.919,0,3.839-0.732,5.303-2.196C242.001,137.605,242.001,132.857,239.072,129.928z"/>
	</g>
</g>
<g>
	<g>
		<path d="M183.777,138.569c-4.142,0-7.5,3.358-7.5,7.5v9.869c0,4.142,3.358,7.5,7.5,7.5c4.142,0,7.5-3.358,7.5-7.5v-9.869
			C191.277,141.926,187.919,138.569,183.777,138.569z"/>
	</g>
</g>
<g>
	<g>
		<path d="M146.067,122.947c-2.93-2.929-7.677-2.928-10.607,0l-6.978,6.979c-2.929,2.929-2.928,7.678,0,10.607
			c1.464,1.466,3.383,2.197,5.303,2.197c1.919,0,3.839-0.732,5.304-2.197l6.978-6.979
			C148.996,130.624,148.995,125.876,146.067,122.947z"/>
	</g>
</g>
<g>
	<g>
		<path d="M122.946,77.738h-9.869c-4.142,0-7.5,3.358-7.5,7.5c0,4.142,3.358,7.5,7.5,7.5h9.869c4.142,0,7.5-3.358,7.5-7.5
			C130.446,81.095,127.088,77.738,122.946,77.738z"/>
	</g>
</g>
<g>
	<g>
		<path d="M146.065,36.921l-6.978-6.978c-2.929-2.929-7.678-2.929-10.606,0c-2.929,2.929-2.929,7.678,0,10.606l6.978,6.978
			c1.464,1.464,3.384,2.197,5.303,2.197c1.919,0,3.839-0.732,5.303-2.197C148.994,44.598,148.994,39.849,146.065,36.921z"/>
	</g>
</g>
<g>
	<g>
		<path d="M511.988,298.4c-0.076-1.712-0.762-3.542-1.979-4.759l-69.694-75.435c-2.813-3.042-7.557-3.231-10.599-0.419
			c-3.042,2.811-3.229,7.556-0.419,10.598l58.063,62.846H355.027l-29.536-31.968l65.934-71.365c0.03-0.033,0.095-0.102,0.232-0.102
			c0.139,0,0.203,0.068,0.232,0.101l17.203,18.62c2.811,3.042,7.556,3.23,10.599,0.419c3.042-2.811,3.229-7.556,0.419-10.598
			l-17.204-18.621c-2.89-3.127-6.99-4.921-11.249-4.921c-4.258,0-8.358,1.793-11.249,4.922l-65.128,70.492l-42.954-46.492
			c-4.194-4.54-10.146-7.144-16.327-7.144c-6.181,0-12.131,2.604-16.326,7.144l-42.953,46.492l-65.129-70.493
			c-2.89-3.128-6.99-4.921-11.249-4.921c-4.259,0-8.359,1.793-11.25,4.922c0,0-107.093,115.914-107.102,115.923
			C0.729,295.007,0,296.868,0,298.73v198.732c0,4.142,3.358,7.5,7.5,7.5h497c4.143,0,7.5-3.358,7.5-7.5c0,0,0-198.719,0-198.732
			C512,298.621,511.992,298.511,511.988,298.4z M120.11,187.897c0.03-0.033,0.094-0.101,0.232-0.101s0.202,0.068,0.231,0.101
			l65.935,71.366l-29.536,31.968H24.64L120.11,187.897z M497,489.962H15V306.23h128.115l-51.577,55.825
			c-0.703,0.76-1.218,1.627-1.548,2.544c-0.99,2.75-0.314,5.946,1.967,8.054c1.521,1.405,3.469,2.061,5.387,1.985
			c0.479-0.019,0.957-0.084,1.426-0.194c0.234-0.055,0.466-0.121,0.696-0.199c0.458-0.156,0.904-0.356,1.33-0.602
			c0.639-0.369,1.234-0.839,1.761-1.41l148.136-160.337c1.384-1.498,3.269-2.323,5.308-2.323c2.04,0,3.925,0.825,5.309,2.323
			l190.194,205.86H60.497l21.94-23.748c2.811-3.042,2.623-7.787-0.419-10.598c-3.042-2.811-7.788-2.624-10.598,0.419l-33.572,36.337
			c-2.022,2.188-2.557,5.366-1.362,8.096c1.194,2.73,3.892,4.494,6.871,4.494h425.287c2.979,0,5.677-1.764,6.871-4.494
			c1.194-2.729,0.659-5.907-1.362-8.096L368.886,306.23H497V489.962z"/>
	</g>
</g>
<g>
</g>
<g>
</g>
<g>
</g>
<g>
</g>
<g>
</g>
<g>
</g>
<g>
</g>
<g>
</g>
<g>
</g>
<g>
</g>
<g>
</g>
<g>
</g>
<g>
</g>
<g>
</g>
<g>
</g>
</svg>
