<?xml version="1.0" encoding="iso-8859-1"?>
<!-- Generator: Adobe Illustrator 19.0.0, SVG Export Plug-In . SVG Version: 6.00 Build 0)  -->
<svg version="1.1" id="Capa_1" xmlns="http://www.w3.org/2000/svg" xmlns:xlink="http://www.w3.org/1999/xlink" x="0px" y="0px"
	 viewBox="0 0 512 512" style="enable-background:new 0 0 512 512;" xml:space="preserve">
<g>
	<g>
		<path d="M256.001,179.144c-42.378,0-76.856,34.477-76.856,76.856c0,42.379,34.478,76.856,76.856,76.856
			c42.379,0,76.856-34.478,76.856-76.856C332.857,213.622,298.379,179.144,256.001,179.144z M256.001,317.856
			c-34.107,0-61.856-27.748-61.856-61.856c0-34.108,27.749-61.856,61.856-61.856c34.108,0,61.856,27.749,61.856,61.856
			S290.108,317.856,256.001,317.856z"/>
	</g>
</g>
<g>
	<g>
		<path d="M215.741,242.912c-4.142,0-7.5,3.358-7.5,7.5v7.287c0,4.142,3.358,7.5,7.5,7.5c4.142,0,7.5-3.358,7.5-7.5v-7.287
			C223.241,246.27,219.883,242.912,215.741,242.912z"/>
	</g>
</g>
<g>
	<g>
		<path d="M296.262,242.912c-4.142,0-7.5,3.358-7.5,7.5v7.287c0,4.142,3.358,7.5,7.5,7.5c4.142,0,7.5-3.358,7.5-7.5v-7.287
			C303.762,246.27,300.404,242.912,296.262,242.912z"/>
	</g>
</g>
<g>
	<g>
		<path d="M270.874,251.544c-3.119-2.726-7.857-2.408-10.583,0.711c-1.018,1.164-2.582,1.832-4.29,1.832
			c-1.708,0-3.272-0.668-4.291-1.833c-2.727-3.119-7.465-3.436-10.583-0.71c-3.119,2.726-3.437,7.464-0.71,10.583
			c3.868,4.424,9.548,6.961,15.584,6.961c6.038,0,11.718-2.537,15.584-6.961C274.311,259.008,273.993,254.27,270.874,251.544z"/>
	</g>
</g>
<g>
	<g>
		<path d="M391.225,120.889c-0.019-0.019-0.035-0.041-0.054-0.06c-0.019-0.019-0.04-0.035-0.06-0.054
			c-34.625-34.596-82.412-56.022-135.11-56.022c-105.444,0-191.231,85.779-191.245,191.22c0.001,0.01-0.001,0.018-0.001,0.027
			c0,0.009,0.001,0.017,0.001,0.026c0.007,52.686,21.429,100.461,56.018,135.081c0.02,0.021,0.037,0.043,0.057,0.063
			c0.02,0.02,0.043,0.037,0.063,0.057c14.929,14.916,32.309,27.377,51.471,36.734c0.008,0.004,0.016,0.009,0.024,0.013
			c0.015,0.007,0.031,0.014,0.046,0.022c25.261,12.323,53.619,19.249,83.566,19.249c29.948,0,58.306-6.926,83.567-19.25
			c0.015-0.007,0.03-0.014,0.045-0.021c0.008-0.004,0.015-0.009,0.024-0.013c19.142-9.347,36.505-21.792,51.424-36.688
			c0.037-0.035,0.077-0.066,0.113-0.102c0.036-0.036,0.067-0.076,0.102-0.113c34.567-34.621,55.971-82.387,55.971-135.059
			C447.247,203.301,425.822,155.514,391.225,120.889z M432.077,248.5h-64.809c-1.676-25.116-11.7-47.982-27.321-65.839
			l45.806-45.806C413.024,166.531,430.269,205.551,432.077,248.5z M263.501,79.925c42.949,1.808,81.969,19.052,111.645,46.324
			l-45.806,45.806c-17.857-15.621-40.723-25.645-65.839-27.321V79.925z M248.501,79.925v64.809
			c-25.116,1.676-47.982,11.7-65.839,27.321l-45.806-45.806C166.532,98.977,205.552,81.733,248.501,79.925z M126.25,136.855
			l45.806,45.806c-15.621,17.857-25.645,40.723-27.321,65.839H79.927C81.734,205.552,98.979,166.531,126.25,136.855z M79.927,263.5
			h64.808c1.676,25.116,11.7,47.982,27.321,65.839l-45.806,45.806C98.979,345.469,81.734,306.449,79.927,263.5z M171.518,410.637
			c-12.56-6.888-24.191-15.264-34.661-24.886l45.806-45.806c3.533,3.091,7.26,5.965,11.165,8.596L171.518,410.637z M185.24,417.399
			c-0.062-0.028-0.123-0.054-0.184-0.081l21.956-61.108c7.354,3.608,15.045,6.373,23.003,8.27l-21.961,61.125
			C200.273,423.402,192.64,420.654,185.24,417.399z M248.502,432.075c-8.766-0.369-17.367-1.382-25.76-2.991l22.311-62.098
			c1.144,0.112,2.295,0.203,3.449,0.28V432.075z M224.878,347.374c-37.995-12.977-65.394-49.027-65.4-91.389
			c0.008-53.217,43.305-96.509,96.524-96.509c53.224,0,96.524,43.3,96.524,96.524c0,42.342-27.405,78.401-65.408,91.377
			c-9.996,3.404-20.556,5.147-31.116,5.147C245.457,352.524,234.86,350.781,224.878,347.374z M263.501,432.075v-64.809
			c1.154-0.077,2.305-0.168,3.449-0.28l22.311,62.098C280.868,430.694,272.267,431.706,263.501,432.075z M326.767,417.397
			c-7.401,3.255-15.033,6.003-22.816,8.207l-21.961-61.125c7.958-1.896,15.649-4.661,23.003-8.27l21.955,61.108
			C326.887,417.344,326.827,417.371,326.767,417.397z M340.486,410.638l-22.31-62.096c3.904-2.632,7.631-5.506,11.165-8.596
			l45.806,45.806C364.676,395.373,353.045,403.749,340.486,410.638z M385.753,375.145l-45.806-45.806
			c15.621-17.857,25.645-40.723,27.321-65.839h64.809C430.269,306.449,413.024,345.469,385.753,375.145z"/>
	</g>
</g>
<g>
	<g>
		<path d="M511.998,257.379c0.047-8.764-3.321-17.021-9.485-23.252c-4.923-4.977-11.16-8.177-17.934-9.291
			c-1.171-8.633-2.816-17.117-4.918-25.422c5.861-3.567,10.444-8.864,13.146-15.315c3.387-8.083,3.423-17.001,0.102-25.111
			c-6.015-14.691-22.428-23.158-37.877-19.504c-4.375-7.445-9.143-14.632-14.299-21.514c4.084-5.561,6.303-12.246,6.323-19.278
			c0.023-8.764-3.367-17.013-9.547-23.226c-11.231-11.292-29.601-12.816-42.496-3.446c-6.853-5.191-14.006-10.005-21.424-14.418
			c1.629-6.696,1.111-13.712-1.568-20.205c-3.343-8.102-9.641-14.416-17.733-17.781c-14.7-6.112-32.13-0.516-40.487,13.024
			c-8.297-2.149-16.779-3.831-25.408-5.049C285.886,11.974,272.318,0,256.001,0c-16.317,0-29.885,11.974-32.391,27.595
			c-8.629,1.218-17.11,2.9-25.408,5.048c-5.913-9.581-16.375-15.545-27.9-15.545c-4.329,0-8.563,0.848-12.586,2.521
			c-15.088,6.274-23.022,22.578-19.299,37.985c-7.241,4.308-14.231,8.993-20.934,14.042c-5.573-4.072-12.266-6.275-19.3-6.275
			c-8.764,0-17.003,3.413-23.2,9.61c-11.26,11.26-12.737,29.631-3.335,42.5c-5.298,7.033-10.196,14.382-14.676,22.006
			c-2.454-0.58-4.963-0.88-7.505-0.88c-13.38,0-25.302,8.001-30.373,20.384c-6.011,14.681-0.293,32.185,13.248,40.426
			c-2.002,7.91-3.587,15.983-4.745,24.192C11.976,226.115,0.001,239.683,0.001,256s11.975,29.885,27.596,32.391
			c1.276,9.044,3.074,17.922,5.372,26.6c-5.824,3.63-10.35,8.977-12.983,15.457c-3.299,8.119-3.239,17.037,0.169,25.111
			c6.171,14.618,22.681,22.917,38.085,19.097c4.131,6.86,8.607,13.49,13.408,19.863c-4.072,5.573-6.275,12.267-6.275,19.3
			c0,8.764,3.413,17.003,9.61,23.2c6.197,6.197,14.436,9.61,23.2,9.61c7.035,0,13.729-2.204,19.301-6.275
			c11.087,8.351,22.95,15.719,35.456,21.991l-13.256,36.894c-0.826,2.298-0.481,4.854,0.923,6.851
			c1.405,1.997,3.693,3.186,6.135,3.186h41.913c3.165,0,5.988-1.986,7.058-4.964l8.443-23.498
			c6.387,1.472,12.879,2.663,19.454,3.591C226.117,500.026,239.685,512,256.001,512c16.316,0,29.885-11.974,32.391-27.595
			c6.576-0.928,13.068-2.119,19.455-3.592l8.442,23.498c1.07,2.978,3.894,4.964,7.058,4.964h41.914c2.441,0,4.73-1.188,6.135-3.186
			c1.404-1.997,1.749-4.553,0.923-6.85l-13.256-36.895c11.945-5.99,23.302-12.983,33.958-20.875
			c5.612,4.173,12.383,6.431,19.52,6.431c26.1,0.001,41.933-30.684,26.681-51.905c5.228-6.826,10.089-13.947,14.542-21.341
			c2.561,0.635,5.184,0.961,7.848,0.961c13.225,0,25.093-7.873,30.236-20.057c6.179-14.638,0.665-32.168-12.814-40.569
			c2.193-8.284,3.935-16.748,5.199-25.367C499.854,287.192,511.91,273.66,511.998,257.379z M486.188,240.816
			c2.093,0.895,4.013,2.195,5.662,3.862c3.346,3.382,5.174,7.865,5.148,12.622c-0.04,7.351-4.573,13.67-10.976,16.347
			c0.446-5.868,0.669-11.763,0.669-17.648C486.691,251.43,486.22,241.31,486.188,240.816z M25.544,266.052
			c0.092,2.129,0.209,4.25,0.359,6.364c-6.399-2.703-10.901-9.043-10.901-16.415s4.502-13.713,10.901-16.416
			c-0.149,2.113-0.267,4.235-0.359,6.364C25.248,252.65,25.255,259.351,25.544,266.052z M414.246,80.797
			c12.479,0,21.256,13.174,16.439,24.69c-1.714-1.986-3.467-3.937-5.247-5.863c-5.675-6.144-11.682-11.993-17.986-17.49
			C409.579,81.257,411.878,80.797,414.246,80.797z M341.701,32.098c9.691,0,17.763,8.106,17.8,17.774
			c-3.614-1.822-7.283-3.549-11.002-5.183c-6.318-2.777-12.766-5.278-19.309-7.473C332.456,33.994,336.91,32.098,341.701,32.098z
			 M256.001,15c7.372,0,13.712,4.502,16.415,10.901c-2.135-0.151-4.278-0.269-6.429-0.361c-6.655-0.291-13.314-0.282-19.97,0
			c-2.151,0.092-4.296,0.21-6.432,0.361C242.289,19.502,248.63,15,256.001,15z M153.849,43.122c1.815-4.398,5.233-7.826,9.626-9.652
			c6.547-2.722,14.288-1.238,19.34,3.746c-1.071,0.359-2.135,0.735-3.2,1.109c-9.18,3.23-18.357,7.132-27.122,11.552
			C152.498,47.589,152.949,45.301,153.849,43.122z M85.589,85.587c5.035-5.035,12.845-6.595,19.425-3.864
			c-6.305,5.47-12.315,11.3-17.996,17.415c-1.794,1.931-3.565,3.882-5.293,5.874c-0.887-2.136-1.352-4.448-1.352-6.831
			C80.373,93.424,82.226,88.951,85.589,85.587z M32.976,164.674c2.734-6.677,9.137-11.007,16.341-11.067
			c-2.348,4.722-4.532,9.529-6.55,14.401c-2.175,5.252-4.162,10.586-5.943,15.984c-1.601-1.609-2.89-3.529-3.793-5.686
			C31.193,173.918,31.173,169.077,32.976,164.674z M50.393,360.617c-7.182,0-13.626-4.275-16.419-10.891
			c-2.746-6.505-1.284-14.299,3.641-19.357c2.658,7.783,5.731,15.375,9.173,22.761c0.033,0.071,2.416,5.088,3.642,7.487
			C50.418,360.617,50.406,360.617,50.393,360.617z M98.183,431.629c-12.373,0-21.192-13.231-16.458-24.642
			c5.466,6.301,11.294,12.309,17.405,17.986c1.935,1.797,3.89,3.572,5.885,5.303C102.877,431.164,100.565,431.629,98.183,431.629z
			 M183.38,494.275h-25.974l9.203-25.614c5.603,2.364,11.323,4.503,17.14,6.426c0.041,0.015,3.939,1.275,5.86,1.854L183.38,494.275z
			 M256.001,497c-7.372,0-13.712-4.502-16.415-10.901c2.126,0.15,4.26,0.268,6.401,0.36c8.807,0.378,17.636,0.261,26.429-0.36
			C269.713,492.498,263.373,497,256.001,497z M328.622,494.276l-6.228-17.334c0.091-0.028,0.182-0.059,0.273-0.086
			c7.71-2.334,15.304-5.061,22.726-8.193l9.204,25.613H328.622z M412.539,432.901c-2.436,0-4.794-0.484-6.967-1.407
			c0.134-0.115,0.262-0.236,0.396-0.351c8.136-6.986,15.793-14.524,22.893-22.561c0.062-0.067,0.125-0.132,0.185-0.2
			c0.873,2.147,1.321,4.466,1.301,6.853C430.268,424.888,422.186,432.901,412.539,432.901z M423.676,391.507
			c-0.013,0.016-0.029,0.031-0.042,0.047c-35.474,43.605-87.28,72.412-143.209,78.745c-16.21,1.835-32.638,1.834-48.849,0
			c-56.072-6.346-108.989-35.798-144.302-80.103c-0.015-0.019-0.033-0.036-0.048-0.055
			c-45.867-56.784-58.708-135.252-34.759-203.999c17.219-49.43,51.985-92.502,98.746-118.605
			c62.522-34.901,141.194-35.967,204.888-2.54c62.683,32.896,106.747,97.348,114.332,167.736
			C476.524,289.253,459.445,347.333,423.676,391.507z M461.611,360.616c-0.012,0-0.025,0-0.038,0
			c1.224-2.396,3.61-7.418,3.646-7.495c3.441-7.384,6.513-14.972,9.17-22.753c1.583,1.627,2.852,3.561,3.733,5.727
			C482.817,347.651,474.025,360.617,461.611,360.616z M475.179,183.993c-1.622-4.918-3.417-9.78-5.367-14.578
			c-2.093-5.151-7.027-15.609-7.125-15.807c7.204,0.06,13.607,4.39,16.341,11.067C481.704,171.209,480.156,178.989,475.179,183.993z
			"/>
	</g>
</g>
<g>
</g>
<g>
</g>
<g>
</g>
<g>
</g>
<g>
</g>
<g>
</g>
<g>
</g>
<g>
</g>
<g>
</g>
<g>
</g>
<g>
</g>
<g>
</g>
<g>
</g>
<g>
</g>
<g>
</g>
</svg>
