<?xml version="1.0" encoding="iso-8859-1"?>
<!-- Generator: Adobe Illustrator 19.0.0, SVG Export Plug-In . SVG Version: 6.00 Build 0)  -->
<svg version="1.1" id="Capa_1" xmlns="http://www.w3.org/2000/svg" xmlns:xlink="http://www.w3.org/1999/xlink" x="0px" y="0px"
	 viewBox="0 0 512 512" style="enable-background:new 0 0 512 512;" xml:space="preserve">
<g>
	<g>
		<path d="M141.708,352.63c-3.879-1.453-8.201,0.517-9.652,4.396l-2.932,7.836c-1.452,3.879,0.517,8.201,4.397,9.653
			c3.832,1.435,8.217-0.561,9.652-4.397l2.932-7.836C147.557,358.402,145.588,354.081,141.708,352.63z"/>
	</g>
</g>
<g>
	<g>
		<path d="M228.302,385.028c-3.88-1.452-8.202,0.516-9.653,4.396l-2.932,7.836c-1.452,3.879,0.517,8.201,4.396,9.653
			c3.83,1.433,8.217-0.56,9.652-4.396l2.932-7.836C234.15,390.802,232.182,386.48,228.302,385.028z"/>
	</g>
</g>
<g>
	<g>
		<path d="M196.936,383.584c-1.964-3.646-6.513-5.007-10.159-3.043c-1.847,0.995-4.131,1.106-6.268,0.307
			c-2.138-0.8-3.788-2.384-4.528-4.346c-1.46-3.876-5.787-5.835-9.663-4.374c-3.876,1.46-5.834,5.787-4.374,9.663
			c2.266,6.013,7.116,10.79,13.307,13.106c6.049,2.263,12.936,1.924,18.642-1.152C197.539,391.779,198.902,387.23,196.936,383.584z"
			/>
	</g>
</g>
<g>
	<g>
		<path d="M131.399,67.444c-6.748-14.957-21.866-24.977-38.6-24.977c-17.193,0-32.381,10.39-38.919,25.683
			c-2.144-0.508-4.35-0.768-6.581-0.768c-15.732,0-28.532,12.799-28.532,28.532c0,15.733,12.799,28.532,28.532,28.532h82.209
			c15.732,0,28.532-12.799,28.532-28.532C158.04,80.817,146.253,68.421,131.399,67.444z M129.509,109.446h-82.21
			c-7.461,0-13.532-6.07-13.532-13.532c0-7.462,6.07-13.532,13.532-13.532c2.584,0,5.098,0.734,7.271,2.123
			c2.095,1.34,4.718,1.553,7.003,0.572c2.285-0.982,3.934-3.034,4.403-5.476C68.439,66.775,79.72,57.467,92.8,57.467
			c12.105,0,22.899,8.119,26.249,19.743c1.046,3.629,4.629,5.917,8.356,5.334c0.694-0.107,1.402-0.162,2.104-0.162
			c7.461,0,13.532,6.07,13.532,13.532C143.041,103.376,136.971,109.446,129.509,109.446z"/>
	</g>
</g>
<g>
	<g>
		<path d="M504.5,414.194h-54.511c-4.142,0-7.5,3.358-7.5,7.5c0,4.142,3.358,7.5,7.5,7.5H497v63.68H15v-63.68h405.064
			c4.142,0,7.5-3.358,7.5-7.5c0-4.142-3.358-7.5-7.5-7.5H309.269l5.164-13.801c0.483,0.028,0.964,0.065,1.45,0.065
			c10.514,0,20.054-6.618,23.74-16.467c3.982-10.644,0.318-22.309-8.228-28.929l18.183-48.597c0.483,0.028,0.964,0.065,1.45,0.065
			c10.514,0,20.055-6.618,23.74-16.468c0.579-1.548,1-3.128,1.269-4.722h84.318c19.101,0,34.64-15.54,34.64-34.641
			c0-18.772-15.008-34.104-33.656-34.626c-8.075-19.205-27.169-32.165-48.355-32.165c-0.556,0-1.113,0.028-1.669,0.046
			c-0.326-2.46-1.018-4.885-2.075-7.207c-1.736-3.812-4.33-7.06-7.555-9.547l15.024-40.154c0.475,0.027,0.951,0.063,1.424,0.063
			c10.271-0.001,19.959-6.292,23.765-16.464c4.897-13.088-1.767-27.721-14.855-32.619L293.386,28.02
			c-3.879-1.453-8.201,0.516-9.653,4.396s0.517,8.201,4.396,9.653c0,0,133.478,49.941,133.653,50.006
			c5.286,1.978,8.045,8.019,6.064,13.313c-2,5.342-7.971,8.063-13.313,6.064c0,0-193.009-72.215-193.318-72.331
			c-5.261-1.967-8.027-8.06-6.062-13.312c1.972-5.272,8.042-8.036,13.313-6.064l31.823,11.907c3.878,1.451,8.201-0.517,9.653-4.396
			c1.452-3.88-0.517-8.201-4.396-9.653c0,0-31.807-11.901-31.823-11.907c-12.952-4.846-27.786,1.939-32.619,14.855
			c-3.84,10.263-0.445,22.243,8.227,28.934l-15.023,40.153c-0.483-0.028-0.964-0.065-1.449-0.065
			c-10.514,0-20.054,6.618-23.74,16.467c-3.843,10.271-0.456,22.234,8.227,28.934l-18.181,48.592
			c-0.483-0.028-0.964-0.065-1.45-0.065c-10.514,0-20.054,6.618-23.74,16.467c-3.839,10.259-0.445,22.243,8.227,28.934
			l-18.181,48.592c-0.483-0.028-0.964-0.065-1.449-0.065c-10.515,0-20.055,6.618-23.74,16.468
			c-2.373,6.34-2.134,13.225,0.672,19.386c1.736,3.812,4.33,7.06,7.554,9.547l-34.183,91.362H7.5c-4.142,0-7.5,3.358-7.5,7.5v78.68
			c0,4.142,3.358,7.5,7.5,7.5h497c4.142,0,7.5-3.358,7.5-7.5v-78.68C512,417.552,508.642,414.194,504.5,414.194z M406.622,202.185
			c0.678-0.922,1.353-1.97,1.911-3.011c1.477-0.176,2.963-0.265,4.447-0.265c16.587,0,31.376,11.124,35.966,27.052
			c1.045,3.628,4.63,5.916,8.357,5.334c11.732-1.821,22.688,7.515,22.688,19.405c0,10.83-8.811,19.641-19.64,19.641h-86.418
			c-0.279-0.596-0.589-1.174-0.912-1.743c-1.617-2.849-3.861-5.458-6.48-7.476l18.174-48.574c0.241,0.014,0.483,0.014,0.725,0.021
			C393.69,212.811,401.737,208.827,406.622,202.185z M222.983,55.799l153.442,57.41l25.826,9.663l-14.223,38.015l-7.661-2.866
			l1.739-4.649c4.863-12.998-1.755-27.528-14.753-32.391c-12.827-4.799-27.592,1.928-32.391,14.752l-1.739,4.649l-11.258-4.212
			c0,0,1.739-4.647,1.739-4.648c4.813-12.863-1.922-27.59-14.752-32.391c-12.826-4.799-27.593,1.927-32.391,14.751l-1.74,4.649
			l-11.258-4.212l1.739-4.649c4.862-12.997-1.755-27.527-14.752-32.39c-12.829-4.801-27.594,1.931-32.391,14.752l-1.739,4.648
			l-7.662-2.867L222.983,55.799z M368.058,148.115l-1.739,4.649l-19.045-7.126c0,0,1.738-4.644,1.739-4.648
			c1.932-5.165,7.93-7.888,13.086-5.96C367.349,136.994,370.022,142.864,368.058,148.115z M309.656,126.264l-1.739,4.649
			l-19.045-7.126c0,0,1.738-4.646,1.739-4.649c1.934-5.17,7.928-7.889,13.085-5.959
			C308.886,115.121,311.601,121.068,309.656,126.264z M251.255,104.413l-1.739,4.649l-19.045-7.125c0,0,1.738-4.644,1.739-4.648
			c1.935-5.17,7.925-7.892,13.085-5.96C250.546,93.293,253.22,99.163,251.255,104.413z M183.167,111.298
			c1.961-5.241,8.077-8.023,13.313-6.063c0,0,193.308,72.326,193.316,72.33c5.329,1.994,7.891,7.966,6.064,13.313
			c-1.813,5.305-8.158,7.992-13.313,6.063c0,0-193.236-72.299-193.317-72.33C183.96,122.639,181.193,116.572,183.167,111.298z
			 M190.998,141.287l179.268,67.074l-17.38,46.454l-7.662-2.867l1.739-4.649c4.863-12.998-1.755-27.528-14.752-32.39
			c-12.823-4.797-27.592,1.926-32.391,14.751l-1.739,4.649l-11.258-4.212l1.739-4.648c4.863-12.997-1.755-27.527-14.752-32.391
			c-12.824-4.799-27.593,1.928-32.391,14.752l-1.739,4.649l-11.258-4.212l1.739-4.649c4.863-12.997-1.755-27.527-14.752-32.391
			c-12.825-4.799-27.592,1.927-32.391,14.752l-1.739,4.648l-7.661-2.866L190.998,141.287z M332.914,242.044l-1.739,4.649
			l-19.045-7.126c0,0,1.736-4.641,1.739-4.648c1.934-5.171,7.93-7.889,13.086-5.959
			C332.205,230.923,334.878,236.793,332.914,242.044z M274.513,220.193l-1.739,4.648l-19.045-7.126c0,0,1.737-4.643,1.739-4.649
			c1.936-5.175,7.923-7.892,13.085-5.959C273.804,209.072,276.477,214.942,274.513,220.193z M216.111,198.342l-1.739,4.649
			l-18.926-7.081l-0.119-0.045c0,0,1.737-4.643,1.739-4.648c1.936-5.175,7.922-7.891,13.085-5.96
			C215.402,187.222,218.075,193.092,216.111,198.342z M148.023,205.226c1.965-5.251,8.069-8.026,13.313-6.063
			c0,0,193.29,72.32,193.319,72.331c5.246,1.932,8.013,8.097,6.062,13.312c-1.967,5.255-8.063,8.029-13.313,6.064
			c0,0-193.22-72.294-193.317-72.33C148.809,216.565,146.046,210.51,148.023,205.226z M155.853,235.216l179.269,67.074
			l-17.38,46.454l-7.662-2.867l1.739-4.649c4.862-12.997-1.755-27.527-14.752-32.39c-12.826-4.8-27.593,1.928-32.391,14.752
			l-1.739,4.648l-11.258-4.212l1.739-4.648c4.863-12.997-1.754-27.528-14.752-32.391c-12.825-4.799-27.593,1.927-32.391,14.752
			l-1.739,4.649l-11.258-4.212c0,0,1.739-4.647,1.739-4.649c4.812-12.86-1.926-27.592-14.752-32.391
			c-12.824-4.798-27.592,1.926-32.391,14.751l-1.74,4.649l-7.661-2.866L155.853,235.216z M297.771,335.972l-1.739,4.649
			l-19.045-7.126c0,0,1.737-4.642,1.739-4.648c1.938-5.18,7.92-7.894,13.085-5.96C297.061,324.851,299.735,330.721,297.771,335.972z
			 M239.368,314.122l-1.739,4.648l-19.044-7.126c0,0,1.737-4.642,1.739-4.649c1.935-5.172,7.927-7.889,13.085-5.959
			C238.66,303.001,241.333,308.871,239.368,314.122z M180.968,292.27l-1.739,4.649l-19.045-7.125c0,0,1.737-4.644,1.739-4.649
			c1.936-5.176,7.92-7.891,13.085-5.959C180.202,281.128,182.913,287.073,180.968,292.27z M112.879,299.155
			c1.972-5.269,8.059-8.029,13.313-6.063l193.317,72.33c5.342,1.999,8.062,7.971,6.064,13.313c-1.968,5.261-8.059,8.03-13.313,6.064
			c0,0-193.134-72.261-193.317-72.33C113.657,310.49,110.899,304.449,112.879,299.155z M120.711,329.145l179.268,67.073
			l-6.726,17.976H88.89L120.711,329.145z"/>
	</g>
</g>
<g>
</g>
<g>
</g>
<g>
</g>
<g>
</g>
<g>
</g>
<g>
</g>
<g>
</g>
<g>
</g>
<g>
</g>
<g>
</g>
<g>
</g>
<g>
</g>
<g>
</g>
<g>
</g>
<g>
</g>
</svg>
