<?xml version="1.0" encoding="iso-8859-1"?>
<!-- Generator: Adobe Illustrator 19.0.0, SVG Export Plug-In . SVG Version: 6.00 Build 0)  -->
<svg version="1.1" id="Capa_1" xmlns="http://www.w3.org/2000/svg" xmlns:xlink="http://www.w3.org/1999/xlink" x="0px" y="0px"
	 viewBox="0 0 511.999 511.999" style="enable-background:new 0 0 511.999 511.999;" xml:space="preserve">
<g>
	<g>
		<path d="M182.281,84.477c-4.143,0-7.5,3.358-7.5,7.5v13.343c0,4.142,3.358,7.5,7.5,7.5c4.143,0,7.5-3.358,7.5-7.5V91.977
			C189.781,87.835,186.424,84.477,182.281,84.477z"/>
	</g>
</g>
<g>
	<g>
		<path d="M329.735,84.477c-4.143,0-7.5,3.358-7.5,7.5v13.343c0,4.142,3.357,7.5,7.5,7.5s7.5-3.358,7.5-7.5V91.977
			C337.236,87.835,333.878,84.477,329.735,84.477z"/>
	</g>
</g>
<g>
	<g>
		<path d="M279.141,98.745c-3.117-2.726-7.856-2.409-10.583,0.711c-3.047,3.487-7.621,5.486-12.549,5.486s-9.502-2-12.549-5.486
			c-2.727-3.119-7.464-3.437-10.583-0.711c-3.119,2.726-3.438,7.464-0.712,10.583c5.897,6.745,14.588,10.615,23.845,10.615
			s17.948-3.869,23.845-10.615C282.579,106.209,282.26,101.472,279.141,98.745z"/>
	</g>
</g>
<g>
	<g>
		<path d="M511.371,232.811c1.658-3.737-0.087-8.245-3.813-9.898l-29.776-13.211c-3.747-1.664-8.152,0.029-9.869,3.751
			c-0.202,0.438-2.092,4.402-6.028,9.307l-18.027-23.432v-32.443c27.288-16.714,38.887-42.071,39.591-43.657
			c1.661-3.741-0.081-8.242-3.813-9.898l-29.776-13.211c-3.782-1.679-8.188-0.029-9.87,3.752c-0.137,0.297-1.051,2.216-2.844,4.944
			l-28.911-46.399V41.12c0-9.16-7.452-16.613-16.612-16.613H186.657c-4.143,0-7.5,3.358-7.5,7.5s3.357,7.5,7.5,7.5h204.964
			c0.889,0,1.611,0.723,1.611,1.612v15.939h-274.45V41.12c0-0.889,0.723-1.612,1.611-1.612h36.368c4.143,0,7.5-3.358,7.5-7.5
			s-3.357-7.5-7.5-7.5h-36.368c-9.159,0-16.612,7.452-16.612,16.613v21.295l-28.899,46.38c-1.844-2.795-2.781-4.767-2.921-5.069
			c-1.899-4.115-7.26-5.598-11.01-3.074c0,0-28.559,12.671-28.572,12.677c-3.733,1.657-5.472,6.16-3.813,9.898
			c0.704,1.585,12.302,26.943,39.591,43.657v32.443l-18.01,23.41c-3.987-4.964-5.904-8.986-6.108-9.428
			c-1.727-3.742-6.149-5.387-9.898-3.693c-0.395,0.178-0.766,0.387-1.113,0.621L4.458,222.913c-1.818,0.807-3.241,2.303-3.956,4.159
			c-0.716,1.856-0.664,3.92,0.143,5.739c0.708,1.596,12.465,27.319,40.186,44.027v109.088h-6.419
			c-13.331,0-24.178,10.846-24.178,24.178v69.887c0,4.142,3.357,7.5,7.5,7.5H494.28c4.143,0,7.5-3.358,7.5-7.5v-69.887
			c0-13.331-10.846-24.178-24.178-24.178h-6.419V276.838C498.905,260.131,510.662,234.408,511.371,232.811z M115.447,72.06h281.122
			l30.22,48.5c-6.295,5.476-15.262,10.824-27.299,12.638c-0.01,0.001-0.019,0.002-0.029,0.004c-2.915,0.429-5.857,0.645-8.803,0.645
			H121.358c-13.265,0-26.097-4.569-36.124-13.297L115.447,72.06z M45.851,123.764l16.248-7.209c1.85,2.815,4.414,6.28,7.755,9.884
			c13.221,14.263,32.067,22.409,51.504,22.409h269.299c19.416,0,37.853-7.811,51.162-21.959c0.76-0.808,8.075-10.343,8.092-10.336
			l16.254,7.212c-5.041,8.29-15.643,22.507-33.382,32.233c-0.012,0.007-0.025,0.011-0.037,0.017
			c-12.832,7.05-27.487,10.408-42.088,10.408c0,0-269.279,0-269.299,0C90.344,166.423,61.929,150.209,45.851,123.764z
			 M428.856,174.383v19.997H83.159c0,0,0-19.997,0.01-19.993c2.883,1.14,5.896,2.167,9.057,3.071
			c9.333,2.67,19.329,3.965,29.132,3.965h269.299C403.682,181.423,416.728,179.18,428.856,174.383z M94.971,451.136v21.355H25.235
			v-62.387c0-5.06,4.116-9.177,9.177-9.177h118.817v13.854h-18.264c-4.143,0-7.5,3.358-7.5,7.5v21.355h-24.994
			C98.328,443.635,94.971,446.994,94.971,451.136z M55.832,385.926V284.202c5.404,2.097,11.255,3.807,17.575,4.988v96.735H55.832z
			 M88.407,385.927v-95.035c0.18,0.008,4.126,0.115,5.03,0.115h34.029v94.92H88.407z M289.142,302.699h-66.268
			c-13.065,0-23.696,10.63-23.696,23.697v59.531h-24.136v-94.92h161.931v94.92h-24.136v-59.531
			C312.838,313.329,302.207,302.699,289.142,302.699z M297.837,326.396v59.531h-83.659v-59.531c0-4.795,3.9-8.696,8.695-8.696
			h66.268C293.937,317.7,297.837,321.601,297.837,326.396z M343.787,400.927v13.854H168.23v-13.854H343.787z M369.55,429.782v13.854
			H142.466v-13.854H369.55z M160.042,385.927h-17.576v-94.92h17.576V385.927z M402.045,472.491H109.972v-13.854h292.072V472.491z
			 M477.604,400.926c5.06,0.001,9.177,4.117,9.177,9.177v62.387h-69.736v-21.355c0-4.142-3.357-7.5-7.5-7.5h-24.994v-21.355
			c0-4.142-3.357-7.5-7.5-7.5h-18.264v-13.854H477.604z M351.974,385.927v-94.92h17.576v94.92H351.974z M384.549,385.927v-94.92
			h34.03c1.498,0,4.85-0.107,5.029-0.115v95.035H384.549z M438.61,385.927v-96.735c6.319-1.182,12.17-2.892,17.575-4.988v101.723
			H438.61z M460.189,265.869c-0.022,0.012-0.045,0.019-0.067,0.031c-12.712,6.853-27.141,10.106-41.543,10.106H93.437
			c-14.383,0-28.849-3.261-41.543-10.106c-0.022-0.012-0.045-0.019-0.067-0.031c-18.056-9.731-28.81-24.15-33.899-32.522
			l16.25-7.209c2.381,3.623,5.948,8.322,10.832,13.01c10.477,10.055,24.042,16.679,38.443,18.619
			c3.309,0.446,6.645,0.664,9.984,0.664h234.627c4.143,0,7.5-3.358,7.5-7.5s-3.357-7.5-7.5-7.5H93.437
			c-4.078,0-8.156-0.396-12.147-1.239c-0.017-0.004-0.035-0.007-0.053-0.011c-7.277-1.547-14.175-4.62-20.175-9.024l18.29-23.775
			h353.314l18.295,23.781c-2.745,2.012-5.68,3.73-8.749,5.152c-7.362,3.41-15.497,5.115-23.632,5.115h-60.577
			c-4.143,0-7.5,3.358-7.5,7.5c0,4.142,3.357,7.5,7.5,7.5h60.577c9.615,0,19.273-1.834,28.103-5.679
			c7.268-3.165,13.953-7.556,19.743-12.972c0.277-0.259,9.056-10.079,11.406-13.644l16.257,7.213
			C488.999,241.719,478.245,256.138,460.189,265.869z"/>
	</g>
</g>
<g>
</g>
<g>
</g>
<g>
</g>
<g>
</g>
<g>
</g>
<g>
</g>
<g>
</g>
<g>
</g>
<g>
</g>
<g>
</g>
<g>
</g>
<g>
</g>
<g>
</g>
<g>
</g>
<g>
</g>
</svg>
