<?xml version="1.0" encoding="iso-8859-1"?>
<!-- Generator: Adobe Illustrator 19.0.0, SVG Export Plug-In . SVG Version: 6.00 Build 0)  -->
<svg version="1.1" id="Capa_1" xmlns="http://www.w3.org/2000/svg" xmlns:xlink="http://www.w3.org/1999/xlink" x="0px" y="0px"
	 viewBox="0 0 512 512" style="enable-background:new 0 0 512 512;" xml:space="preserve">
<g>
	<g>
		<path d="M189.824,194.922c-4.143,0-7.5,3.358-7.5,7.5v12.872c0,4.142,3.358,7.5,7.5,7.5c4.143,0,7.5-3.358,7.5-7.5v-12.872
			C197.324,198.28,193.967,194.922,189.824,194.922z"/>
	</g>
</g>
<g>
	<g>
		<path d="M198.59,226.713h-17.531c-4.143,0-7.5,3.358-7.5,7.5c0,4.142,3.357,7.5,7.5,7.5h17.531c4.143,0,7.5-3.358,7.5-7.5
			C206.09,230.071,202.733,226.713,198.59,226.713z"/>
	</g>
</g>
<g>
	<g>
		<path d="M322.222,194.922c-4.143,0-7.5,3.358-7.5,7.5v12.872c0,4.142,3.357,7.5,7.5,7.5c4.143,0,7.5-3.358,7.5-7.5v-12.872
			C329.722,198.28,326.365,194.922,322.222,194.922z"/>
	</g>
</g>
<g>
	<g>
		<path d="M330.987,226.713h-17.531c-4.143,0-7.5,3.358-7.5,7.5c0,4.142,3.357,7.5,7.5,7.5h17.531c4.143,0,7.5-3.358,7.5-7.5
			C338.487,230.071,335.13,226.713,330.987,226.713z"/>
	</g>
</g>
<g>
	<g>
		<path d="M272.799,222.601c-3.12-2.727-7.857-2.409-10.583,0.71c-1.486,1.7-3.744,2.675-6.194,2.675
			c-2.45,0-4.707-0.975-6.192-2.674c-2.725-3.119-7.464-3.437-10.582-0.712c-3.119,2.725-3.438,7.463-0.713,10.583
			c4.333,4.959,10.707,7.803,17.487,7.803c6.778,0,13.152-2.844,17.487-7.802C276.236,230.065,275.917,225.328,272.799,222.601z"/>
	</g>
</g>
<g>
	<g>
		<path d="M452.369,472.728c-3.128-14.67-16.184-25.708-31.773-25.708h-18.949c3.383-10.478,6.119-26.575-2.055-40.32
			c-5.587-9.395-15.17-15.952-28.608-19.634c0.074-0.061,0.153-0.115,0.226-0.176c9.182-7.727,13.837-18.57,13.837-32.229
			c0-38.459-24.603-64.158-37.155-74.766c4.534-4.427,8.725-9.176,12.533-14.21c3.531,6.478,9.104,10.215,16.018,10.215
			c20.038,0.002,26.184-21.266,30.987-36.63c1.679-5.37,5.175-10.307,8.876-15.533c5.838-8.242,12.455-17.584,12.454-30.229
			c0-15.642-10.712-26.994-25.47-26.994c-0.977,0-1.948,0.069-2.916,0.17c-4.386-22.307-14.289-43.318-28.94-61.19
			c-10.806-13.2-23.983-24.533-38.661-33.215c-15.054-8.943-31.63-15.113-48.932-18.336c4.653-15.11-0.383-32.096-14.614-48.026
			C265.867,2.157,261.042,0,255.99,0c-5.053,0-9.878,2.157-13.237,5.918c-14.199,15.892-19.248,32.842-14.647,47.928
			c-17.569,3.209-34.407,9.456-49.672,18.557c-3.558,2.121-4.723,6.725-2.602,10.282c2.122,3.559,6.724,4.722,10.283,2.602
			c16.455-9.81,34.954-15.944,54.205-18.085c10.327-1.149,20.937-1.137,31.335,0.066c19.217,2.216,37.659,8.408,54.053,18.265
			c0.044,0.028,0.088,0.055,0.132,0.081c12.885,7.768,24.458,17.742,33.989,29.387c13.604,16.596,22.634,36.201,26.287,56.973
			c-3.441,2.281-6.62,5.223-9.469,8.756c-3.669-5.174-8.316-13.561-11.48-25.797c-1.193-4.612-1.648-9.393-3.038-13.956
			c-4.326-14.163-17.335-24.025-32.495-24.025H181.763c-16.729,0-30.839,12.008-33.551,28.552
			c-2.036,12.419-6.124,24.883-13.459,35.226c-2.85-3.536-6.029-6.48-9.47-8.761c3.653-20.771,12.684-40.374,26.29-56.973
			c3.34-4.08,6.986-8.014,10.838-11.691c1.572-1.501,3.131-3.176,3.516-5.397c0.393-2.265-0.355-4.672-1.916-6.349
			c-3.621-3.88-8.609-2.305-11.961,0.899c-4.291,4.098-8.356,8.484-12.08,13.033c-14.652,17.873-24.556,38.882-28.943,61.185
			c-0.966-0.1-1.935-0.168-2.909-0.168c-14.763,0-25.479,11.355-25.479,27.001c0,12.645,6.616,21.987,12.454,30.229
			c4.927,6.957,8.398,13.408,10.605,21.665c2.801,10.48,5.975,22.359,20.348,28.518c3.066,1.314,6.064,1.98,8.912,1.98
			c6.784,0,12.417-3.621,15.998-10.235c3.813,5.042,8.01,9.798,12.55,14.231c-12.552,10.609-37.154,36.307-37.154,74.765
			c0,13.659,4.655,24.502,13.837,32.229c0.128,0.108,0.265,0.202,0.395,0.308c-13.189,3.706-22.611,10.219-28.132,19.503
			c-8.174,13.745-5.437,29.842-2.054,40.32H91.403c-15.589-0.002-28.644,11.036-31.772,25.706
			c-14.669,3.128-25.707,16.183-25.707,31.772c0,4.142,3.357,7.5,7.5,7.5h429.152c4.143,0,7.5-3.358,7.5-7.5
			C478.076,488.911,467.039,475.856,452.369,472.728z M268.643,51.889c-0.3-0.025-0.6-0.043-0.9-0.067
			c-7.892-0.624-15.809-0.634-23.703-0.031c-0.242,0.018-0.483,0.032-0.726,0.051c-5.686-13.319,2.378-26.701,10.626-35.932
			c1.078-1.206,3.028-1.199,4.101,0.002C266.298,25.156,274.365,38.556,268.643,51.889z M386.675,414.324
			c6.535,10.93,1.876,25.729-0.995,32.696h-91.587c-4.523-5.733-9.475-11.123-14.715-16.206c-3.48-3.377-7.075-6.634-10.797-9.743
			c18.823-12.355,38.632-19.655,59.122-21.825c4.214-0.446,9.025-0.706,13.258-0.7C357.584,398.571,378.913,401.342,386.675,414.324
			z M197.944,340.624h-7.987c3.511-15.412,6.998-28.228,9.221-35.997c5.798,2.702,11.802,4.97,17.947,6.808
			c12.486,3.734,25.541,5.646,38.574,5.646c12.968,0,26.088-1.91,38.575-5.646c6.145-1.838,12.148-4.105,17.946-6.807
			c2.224,7.769,5.71,20.585,9.221,35.997h-7.987c-15.092,0-27.37,12.278-27.37,27.37v2.748c0,8.126,3.564,15.43,9.206,20.447
			c-13.491,4.653-26.606,11.423-39.27,20.281c-12.7-8.855-26.071-15.681-39.818-20.365c5.586-5.014,9.11-12.283,9.11-20.363v-2.748
			C225.314,352.902,213.036,340.624,197.944,340.624z M370.048,354.661c0,9.141-2.771,15.922-8.472,20.732
			c-5.691,4.801-13.516,7.127-21.142,8.155c-8.685,0.018-17.019,1.178-25.697-0.325c-0.423-0.073-0.852-0.11-1.281-0.11
			c-6.821,0-12.37-5.549-12.37-12.37v-2.748c0-6.821,5.549-12.37,12.37-12.37h20.926c4.143,0,7.5-3.358,7.5-7.5
			c0-3.25-2.071-6.009-4.962-7.05c-4.435-20.013-8.909-35.984-11.21-43.814c3.687-2.288,7.242-4.753,10.659-7.378
			C345.941,297.646,370.048,320.581,370.048,354.661z M385.332,194.463c0.06-0.1,0.12-0.2,0.181-0.299
			c3.815-6.21,9.943-12.65,17.779-12.65c6.359,0.001,10.469,4.709,10.469,11.995c0,7.871-4.492,14.214-9.694,21.559
			c-4.212,5.946-8.567,12.095-10.952,19.726c-2.557,8.182-4.711,26.106-16.67,26.106c-2.63,0-4.618-5.599-5.1-11.414
			C380.319,232.537,385.142,213.586,385.332,194.463z M138.072,257.917c-1.367,2.895-3.166,3.48-6.118,2.215
			c-9.832-4.213-10.872-16.388-13.669-25.337c-2.385-7.631-6.74-13.78-10.952-19.727c-5.202-7.345-9.694-13.688-9.694-21.559
			c0-7.291,4.114-12.002,10.48-12.002c6.744,0,12.421,5.013,16.145,10.202c0.711,0.991,1.42,2.071,2.116,3.268
			c0.323,19.245,5.237,37.442,13.738,53.624C139.925,252.159,139.192,255.544,138.072,257.917z M154.456,243.591
			c-0.063-0.135-0.116-0.274-0.187-0.405c-7.954-14.736-12.177-30.617-12.585-47.237c-0.009-0.351,3.077-3.566,3.762-4.46
			c9.62-12.556,15.032-28.073,17.569-43.557c1.518-9.259,9.402-15.979,18.748-15.979h147.874c6.425,0,12.16,3.176,15.61,8.17
			c3.356,4.858,3.633,11.384,5.021,17.046c5.297,21.66,14.921,33.993,19.73,39.068c-1.5,48.185-35.941,88.637-82.49,101.536
			c-10.33,2.862-21.087,4.308-31.806,4.308c-10.684,0-21.387-1.434-31.687-4.276C193.885,289.489,168.822,269.631,154.456,243.591z
			 M175.03,289.884c3.417,2.625,6.973,5.09,10.66,7.378c-2.301,7.83-6.774,23.8-11.21,43.813c-2.891,1.041-4.962,3.8-4.962,7.05
			c0,4.142,3.357,7.5,7.5,7.5h20.926c6.821,0,12.37,5.549,12.37,12.37v2.748c0,6.821-5.549,12.37-12.37,12.37
			c-0.43,0-0.858,0.037-1.281,0.11c-8.588,1.487-16.712,0.322-25.347,0.322c-0.024,0-0.048,0.001-0.072,0.001
			c-7.887-1.06-15.81-3.432-21.396-8.133c-5.716-4.811-8.495-11.599-8.495-20.752C141.353,320.583,165.458,297.648,175.03,289.884z
			 M125.37,414.324c10.85-18.149,40.732-17.012,58.781-15.084c43.395,4.637,74.926,31.761,90.043,47.779H126.366
			C123.495,440.053,118.836,425.254,125.37,414.324z M91.403,462.02h329.193c6.963,0,12.987,4.088,15.8,9.99H75.604
			C78.417,466.108,84.441,462.02,91.403,462.02z M50.615,497c2.813-5.902,8.837-9.99,15.798-9.99h379.174
			c6.961,0,12.985,4.088,15.798,9.99H50.615z"/>
	</g>
</g>
<g>
</g>
<g>
</g>
<g>
</g>
<g>
</g>
<g>
</g>
<g>
</g>
<g>
</g>
<g>
</g>
<g>
</g>
<g>
</g>
<g>
</g>
<g>
</g>
<g>
</g>
<g>
</g>
<g>
</g>
</svg>
