<?xml version="1.0" encoding="iso-8859-1"?>
<!-- Generator: Adobe Illustrator 19.0.0, SVG Export Plug-In . SVG Version: 6.00 Build 0)  -->
<svg version="1.1" id="Capa_1" xmlns="http://www.w3.org/2000/svg" xmlns:xlink="http://www.w3.org/1999/xlink" x="0px" y="0px"
	 viewBox="0 0 512 512" style="enable-background:new 0 0 512 512;" xml:space="preserve">
<g>
	<g>
		<path d="M181.597,99.459c-4.142,0-7.5,3.358-7.5,7.5v13.466c0,4.142,3.358,7.5,7.5,7.5c4.142,0,7.5-3.358,7.5-7.5v-13.466
			C189.097,102.817,185.739,99.459,181.597,99.459z"/>
	</g>
</g>
<g>
	<g>
		<path d="M330.403,99.459c-4.143,0-7.5,3.358-7.5,7.5v13.466c0,4.142,3.357,7.5,7.5,7.5s7.5-3.358,7.5-7.5v-13.466
			C337.903,102.817,334.546,99.459,330.403,99.459z"/>
	</g>
</g>
<g>
	<g>
		<path d="M279.299,113.84c-3.118-2.726-7.855-2.408-10.583,0.711c-3.088,3.534-7.723,5.56-12.716,5.56
			c-4.993,0-9.628-2.027-12.717-5.561c-2.726-3.119-7.464-3.438-10.583-0.711c-3.119,2.726-3.438,7.464-0.711,10.583
			c5.938,6.794,14.689,10.69,24.011,10.69s18.073-3.896,24.011-10.689C282.737,121.304,282.418,116.566,279.299,113.84z"/>
	</g>
</g>
<g>
	<g>
		<path d="M496.863,1.853c-5.945-3.065-12.882-2.285-18.104,2.038c-15.334,12.698-41.356,31.043-78.245,46.33
			C356.231,68.57,307.61,77.874,256,77.874c-48.503,0-94.474-8.246-136.638-24.508c-3.866-1.49-8.206,0.434-9.697,4.299
			c-1.491,3.864,0.434,8.206,4.299,9.696C157.856,84.29,205.645,92.874,256,92.874c53.591,0,104.145-9.688,150.256-28.797
			c38.612-16,65.942-35.278,82.069-48.633c0.599-0.496,1.063-0.568,1.662-0.259c0.823,0.425,1.656,1.526,1.523,3.345
			c-2.43,33.146-12.913,90.941-55.824,105.609c-17.851,6.102-36.445,9.95-55.027,13.035c-58.459,9.703-121.713,10.83-124.66,10.876
			c-2.895-0.045-63.599-1.121-121.016-10.28c-19.849-3.166-39.58-7.267-58.67-13.63C33.4,109.469,22.919,51.675,20.49,18.529
			c-0.133-1.818,0.699-2.92,1.523-3.345c0.598-0.309,1.065-0.236,1.662,0.259c12.619,10.45,33.819,25.895,63.163,40.136
			c3.726,1.809,8.213,0.254,10.022-3.473c1.808-3.726,0.253-8.213-3.473-10.022c-28-13.589-48.162-28.27-60.145-38.194
			c-5.221-4.323-12.158-5.104-18.104-2.038C8.751,5.146,4.98,12.122,5.53,19.625c2.614,35.68,14.099,97.221,61.225,116.92
			c0.598,5.799,2.16,15.707,6.223,25.694c7.672,18.857,20.738,29.912,38.045,32.34v33.346H79.892
			c-9.186,0-16.659,7.473-16.659,16.659v17.635c0,9.186,7.473,16.658,16.659,16.658h31.132v214.4
			c0,10.324,8.399,18.723,18.723,18.723h24.021c10.324,0,18.723-8.399,18.723-18.723v-214.4h111.544c4.143,0,7.5-3.358,7.5-7.5
			c0-4.142-3.357-7.5-7.5-7.5H172.49v-20.952h167.02v20.952h-25.516c-4.143,0-7.5,3.358-7.5,7.5c0,4.142,3.357,7.5,7.5,7.5h25.516
			v214.4c0,10.324,8.399,18.723,18.723,18.723h24.021c10.323,0,18.723-8.399,18.723-18.723v-214.4h31.131
			c9.186,0,16.659-7.473,16.659-16.658v-17.635c0-9.186-7.474-16.659-16.659-16.659h-31.131V194.58
			c17.307-2.428,30.373-13.483,38.045-32.34c4.063-9.987,5.626-19.895,6.223-25.694c47.124-19.699,58.61-81.24,61.226-116.921
			C507.02,12.122,503.248,5.146,496.863,1.853z M111.024,263.878H79.892c-0.915,0-1.659-0.744-1.659-1.658v-17.635
			c0-0.915,0.744-1.659,1.659-1.659h31.132V263.878z M153.767,497.001h-24.021c-2.053,0-3.723-1.67-3.723-3.723V195.093h31.466
			v298.185h0.001C157.49,495.331,155.82,497.001,153.767,497.001z M339.51,227.926H172.49v-32.833h167.02V227.926z M385.977,493.278
			L385.977,493.278c0,2.053-1.67,3.723-3.723,3.723h-24.021c-2.053,0-3.723-1.67-3.723-3.723V195.093h31.467V493.278z
			 M432.107,242.926c0.915,0,1.659,0.744,1.659,1.659v17.635c0,0.915-0.744,1.658-1.659,1.658h-31.131v-20.952H432.107z
			 M393.477,180.093H118.524c-25.256,0-33.348-23.805-35.933-38.26c11.938,3.461,24.087,6.149,36.303,8.421
			c62.603,11.655,133.257,12.746,137.007,12.795c0.033,0,0.066,0,0.099,0s0.066,0,0.099,0c42.559-0.562,85.521-4.065,127.508-11.115
			c15.418-2.589,30.778-5.746,45.802-10.101C426.823,156.292,418.731,180.093,393.477,180.093z"/>
	</g>
</g>
<g>
</g>
<g>
</g>
<g>
</g>
<g>
</g>
<g>
</g>
<g>
</g>
<g>
</g>
<g>
</g>
<g>
</g>
<g>
</g>
<g>
</g>
<g>
</g>
<g>
</g>
<g>
</g>
<g>
</g>
</svg>
