<?xml version="1.0" encoding="iso-8859-1"?>
<!-- Generator: Adobe Illustrator 19.0.0, SVG Export Plug-In . SVG Version: 6.00 Build 0)  -->
<svg version="1.1" id="Capa_1" xmlns="http://www.w3.org/2000/svg" xmlns:xlink="http://www.w3.org/1999/xlink" x="0px" y="0px"
	 viewBox="0 0 512 512" style="enable-background:new 0 0 512 512;" xml:space="preserve">
<g>
	<g>
		<path d="M201.016,254.185c-4.142,0-7.5,3.358-7.5,7.5v9.951c0,4.142,3.358,7.5,7.5,7.5s7.5-3.358,7.5-7.5v-9.951
			C208.517,257.543,205.159,254.185,201.016,254.185z"/>
	</g>
</g>
<g>
	<g>
		<path d="M310.982,254.185c-4.142,0-7.5,3.358-7.5,7.5v9.951c0,4.142,3.358,7.5,7.5,7.5s7.5-3.358,7.5-7.5v-9.951
			C318.483,257.543,315.125,254.185,310.982,254.185z"/>
	</g>
</g>
<g>
	<g>
		<path d="M274.507,265.297c-3.119-2.727-7.857-2.409-10.583,0.71c-1.911,2.186-4.799,3.44-7.923,3.44s-6.012-1.254-7.923-3.44
			c-2.726-3.119-7.464-3.438-10.583-0.71c-3.119,2.726-3.437,7.464-0.71,10.583c4.759,5.445,11.764,8.568,19.217,8.568
			s14.458-3.123,19.217-8.568C277.944,272.761,277.625,268.024,274.507,265.297z"/>
	</g>
</g>
<g>
	<g>
		<path d="M499.232,313.465h-3.566V234.45l14.525-24.268c2.357-3.938,2.416-8.864,0.152-12.858
			c-2.263-3.993-6.521-6.473-11.11-6.473h-3.566V26.753c0-14.383-11.702-26.084-26.084-26.084H366.563
			c-14.383,0-26.084,11.702-26.084,26.084v27.288c0,4.142,3.358,7.5,7.5,7.5c4.142,0,7.5-3.358,7.5-7.5V26.753
			c0-6.111,4.972-11.083,11.083-11.083h103.018c6.111,0,11.083,4.972,11.083,11.083v164.098h-12.065V94.579
			c0-11.344-9.229-20.573-20.573-20.573s-20.572,9.229-20.572,20.573v96.273h-18.762V94.579c0-11.344-9.228-20.573-20.572-20.573
			s-20.573,9.229-20.573,20.573v96.273H355.48V83.941c0-4.142-3.358-7.5-7.5-7.5c-4.142,0-7.5,3.358-7.5,7.5v106.911H171.519V157.44
			c0-4.142-3.358-7.5-7.5-7.5c-4.142,0-7.5,3.358-7.5,7.5v33.411h-12.068V94.579c0-11.344-9.229-20.573-20.573-20.573
			s-20.572,9.229-20.572,20.573v96.273H84.544V94.579c0-11.344-9.228-20.573-20.572-20.573s-20.573,9.228-20.573,20.573v96.273
			H31.335V26.753c0-6.111,4.972-11.083,11.083-11.083h103.018c6.111,0,11.083,4.972,11.083,11.083v101.838
			c0,4.142,3.358,7.5,7.5,7.5c4.142,0,7.5-3.358,7.5-7.5V26.753c0-14.383-11.702-26.084-26.084-26.084H42.418
			c-14.383,0-26.084,11.702-26.084,26.084v164.098h-3.566c-4.59,0-8.847,2.48-11.11,6.473c-2.263,3.993-2.205,8.919,0.152,12.857
			l14.526,24.268v79.016h-3.567v0.001c-4.59,0-8.847,2.48-11.11,6.473s-2.205,8.919,0.152,12.857l14.526,24.268v146.767
			c0,4.142,3.358,7.5,7.5,7.5h464.33c4.142,0,7.5-3.358,7.5-7.5V357.064l14.525-24.268c2.357-3.938,2.416-8.864,0.152-12.858
			C508.079,315.945,503.821,313.465,499.232,313.465z M186.042,210.183c0.262-0.439,0.486-0.894,0.692-1.355
			c0.424-0.951,0.741-1.949,0.922-2.975h136.687c0.07,0.397,0.161,0.79,0.269,1.18c0.302,1.094,0.762,2.175,1.345,3.15l8.795,14.695
			H177.246L186.042,210.183z M118.307,94.579c0-3.072,2.499-5.572,5.571-5.572c3.072,0,5.572,2.5,5.572,5.572v96.273h-11.143V94.579
			z M58.4,94.579c0-3.072,2.5-5.572,5.572-5.572c3.072,0,5.571,2.5,5.571,5.572v96.273H58.4V94.579z M121.399,496.331H66.454
			v-59.217c0-7.251,3.591-13.996,9.612-18.045l17.096-11.517c0.286-0.192,0.573-0.233,0.765-0.233
			c0.191,0.001,0.478,0.042,0.763,0.233l17.098,11.518c6.018,4.052,9.61,10.797,9.61,18.044V496.331z M156.518,496.331H136.4
			v-59.217c0-12.246-6.068-23.642-16.232-30.485l-17.098-11.518c-2.711-1.826-5.873-2.792-9.143-2.792
			c-3.271,0-6.432,0.965-9.145,2.792l-17.092,11.514c-10.167,6.837-16.237,18.235-16.237,30.489v59.217H31.335V362.492h125.184
			V496.331z M159.764,347.492H28.087L16.7,328.467h154.451L159.764,347.492z M123.878,241.001c-11.344,0-20.572,9.229-20.572,20.573
			v51.892H84.544v-51.892c0-11.344-9.228-20.573-20.572-20.573s-20.573,9.229-20.573,20.573v51.892H31.335v-73.588h125.184v73.588
			h-12.068v-51.892C144.451,250.23,135.221,241.001,123.878,241.001z M129.45,261.574v51.892h-11.143v-51.892
			c0-3.072,2.5-5.572,5.571-5.572C126.95,256.002,129.45,258.501,129.45,261.574z M69.544,261.574v51.892H58.4v-51.892
			c0-3.072,2.5-5.572,5.572-5.572C67.044,256.002,69.544,258.501,69.544,261.574z M159.764,224.877H28.087L16.7,205.852h154.451
			L159.764,224.877z M303.151,496.33h-94.3v-76.067h-0.001c0-1.592,0.099-3.17,0.292-4.727c1.352-10.899,7.34-20.753,16.59-26.981
			c0,0,26.685-17.97,26.718-17.993c2.027-1.365,4.977-1.43,7.099-0.001l26.72,17.993c9.249,6.228,15.237,16.082,16.59,26.981
			c0.193,1.557,0.292,3.135,0.292,4.727V496.33z M340.479,496.332H318.15v-76.069h0.001c0-15.52-6.727-30.096-18.268-40.137
			c-1.649-1.434-3.396-2.776-5.235-4.015l-26.721-17.994c-3.536-2.38-7.66-3.638-11.928-3.638c-4.233,0-8.416,1.274-11.929,3.638
			l-26.719,17.993c-1.84,1.239-3.586,2.58-5.235,4.015c-11.542,10.04-18.268,24.617-18.268,40.137v76.068h-22.329V357.06
			l14.522-24.262c0.582-0.972,1.043-2.055,1.345-3.148c0.108-0.39,0.2-0.784,0.27-1.182h136.687c0.07,0.397,0.162,0.79,0.269,1.18
			c0.302,1.095,0.762,2.175,1.345,3.15l13.545,22.629l0.977,1.633V496.332z M340.479,313.466h-168.96v-73.588h168.96V313.466z
			 M442.455,94.579c0-3.072,2.499-5.572,5.571-5.572s5.572,2.5,5.572,5.572v96.273h-11.143V94.579z M382.549,94.579
			c0-3.072,2.5-5.572,5.572-5.572s5.571,2.5,5.571,5.572v96.273h-11.143V94.579z M445.545,496.332h-54.944v-59.217
			c0-3.17,0.688-6.244,1.965-9.039c1.642-3.594,4.26-6.726,7.646-9.005l17.096-11.516c0.286-0.192,0.573-0.233,0.765-0.233
			c0.191,0,0.479,0.041,0.763,0.232l17.102,11.521c6.016,4.045,9.607,10.791,9.607,18.042V496.332z M480.666,496.331h-0.002h-20.119
			v-59.217c0-12.254-6.069-23.651-16.232-30.485l-17.097-11.518c-2.711-1.826-5.873-2.792-9.143-2.792
			c-1.226,0-2.438,0.136-3.615,0.402c-1.963,0.443-3.834,1.249-5.529,2.39l-17.095,11.516
			c-10.164,6.844-16.233,18.241-16.233,30.486v59.217h-20.119V362.492h125.184V496.331z M483.912,347.492H352.235l-11.388-19.025
			H495.3L483.912,347.492z M448.027,241.001c-11.344,0-20.572,9.229-20.572,20.573v51.892h-18.762v-51.892
			c0-11.344-9.229-20.573-20.573-20.573s-20.572,9.229-20.572,20.573v51.892h-12.065v-73.588h125.181v73.588h-12.065v-51.892
			C468.599,250.23,459.37,241.001,448.027,241.001z M453.599,261.574v51.892h-11.143v-51.892c0-3.072,2.5-5.572,5.571-5.572
			C451.099,256.002,453.599,258.501,453.599,261.574z M393.692,261.574v51.892h-11.143v-51.892c0-3.072,2.5-5.572,5.572-5.572
			C391.193,256.002,393.692,258.501,393.692,261.574z M483.912,224.877H352.235l-11.388-19.025H495.3L483.912,224.877z"/>
	</g>
</g>
<g>
</g>
<g>
</g>
<g>
</g>
<g>
</g>
<g>
</g>
<g>
</g>
<g>
</g>
<g>
</g>
<g>
</g>
<g>
</g>
<g>
</g>
<g>
</g>
<g>
</g>
<g>
</g>
<g>
</g>
</svg>
