<?xml version="1.0" encoding="iso-8859-1"?>
<!-- Generator: Adobe Illustrator 19.0.0, SVG Export Plug-In . SVG Version: 6.00 Build 0)  -->
<svg version="1.1" id="Capa_1" xmlns="http://www.w3.org/2000/svg" xmlns:xlink="http://www.w3.org/1999/xlink" x="0px" y="0px"
	 viewBox="0 0 512.001 512.001" style="enable-background:new 0 0 512.001 512.001;" xml:space="preserve">
<g>
	<g>
		<path d="M221.756,177.807c-4.142,0-7.5,3.358-7.5,7.5v8.325c0,4.142,3.358,7.5,7.5,7.5c4.142,0,7.5-3.358,7.5-7.5v-8.325
			C229.256,181.165,225.898,177.807,221.756,177.807z"/>
	</g>
</g>
<g>
	<g>
		<path d="M313.749,177.807c-4.142,0-7.5,3.358-7.5,7.5v8.325c0,4.142,3.358,7.5,7.5,7.5c4.142,0,7.5-3.358,7.5-7.5v-8.325
			C321.249,181.165,317.891,177.807,313.749,177.807z"/>
	</g>
</g>
<g>
	<g>
		<path d="M284.041,187.407c-3.119-2.726-7.857-2.408-10.583,0.711c-1.366,1.563-3.445,2.458-5.706,2.458s-4.34-0.896-5.706-2.459
			c-2.727-3.118-7.464-3.437-10.583-0.71c-3.118,2.727-3.436,7.464-0.71,10.583c4.215,4.821,10.411,7.586,16.999,7.586
			c6.589,0,12.785-2.765,17-7.586C287.478,194.871,287.16,190.133,284.041,187.407z"/>
	</g>
</g>
<g>
	<g>
		<path d="M264.737,335.152c-31.874,0-57.806,25.932-57.806,57.806c0,31.875,25.932,57.806,57.806,57.806
			c31.874,0,57.806-25.932,57.806-57.806C322.543,361.083,296.611,335.152,264.737,335.152z M264.737,435.764
			c-23.603,0-42.806-19.203-42.806-42.806c0-23.603,19.203-42.806,42.806-42.806c23.603,0,42.806,19.203,42.806,42.806
			C307.543,416.561,288.34,435.764,264.737,435.764z"/>
	</g>
</g>
<g>
	<g>
		<path d="M287.799,385.458h-15.562v-15.562c0-4.142-3.358-7.5-7.5-7.5c-4.142,0-7.5,3.358-7.5,7.5v23.062
			c0,4.142,3.358,7.5,7.5,7.5h23.062c4.142,0,7.5-3.358,7.5-7.5C295.299,388.816,291.941,385.458,287.799,385.458z"/>
	</g>
</g>
<g>
	<g>
		<path d="M451.215,90.276c-1.712,0-3.416,0.107-5.103,0.322c-6.456-20.947-26.096-35.914-48.609-35.914
			c-7.479,0-14.765,1.619-21.439,4.729c-10.338-16.066-28.305-26.084-47.729-26.084c-8.099,0-16.002,1.715-23.277,4.995
			l-7.348-20.08C294.388,7.489,284.258,0,272.986,0h-10.468c-11.272,0-21.402,7.489-24.723,18.243l-10.17,27.791
			c-1.424,3.89,0.576,8.197,4.465,9.621c3.89,1.424,8.197-0.575,9.621-4.465l10.242-27.988c0.053-0.144,0.101-0.289,0.145-0.435
			c1.363-4.573,5.648-7.767,10.42-7.767h10.468c4.772,0,9.057,3.194,10.42,7.767c0.043,0.146,0.092,0.292,0.144,0.435
			l48.701,133.082H203.254l28.233-77.152c1.424-3.891-0.576-8.198-4.465-9.622c-3.889-1.422-8.197,0.576-9.621,4.466
			c0,0-31.917,87.218-31.921,87.23c-0.3,0.821-0.457,1.703-0.457,2.578v57.271c0,0.853-0.06,1.705-0.153,2.555
			c-8.015-12.802-22.266-21.308-38.212-21.308c-14.904,0-28.726,7.427-37.046,19.438c-4.937-2.076-10.254-3.152-15.701-3.152
			c-17.452,0-32.739,11.276-38.312,27.249c-0.879-0.071-1.762-0.107-2.648-0.107c-18.013,0-32.668,14.655-32.668,32.668
			s14.655,32.668,32.668,32.668h65.297c0.423,6.924,4.703,12.811,10.726,15.535v132.716c-6.348,2.87-10.783,9.249-10.783,16.656
			v17.745c0,10.082,8.202,18.283,18.283,18.283h256.527c10.082,0,18.283-8.202,18.283-18.283v-17.745
			c0-7.407-4.435-13.786-10.783-16.656V326.599c6.348-2.87,10.783-9.249,10.783-16.656v-17.745c0-4.835-1.9-9.225-4.976-12.498
			c-0.513-2.173-1.965-4.068-4.072-5.065c-14.395-6.817-51.754-29.732-51.754-53.58v-49.771h100.733
			c22.334,0,40.504-18.17,40.504-40.504C491.719,108.446,473.548,90.276,451.215,90.276z M200.023,171.283h135.459v42.271H200.023
			V171.283z M120.449,283.433c-2.235,4.001-2.246,8.199-2.258,12.633c-21.663,0.033-43.326,0-64.988,0c-0.084,0-0.168,0-0.252,0
			c-9.742-0.002-17.668-7.927-17.668-17.67c0-9.742,7.926-17.668,17.668-17.668c1.967,0,3.906,0.326,5.766,0.968
			c4.415,1.524,9.243-1.453,9.878-6.067c1.728-12.566,12.611-22.042,25.315-22.042c5.151,0,10.116,1.526,14.358,4.412
			c3.801,2.586,9.144,1.081,11.044-3.091c4.874-10.695,15.607-17.606,27.345-17.606c14.647,0,27.154,10.754,29.596,24.94
			c-4.341,5.513-9.877,10.671-15.655,15.232c-11.044,8.662-22.395,14.68-26.088,16.547
			C128.642,274.651,123.316,278.299,120.449,283.433z M396.284,493.717c0,1.811-1.473,3.283-3.283,3.283H136.474
			c-1.811,0-3.283-1.473-3.283-3.283v-17.745c0-1.811,1.473-3.283,3.283-3.283h192.787c4.142,0,7.5-3.358,7.5-7.5
			c0-4.142-3.358-7.5-7.5-7.5H143.974V328.227h241.527v129.462h-26.614c-4.142,0-7.5,3.358-7.5,7.5c0,4.142,3.358,7.5,7.5,7.5
			h34.114c1.811,0,3.283,1.473,3.283,3.283V493.717z M393.557,288.971c0.082,0.015,0.164,0.034,0.248,0.055
			c1.421,0.361,2.479,1.64,2.479,3.172v17.745c0,1.811-1.473,3.283-3.283,3.283H136.474c-1.811,0-3.283-1.473-3.283-3.283v-17.745
			c0-1.811,1.473-3.283,3.283-3.283h256.527C393.191,288.915,393.376,288.94,393.557,288.971z M371.88,273.915H163.639
			c9.964-7.06,19.415-15.207,26.538-25.205c0.198-0.278,0.37-0.571,0.527-0.871c4.123-5.956,7.233-12.417,8.58-19.284H336.22
			C339.931,247.46,356.956,263.31,371.88,273.915z M451.217,156.283H348.224l-37.996-103.83c5.616-2.711,11.78-4.125,18.106-4.125
			c16.304,0,31.213,9.599,37.983,24.454c1.904,4.177,7.25,5.675,11.045,3.091c5.951-4.049,12.916-6.19,20.142-6.19
			c17.82,0,33.086,13.293,35.51,30.92c0.637,4.628,5.465,7.593,9.878,6.069c2.686-0.927,5.486-1.397,8.325-1.397
			c14.063,0,25.504,11.441,25.504,25.504S465.28,156.283,451.217,156.283z"/>
	</g>
</g>
<g>
</g>
<g>
</g>
<g>
</g>
<g>
</g>
<g>
</g>
<g>
</g>
<g>
</g>
<g>
</g>
<g>
</g>
<g>
</g>
<g>
</g>
<g>
</g>
<g>
</g>
<g>
</g>
<g>
</g>
</svg>
