<?xml version="1.0" encoding="iso-8859-1"?>
<!-- Generator: Adobe Illustrator 19.0.0, SVG Export Plug-In . SVG Version: 6.00 Build 0)  -->
<svg version="1.1" id="Capa_1" xmlns="http://www.w3.org/2000/svg" xmlns:xlink="http://www.w3.org/1999/xlink" x="0px" y="0px"
	 viewBox="0 0 512 512" style="enable-background:new 0 0 512 512;" xml:space="preserve">
<g>
	<g>
		<path d="M205.538,121.615c-4.143,0-7.5,3.358-7.5,7.5v9.133c0,4.142,3.358,7.5,7.5,7.5c4.143,0,7.5-3.358,7.5-7.5v-9.133
			C213.038,124.972,209.681,121.615,205.538,121.615z"/>
	</g>
</g>
<g>
	<g>
		<path d="M306.462,121.615c-4.143,0-7.5,3.358-7.5,7.5v9.133c0,4.142,3.357,7.5,7.5,7.5s7.5-3.358,7.5-7.5v-9.133
			C313.962,124.972,310.605,121.615,306.462,121.615z"/>
	</g>
</g>
<g>
	<g>
		<path d="M273.393,131.967c-3.119-2.727-7.856-2.411-10.583,0.708c-1.639,1.873-4.12,2.947-6.81,2.947s-5.172-1.074-6.809-2.947
			c-2.725-3.118-7.464-3.437-10.582-0.711c-3.119,2.726-3.438,7.464-0.711,10.583c4.486,5.132,11.083,8.076,18.102,8.076
			c7.017,0,13.614-2.942,18.101-8.073C276.828,139.431,276.511,134.694,273.393,131.967z"/>
	</g>
</g>
<g>
	<g>
		<path d="M504.5,390.061h-22.402v-40.388c0-4.142-3.357-7.5-7.5-7.5h-22.402v-40.388c0-4.142-3.357-7.5-7.5-7.5h-22.402v-40.388
			c0-4.142-3.357-7.5-7.5-7.5h-22.402v-40.388c0-4.142-3.357-7.5-7.5-7.5h-37.514v-91.194c6.062-2.836,10.281-8.977,10.281-16.099
			V76.832c0-9.804-7.977-17.781-17.781-17.781h-25.239c-4.143,0-7.5,3.358-7.5,7.5c0,4.142,3.357,7.5,7.5,7.5h25.239
			c1.533,0,2.781,1.248,2.781,2.781v14.383c0,1.534-1.248,2.781-2.781,2.781H172.123c-1.533,0-2.781-1.248-2.781-2.781V76.832
			c0-1.533,1.248-2.781,2.781-2.781h112.688c4.143,0,7.5-3.358,7.5-7.5c0-4.142-3.357-7.5-7.5-7.5H172.123
			c-9.805,0-17.781,7.977-17.781,17.781v14.383c0,7.123,4.219,13.263,10.281,16.099v91.194h-37.514c-4.143,0-7.5,3.358-7.5,7.5
			v40.388H97.207c-4.143,0-7.5,3.358-7.5,7.5v40.388H67.305c-4.143,0-7.5,3.358-7.5,7.5v40.388H37.402c-4.143,0-7.5,3.358-7.5,7.5
			v40.388H7.5c-4.143,0-7.5,3.358-7.5,7.5v47.888c0,4.142,3.357,7.5,7.5,7.5h497c4.143,0,7.5-3.358,7.5-7.5v-47.888
			C512,393.42,508.643,390.061,504.5,390.061z M164.623,390.061H105.05c-4.143,0-7.5,3.358-7.5,7.5c0,4.142,3.357,7.5,7.5,7.5
			h59.573v32.888H15v-32.888h60.807c4.143,0,7.5-3.358,7.5-7.5c0-4.142-3.357-7.5-7.5-7.5H44.902v-32.888h119.721V390.061z
			 M164.623,342.173H74.805v-32.888h89.818V342.173z M164.623,294.285h-59.916v-32.888h59.916V294.285z M164.623,246.397h-30.014
			v-32.888h30.014V246.397z M207.407,437.949h-27.784V175.611c0-0.714,0.58-1.294,1.294-1.294h25.195
			c0.714,0,1.295,0.581,1.295,1.294V437.949z M289.593,437.949h-67.186v-32.888h67.186V437.949z M289.593,390.061h-67.186v-32.888
			h67.186V390.061z M289.593,342.173h-67.186v-32.888h67.186V342.173z M289.593,294.285h-67.186v-32.888h67.186V294.285z
			 M289.593,246.397h-67.186v-32.888h67.186V246.397z M289.593,198.509h-67.186v-15.397h67.186V198.509z M332.377,437.949h-27.784
			V175.611c0-0.714,0.581-1.294,1.295-1.294h25.195c0.714,0,1.294,0.581,1.294,1.294V437.949z M332.377,159.368
			c-0.427-0.034-26.487-0.051-26.489-0.051c-5.921,0-11.59,3.421-14.376,8.638c-0.028,0.053-0.061,0.103-0.088,0.156h-70.848
			c-1.592-3.064-4.192-5.584-7.283-7.115c-2.223-1.101-4.701-1.679-7.181-1.679c0,0-26.063,0.017-26.489,0.051v-50.371h152.754
			V159.368z M347.377,213.509h30.014v32.888h-30.014V213.509z M347.377,261.397h59.916v32.888h-59.916V261.397z M347.377,309.285
			h89.818v32.888h-89.818V309.285z M347.377,357.173h119.721v32.888H347.377V357.173z M497,437.949H347.377v-32.888H497V437.949z"/>
	</g>
</g>
<g>
</g>
<g>
</g>
<g>
</g>
<g>
</g>
<g>
</g>
<g>
</g>
<g>
</g>
<g>
</g>
<g>
</g>
<g>
</g>
<g>
</g>
<g>
</g>
<g>
</g>
<g>
</g>
<g>
</g>
</svg>
