<?xml version="1.0" encoding="iso-8859-1"?>
<!-- Generator: Adobe Illustrator 19.0.0, SVG Export Plug-In . SVG Version: 6.00 Build 0)  -->
<svg version="1.1" id="Capa_1" xmlns="http://www.w3.org/2000/svg" xmlns:xlink="http://www.w3.org/1999/xlink" x="0px" y="0px"
	 viewBox="0 0 512 512" style="enable-background:new 0 0 512 512;" xml:space="preserve">
<g>
	<g>
		<path d="M176.939,191.402c-4.143,0-7.5,3.358-7.5,7.5v18.203c0,4.143,3.358,7.5,7.5,7.5c4.143,0,7.5-3.358,7.5-7.5v-18.203
			C184.439,194.76,181.082,191.402,176.939,191.402z"/>
	</g>
</g>
<g>
	<g>
		<path d="M335.061,191.402c-4.143,0-7.5,3.358-7.5,7.5v18.203c0,4.143,3.357,7.5,7.5,7.5s7.5-3.358,7.5-7.5v-18.203
			C342.561,194.76,339.204,191.402,335.061,191.402z"/>
	</g>
</g>
<g>
	<g>
		<path d="M277.682,258.899c-3.119-2.727-7.857-2.409-10.583,0.71c-2.691,3.079-6.737,4.845-11.099,4.845s-8.407-1.766-11.099-4.845
			c-2.726-3.119-7.463-3.437-10.583-0.71c-3.118,2.726-3.437,7.464-0.71,10.583c5.54,6.338,13.702,9.973,22.392,9.973
			s16.852-3.635,22.392-9.973C281.119,266.363,280.8,261.626,277.682,258.899z"/>
	</g>
</g>
<g>
	<g>
		<path d="M504.5,402.932h-32.084c-3.146-4.216-7.246-7.677-11.972-10.076V202.23c0-42.981-14.163-83.854-40.958-118.202
			c-2.547-3.266-7.262-3.848-10.526-1.3c-3.266,2.548-3.848,7.261-1.3,10.527c24.719,31.687,37.784,69.37,37.784,108.976v186.943
			c-0.131-0.001-0.263-0.002-0.394-0.002c0,0-82.384,0-82.405,0c-7.49,0-15.472,2.449-20.276,8.502
			c-1.237,1.559-2.226,3.315-2.922,5.179c-0.01,0.027-0.023,0.052-0.033,0.079h-30.236v-19.166
			c21.484-8.361,42.14-21.649,60.709-39.339c32.406-30.872,54.135-71.036,62.837-116.147l2.543-13.179
			c0.133-0.69,0.153-1.406,0.104-2.105c-0.078-0.85-2.023-21.059-12.166-41.507c-13.961-28.148-36.535-43.026-65.28-43.026
			c-28.051,0-52.584-8.229-72.918-24.457c-15.297-12.209-22.389-24.643-22.448-24.748c-1.318-2.376-3.824-3.844-6.563-3.852
			c-2.709,0-5.214,1.471-6.543,3.833c-0.069,0.124-7.161,12.558-22.458,24.767c-20.334,16.228-44.867,24.457-72.918,24.457
			c-28.745,0-51.319,14.878-65.281,43.026c-10.143,20.449-12.088,40.657-12.166,41.507c-0.063,0.689-0.026,1.425,0.104,2.105
			l2.543,13.178c8.702,45.112,30.431,85.275,62.837,116.148c18.569,17.69,39.225,30.978,60.709,39.339v19.166H126
			c-4.143,0-7.5,3.358-7.5,7.5c0,4.142,3.357,7.5,7.5,7.5h52.227c0.008,0.08,0.02,0.158,0.028,0.237
			c3.129,31.831,26.655,59.3,57.419,67.693c6.567,1.792,13.518,2.701,20.327,2.701c30.92,0,59.415-19.18,71.74-47.435
			c3.108-7.124,5.167-14.739,5.956-22.476c0.016-0.161,0.033-0.321,0.049-0.482c0.008-0.08,0.021-0.158,0.028-0.237h4.354v73.896H15
			v-73.896h81c4.143,0,7.5-3.358,7.5-7.5c0-4.142-3.357-7.5-7.5-7.5H66.556V202.23C66.556,101.843,151.54,20.172,256,20.172
			c49.61,0,96.552,18.389,132.178,51.78c3.022,2.833,7.769,2.679,10.601-0.343c2.833-3.022,2.68-7.769-0.343-10.601
			C360.02,25.001,309.435,5.172,256,5.172c-112.731,0-204.444,88.4-204.444,197.059v200.701H7.5c-4.143,0-7.5,3.358-7.5,7.5v88.896
			c0,4.142,3.357,7.5,7.5,7.5h497c4.143,0,7.5-3.358,7.5-7.5v-88.896C512,406.29,508.643,402.932,504.5,402.932z M92.801,206.513
			c1.374-6.973,4.137-17.683,9.432-28.36c11.418-23.02,28.86-34.691,51.843-34.691c39.632,0,66.932-15.334,82.854-28.199
			c8.59-6.939,14.873-13.9,19.069-19.234c4.196,5.333,10.479,12.294,19.069,19.234c15.923,12.864,43.223,28.199,82.854,28.199
			c22.86,0,40.244,11.553,51.666,34.338c5.383,10.737,8.199,21.641,9.597,28.712c-0.093,0.007-0.18,0.018-0.273,0.026
			c-11.646,0.968-23.506,4.258-32.511,12.031c-0.089,0.077-0.177,0.154-0.266,0.231c-4.59,4.032-8.26,8.971-11.735,13.961
			c-6.192,8.894-10.283,14.77-24.778,14.77c-16.572,0-25.062-5.687-35.81-12.886c-12.942-8.67-27.612-18.497-57.814-18.497
			c-30.202,0-44.872,9.827-57.814,18.497c-10.748,7.2-19.237,12.886-35.81,12.886c-14.495,0-18.586-5.875-24.778-14.769
			c-3.425-4.92-6.964-9.814-11.51-13.773c-9.108-7.931-21.18-11.467-33.025-12.452C92.973,206.53,92.889,206.52,92.801,206.513z
			 M152.46,333.568c-30.135-28.709-50.348-66.1-58.455-108.13l-0.738-3.826c0.021,0.002,0.042,0.003,0.063,0.006
			c0.119,0.012,0.231,0.027,0.349,0.04c8.353,0.896,16.62,3.362,22.961,9.103c3.394,3.073,6.046,6.836,8.648,10.573
			c6.918,9.936,14.76,21.198,37.088,21.198c21.132,0,32.838-7.841,44.157-15.424c12.252-8.207,23.824-15.959,49.467-15.959
			s37.215,7.752,49.467,15.959c11.32,7.583,23.025,15.424,44.157,15.424c15.804,0,24.346-5.643,30.444-12.463
			c4.987-5.577,8.463-12.346,13.669-17.736c6.495-6.725,15.83-9.782,24.936-10.715c0.02-0.002,0.041-0.003,0.061-0.005l-0.738,3.827
			c-8.107,42.031-28.321,79.421-58.454,108.128c-28.817,27.453-62.85,43.366-96.556,45.31c-4.58,0.264-9.33,0.276-13.97,0
			C215.31,376.934,181.277,361.021,152.46,333.568z M289.468,463.935c-11.117,7.069-24.509,10.336-37.634,9.475
			c-22.608-1.482-43.165-15.595-52.859-36.017c-2.909-6.129-4.842-12.723-5.646-19.461h16.993c4.143,0,7.5-3.358,7.5-7.5v-21.604
			c6.972,1.925,13.985,3.299,21.014,4.162c11.423,1.402,22.905,1.402,34.328,0c7.029-0.863,14.042-2.237,21.014-4.162v21.604
			c0,4.142,3.357,7.5,7.5,7.5h16.992C316.424,436.764,305.442,453.778,289.468,463.935z M464.176,491.828H353.128v-81.396
			c0-4.154,3.202-6.26,9.517-6.26c0-0.001,82.372-0.001,82.405-0.001c10.316,0,19.126,8.81,19.126,19.126V491.828z M497,491.828
			h-17.824v-68.531c0-0.822-0.04-1.635-0.097-2.442c-0.07-0.978-0.174-1.955-0.328-2.923H497V491.828z"/>
	</g>
</g>
<g>
</g>
<g>
</g>
<g>
</g>
<g>
</g>
<g>
</g>
<g>
</g>
<g>
</g>
<g>
</g>
<g>
</g>
<g>
</g>
<g>
</g>
<g>
</g>
<g>
</g>
<g>
</g>
<g>
</g>
</svg>
