<?xml version="1.0" encoding="iso-8859-1"?>
<!-- Generator: Adobe Illustrator 19.0.0, SVG Export Plug-In . SVG Version: 6.00 Build 0)  -->
<svg version="1.1" id="Capa_1" xmlns="http://www.w3.org/2000/svg" xmlns:xlink="http://www.w3.org/1999/xlink" x="0px" y="0px"
	 viewBox="0 0 512 512" style="enable-background:new 0 0 512 512;" xml:space="preserve">
<g>
	<g>
		<path d="M204.015,170.951c-4.142,0-7.5,3.358-7.5,7.5v9.408c0,4.142,3.358,7.5,7.5,7.5c4.142,0,7.5-3.358,7.5-7.5v-9.408
			C211.515,174.309,208.157,170.951,204.015,170.951z"/>
	</g>
</g>
<g>
	<g>
		<path d="M307.984,170.951c-4.143,0-7.5,3.358-7.5,7.5v9.408c0,4.142,3.357,7.5,7.5,7.5s7.5-3.358,7.5-7.5v-9.408
			C315.484,174.309,312.127,170.951,307.984,170.951z"/>
	</g>
</g>
<g>
	<g>
		<path d="M273.765,181.556c-3.118-2.726-7.856-2.406-10.582,0.712c-1.729,1.978-4.346,3.112-7.183,3.112
			c-2.836,0-5.455-1.135-7.184-3.113c-2.726-3.119-7.465-3.437-10.583-0.711c-3.119,2.726-3.437,7.464-0.711,10.583
			c4.579,5.238,11.313,8.242,18.478,8.242c7.166,0,13.9-3.004,18.478-8.242C277.204,189.02,276.884,184.282,273.765,181.556z"/>
	</g>
</g>
<g>
	<g>
		<path d="M463.245,222.406c0.027-0.527,0.057-1.054,0.057-1.583c0-14.574-10.072-26.835-23.62-30.201v-29.266
			c0-4.142-3.357-7.5-7.5-7.5s-7.5,3.358-7.5,7.5v29.266c-13.548,3.366-23.62,15.627-23.62,30.201c0,0.529,0.031,1.056,0.057,1.583
			c-13.524,4.946-25.212,13.727-33.755,25.015v-12.67c0-7.173-5.36-13.104-12.283-14.034c0.849-4.99,1.282-10.039,1.282-15.095
			c0-36.562-21.971-68.358-54.078-84.21c0.019-0.425,0.042-0.851,0.042-1.276c0-13.588-9.435-25.46-23.396-31.77
			c0.694-2.257,1.069-4.618,1.069-7.024c0-10.616-6.93-19.638-16.502-22.795V11.868c0-4.142-3.357-7.5-7.5-7.5
			c-4.142,0-7.5,3.358-7.5,7.5v46.679c-9.572,3.157-16.502,12.18-16.502,22.796c0,2.406,0.376,4.767,1.07,7.024
			c-13.961,6.31-23.396,18.182-23.396,31.77c0,0.42,0.023,0.839,0.042,1.259c-7.911,3.895-15.313,8.791-21.983,14.649
			c-3.112,2.733-3.42,7.472-0.687,10.584c2.734,3.112,7.472,3.42,10.584,0.687c6.939-6.094,14.806-10.99,23.281-14.573
			c11.055-4.676,23.093-7.048,35.092-7.048c11.442,0,22.882,2.169,33.507,6.423c30.461,12.22,51.857,40.564,51.857,73.504
			c0,5.015-0.506,10.024-1.507,14.954h-2.438c-7.816,0-14.176,6.359-14.176,14.176v3.727H188.756v-3.727
			c0-7.816-6.359-14.176-14.176-14.176h-2.437c-1.001-4.929-1.507-9.938-1.507-14.954c0-13.033,3.43-25.971,9.918-37.414
			c2.043-3.604,0.779-8.181-2.824-10.224c-3.603-2.044-8.181-0.779-10.224,2.824c-7.766,13.695-11.871,29.191-11.871,44.813
			c0,5.056,0.433,10.105,1.281,15.095c-6.922,0.93-12.282,6.861-12.282,14.034v12.67c-8.543-11.288-20.231-20.07-33.755-25.015
			c0.027-0.527,0.058-1.054,0.058-1.583c0-14.574-10.072-26.835-23.62-30.201v-29.266c0-4.142-3.358-7.5-7.5-7.5
			c-4.142,0-7.5,3.358-7.5,7.5v29.266c-13.548,3.366-23.62,15.627-23.62,30.201c0,0.529,0.031,1.056,0.058,1.583
			C20.338,232.798,0,260.107,0,292.078v208.054c0,4.142,3.358,7.5,7.5,7.5h497c4.143,0,7.5-3.358,7.5-7.5V292.078
			C512,260.107,491.662,232.798,463.245,222.406z M256,72.34c4.964,0,9.002,4.038,9.002,9.002c0,0.969-0.158,1.922-0.461,2.827
			c-0.347-0.051-0.697-0.089-1.045-0.134c-2.486-0.318-4.989-0.486-7.496-0.486c-2.506,0-5.009,0.167-7.495,0.486
			c-0.349,0.045-0.699,0.083-1.046,0.134c-0.303-0.905-0.461-1.857-0.461-2.827C246.998,76.378,251.036,72.34,256,72.34z
			 M273.937,112.215c-0.206-0.035-0.414-0.068-0.621-0.102c-5.716-0.945-11.522-1.418-17.315-1.418
			c-9.348,0-18.703,1.234-27.726,3.677c-0.138,0.037-0.274,0.078-0.411,0.116c-0.77,0.212-1.541,0.417-2.305,0.648
			c2.933-8.162,12.828-14.666,24.89-16.224c0.081-0.01,0.161-0.026,0.243-0.036c3.486-0.43,7.132-0.431,10.619,0
			c0.077,0.009,0.152,0.024,0.229,0.034c12.068,1.556,21.968,8.062,24.902,16.226C282.343,113.9,278.168,112.936,273.937,112.215z
			 M432.183,204.703c8.149,0,14.904,6.077,15.973,13.937c-0.12-0.8-9.601-0.716-10.31-0.716c-0.002,0-11.326,0-11.326,0
			c-0.879-0.001-10.218,0.035-10.31,0.716C417.278,210.78,424.034,204.703,432.183,204.703z M338.244,235.575h14.121v210.463
			h-14.121V235.575z M188.755,253.479h134.489v192.559h-12.18V342.493c0-12.964-14.603-28.023-43.402-44.759
			c-3.54-2.057-7.572-3.144-11.662-3.144c-4.089,0-8.122,1.087-11.663,3.145c-28.799,16.735-43.402,31.794-43.402,44.759v103.545
			h-12.18V253.479z M296.063,446.038h-80.128V342.493c0-7.493,18.629-21.731,35.938-31.79c2.508-1.458,5.745-1.458,8.252,0
			c17.31,10.059,35.938,24.297,35.938,31.79V446.038z M159.635,235.575h14.121v210.463h-14.121V235.575z M79.818,204.703
			c8.149,0,14.904,6.077,15.973,13.937c-0.87-0.122-7.939-0.717-10.31-0.717H74.155c-3.441,0-6.903,0.24-10.31,0.717
			C64.913,210.78,71.669,204.703,79.818,204.703z M60.231,234.584c4.546-1.101,9.246-1.661,13.924-1.661H85.48
			c4.671,0,9.388,0.527,13.924,1.661c23.554,5.705,41.65,25.542,44.758,49.994H15.473C18.581,260.125,36.677,240.289,60.231,234.584
			z M15,299.576h129.635v146.46h-10.239v-56.992c0-7.422-2.617-14.649-7.368-20.351l-5.651-6.782
			c-2.845-3.413-7.025-5.371-11.468-5.371s-8.624,1.958-11.468,5.371l-5.651,6.781c-4.751,5.702-7.368,12.929-7.368,20.351v56.994
			H74.213v-56.994c0-7.422-2.617-14.649-7.368-20.351l-5.651-6.782c-2.845-3.413-7.025-5.371-11.468-5.371
			s-8.624,1.958-11.468,5.371l-5.651,6.781c-4.751,5.702-7.368,12.929-7.368,20.351v56.994H15V299.576z M119.397,389.044v56.994
			h-0.001h-18.975v-56.994c0-3.92,1.382-7.737,3.892-10.749l5.596-6.715l5.596,6.715
			C118.015,381.307,119.397,385.124,119.397,389.044z M59.214,389.044v56.994h-0.001H40.238v-56.994
			c0-3.92,1.382-7.737,3.892-10.749l5.596-6.715l5.596,6.715C57.832,381.307,59.214,385.124,59.214,389.044z M497,492.632H15
			v-31.594h482V492.632z M392.603,446.038v-56.994c0-3.92,1.382-7.737,3.892-10.748l5.596-6.715l5.596,6.714
			c2.51,3.012,3.892,6.829,3.892,10.749v56.994h-0.001H392.603z M452.787,446.038v-56.994c0-3.92,1.382-7.737,3.892-10.748
			l5.596-6.715l5.596,6.714c2.51,3.012,3.892,6.829,3.892,10.749v56.994h-0.001H452.787z M497,446.038h-10.238v-56.994
			c0-7.422-2.617-14.649-7.368-20.352l-5.65-6.78c-2.845-3.414-7.024-5.372-11.469-5.372s-8.624,1.958-11.468,5.371l-5.651,6.782
			c-4.751,5.702-7.368,12.929-7.368,20.351v56.994h-11.209v-56.994c0-7.422-2.617-14.649-7.368-20.352l-5.65-6.78
			c-2.845-3.414-7.024-5.372-11.469-5.372s-8.624,1.958-11.468,5.371l-5.651,6.782c-4.751,5.702-7.368,12.929-7.368,20.351v56.994
			h-10.238v-146.46h76.648c4.143,0,7.5-3.358,7.5-7.5c0-4.142-3.357-7.5-7.5-7.5h-76.176c3.108-24.45,21.201-44.286,44.753-49.993
			c4.545-1.101,9.251-1.662,13.929-1.662h11.326c4.689,0,9.372,0.564,13.929,1.662c23.551,5.707,41.645,25.542,44.753,49.993h-22.61
			c-4.143,0-7.5,3.358-7.5,7.5c0,4.142,3.355,7.5,7.498,7.5H497V446.038z"/>
	</g>
</g>
<g>
</g>
<g>
</g>
<g>
</g>
<g>
</g>
<g>
</g>
<g>
</g>
<g>
</g>
<g>
</g>
<g>
</g>
<g>
</g>
<g>
</g>
<g>
</g>
<g>
</g>
<g>
</g>
<g>
</g>
</svg>
