<?xml version="1.0" encoding="iso-8859-1"?>
<!-- Generator: Adobe Illustrator 19.0.0, SVG Export Plug-In . SVG Version: 6.00 Build 0)  -->
<svg version="1.1" id="Capa_1" xmlns="http://www.w3.org/2000/svg" xmlns:xlink="http://www.w3.org/1999/xlink" x="0px" y="0px"
	 viewBox="0 0 512.001 512.001" style="enable-background:new 0 0 512.001 512.001;" xml:space="preserve">
<g>
	<g>
		<path d="M197.812,164.467c-4.142,0-7.5,3.358-7.5,7.5v10.532c0,4.142,3.358,7.5,7.5,7.5c4.142,0,7.5-3.358,7.5-7.5v-10.532
			C205.312,167.825,201.954,164.467,197.812,164.467z"/>
	</g>
</g>
<g>
	<g>
		<path d="M314.193,164.467c-4.142,0-7.5,3.358-7.5,7.5v10.532c0,4.142,3.358,7.5,7.5,7.5c4.142,0,7.5-3.358,7.5-7.5v-10.532
			C321.693,167.825,318.335,164.467,314.193,164.467z"/>
	</g>
</g>
<g>
	<g>
		<path d="M275.301,176.12c-3.119-2.728-7.857-2.41-10.583,0.71c-2.106,2.409-5.283,3.791-8.716,3.791
			c-3.433,0-6.61-1.382-8.716-3.791c-2.726-3.119-7.463-3.438-10.583-0.71c-3.119,2.726-3.437,7.464-0.71,10.583
			c4.955,5.668,12.248,8.918,20.009,8.918s15.054-3.25,20.009-8.918C278.738,183.584,278.419,178.847,275.301,176.12z"/>
	</g>
</g>
<g>
	<g>
		<path d="M452.917,264.008c-15.864-13.701-45.951-18.606-64.803-20.359c5.995-7.765,9.239-15.031,10.933-19.947h11.3
			c4.142,0,7.5-3.358,7.5-7.5c0-22.172-11.206-42.603-31.554-57.529c-3.339-2.449-8.033-1.729-10.483,1.611
			c-2.45,3.34-1.729,8.033,1.611,10.483c17.029,12.493,23.155,26.55,24.867,37.935H109.701
			c2.902-19.763,16.947-32.921,28.938-40.738c17.304-11.282,40.961-18.798,70.614-22.489c0.171-0.009,0.343-0.008,0.514-0.029
			c15.329-1.889,30.795-2.635,46.236-2.635c14.996,0,30.014,0.706,44.909,2.483c19.884,2.373,37.224,6.435,51.789,12.187
			c3.853,1.523,8.209-0.368,9.73-4.221c1.521-3.853-0.368-8.209-4.221-9.73c-12.054-4.76-25.787-8.436-41.072-11.041l7.54-9.544
			c4.642-5.875,5.498-13.711,2.233-20.449c-3.264-6.738-9.943-10.924-17.43-10.924h-45.979V7.5c0-4.142-3.358-7.5-7.5-7.5
			c-4.142,0-7.5,3.358-7.5,7.5v84.07h-45.979c-7.487,0-14.167,4.186-17.43,10.924c-3.264,6.738-2.408,14.574,2.233,20.449
			l7.511,9.508c-26.248,4.462-47.795,12.127-64.39,22.946c-23.4,15.255-36.287,36.849-36.287,60.804c0,1.989,0.79,3.897,2.197,5.303
			c1.406,1.407,3.314,2.197,5.303,2.197h11.3c1.693,4.914,4.935,12.176,10.926,19.937c-18.681,1.732-48.54,6.567-64.513,20.056
			c-5.788,4.887-7.85,12.632-5.253,19.731c2.581,7.061,9.116,11.623,16.645,11.623h52.383c-5.526,7.398-8.565,14.264-10.188,18.975
			H92.201c-4.142,0-7.5,3.358-7.5,7.5c0,28.801,22.297,52.477,50.533,54.713c4.481,7.574,15.677,26.869,26.775,48.924
			c23.393,46.489,28.304,68.806,28.304,79.341c0,4.142,3.358,7.5,7.5,7.5h116.38c4.142,0,7.5-3.358,7.5-7.5
			c0-29.658,37.956-99.554,55.064-128.263c28.243-2.229,50.548-25.908,50.548-54.714c0-4.142-3.358-7.5-7.5-7.5h-20.759
			c-1.623-4.71-4.663-11.576-10.188-18.975h52.312c7.506,0,14.056-4.566,16.685-11.632
			C460.445,276.454,458.507,268.836,452.917,264.008z M202.523,106.57h106.959c3.602,0,5.651,4.26,3.427,7.075l-12.979,16.427
			c-0.065-0.007-0.133-0.013-0.198-0.02c-14.516-1.598-29.13-2.242-43.73-2.242c-14.668,0-29.356,0.643-43.939,2.248
			c0,0-12.968-16.413-12.968-16.414C196.851,110.802,198.942,106.57,202.523,106.57z M382.867,223.701
			c-2.477,5.253-6.802,12.219-14.18,18.975H143.315c-7.454-6.813-11.772-13.748-14.227-18.975H382.867z M307.217,497h-102.43
			c-4.555-35.188-37.565-95.451-52.06-120.575h26.915c1.091,8.542,3.795,23.602,10.29,38.805
			c11.116,26.018,28.752,41.843,51.508,46.478c9.543,1.956,19.604,1.939,29.145-0.005c22.733-4.63,40.37-20.455,51.485-46.473
			c6.495-15.203,9.199-30.263,10.29-38.805h26.915C344.782,401.549,311.772,461.812,307.217,497z M194.795,376.426h28.828v60.821
			c-7.987-6.4-14.589-15.605-19.753-27.578C198.446,397.096,195.927,384.331,194.795,376.426z M238.624,445.44v-69.013h34.759
			v69.013h-0.001c-0.215,0.072-0.427,0.149-0.643,0.218c-5.401,1.72-11.076,2.484-16.736,2.484
			C250.118,448.142,244.213,447.306,238.624,445.44z M288.382,437.245v-60.82h28.837c-1.115,7.815-3.592,20.391-8.941,32.911
			C303.093,421.473,296.443,430.786,288.382,437.245z M411.596,329.022c-3.518,18.431-19.755,32.403-39.195,32.403H139.604
			c-19.44,0-35.678-13.972-39.196-32.403H411.596z M129.137,314.022c2.477-5.253,6.802-12.219,14.18-18.975H368.69
			c7.45,6.81,11.768,13.743,14.224,18.975H129.137z M443.794,278.186c-0.208,0.56-0.881,1.862-2.626,1.862H70.765
			c-1.579,0-2.263-0.965-2.559-1.774c-0.25-0.687-0.475-2.005,0.844-3.119c16.363-13.818,57.081-17.301,71.444-17.479h230.922
			c14.467,0.168,55.467,3.669,71.694,17.684C444.195,276.297,444.081,277.414,443.794,278.186z"/>
	</g>
</g>
<g>
</g>
<g>
</g>
<g>
</g>
<g>
</g>
<g>
</g>
<g>
</g>
<g>
</g>
<g>
</g>
<g>
</g>
<g>
</g>
<g>
</g>
<g>
</g>
<g>
</g>
<g>
</g>
<g>
</g>
</svg>
