<?xml version="1.0" encoding="iso-8859-1"?>
<!-- Generator: Adobe Illustrator 19.0.0, SVG Export Plug-In . SVG Version: 6.00 Build 0)  -->
<svg version="1.1" id="Capa_1" xmlns="http://www.w3.org/2000/svg" xmlns:xlink="http://www.w3.org/1999/xlink" x="0px" y="0px"
	 viewBox="0 0 512 512" style="enable-background:new 0 0 512 512;" xml:space="preserve">
<g id="SVGCleanerId_0">
	<g>
		<path d="M174.439,161.93c-4.142,0-7.5,3.358-7.5,7.5v14.761c0,4.142,3.358,7.5,7.5,7.5c4.142,0,7.5-3.358,7.5-7.5V169.43
			C181.939,165.289,178.581,161.93,174.439,161.93z"/>
	</g>
</g>
<g id="SVGCleanerId_1">
	<g>
		<path d="M337.561,161.93c-4.142,0-7.5,3.358-7.5,7.5v14.761c0,4.142,3.358,7.5,7.5,7.5c4.142,0,7.5-3.358,7.5-7.5V169.43
			C345.061,165.289,341.703,161.93,337.561,161.93z"/>
	</g>
</g>
<g id="SVGCleanerId_2">
	<g>
		<path d="M281.066,177.518c-3.119-2.726-7.856-2.409-10.583,0.711c-3.523,4.031-8.802,6.342-14.483,6.342
			c-5.681,0-10.96-2.312-14.483-6.343c-2.726-3.119-7.464-3.437-10.583-0.711c-3.119,2.726-3.437,7.464-0.711,10.583
			c6.372,7.29,15.768,11.471,25.777,11.471c10.009,0,19.405-4.181,25.777-11.47C284.503,184.982,284.185,180.244,281.066,177.518z"
			/>
	</g>
</g>
<g id="SVGCleanerId_3">
	<g>
		<path d="M512,110.643c0-4.142-3.358-7.5-7.5-7.5h-18.224V63.516C502.529,60.154,512,45.46,512,22.783c0-4.142-3.358-7.5-7.5-7.5
			H94.523c-4.142,0-7.5,3.358-7.5,7.5c0,4.142,3.358,7.5,7.5,7.5h402.015c-0.669,5.08-2.058,9.285-4.11,12.373
			c-2.993,4.504-7.331,6.602-13.651,6.602H33.224c-6.321,0-10.659-2.098-13.651-6.602c-2.052-3.088-3.441-7.293-4.11-12.373h49.233
			c4.142,0,7.5-3.358,7.5-7.5c0-4.142-3.358-7.5-7.5-7.5H7.5c-4.142,0-7.5,3.358-7.5,7.5C0,45.46,9.471,60.154,25.724,63.516v39.626
			H7.5c-4.142,0-7.5,3.358-7.5,7.5c0,22.677,9.471,37.372,25.724,40.735v151.206H7.5c-4.142,0-7.5,3.358-7.5,7.5
			c0,22.677,9.471,37.372,25.724,40.735v138.399c0,4.142,3.358,7.5,7.5,7.5h445.553c4.142,0,7.5-3.358,7.5-7.5v-138.4
			C502.529,347.454,512,332.76,512,310.083c0-4.142-3.358-7.5-7.5-7.5h-18.224V151.378C502.529,148.015,512,133.32,512,110.643z
			 M412.018,64.257h59.259v38.886h-59.259V64.257z M337.759,64.257h59.259v38.886h-59.259V64.257z M263.5,64.257h59.259v38.886
			H263.5V64.257z M189.241,64.257H248.5v38.886h-59.259V64.257z M114.982,64.257h59.259v38.886h-59.259V64.257z M40.724,64.257
			h59.259v38.886H40.724V64.257z M156.284,481.716H40.724V351.557h115.56V481.716z M33.224,336.558
			c-6.321-0.001-10.659-2.099-13.652-6.602c-2.052-3.088-3.441-7.293-4.11-12.373h166.083c-0.669,5.08-2.058,9.285-4.11,12.373
			c-2.993,4.504-7.331,6.602-13.651,6.602H33.224z M340.716,481.719H171.283V350.82c0.004-0.076,4.149-1.156,4.676-1.354
			c0.197-0.074,0.391-0.152,0.585-0.23c10.517-4.221,16.612-14.14,18.996-24.835c1.032-4.631,1.455-9.389,1.466-14.129
			c0-0.063,0-0.126,0-0.188c0-4.142-3.358-7.5-7.5-7.5h-17.873c0.671-7.619,2.385-15.169,5.086-22.326
			c9.441-25.014,30.72-44.414,56.415-51.694c16.77-4.751,34.852-4.143,51.268,1.716c24.942,8.903,44.772,29.623,52.566,54.925
			c1.639,5.321,2.812,11.123,3.351,16.783c0.019,0.198,0.028,0.398,0.046,0.596h-17.873c-4.142,0-7.5,3.358-7.5,7.5
			c0,11.8,2.547,24.864,11.431,33.336c3.885,3.705,8.986,6.304,14.293,7.402V481.719z M471.276,481.716h-115.56V351.557h115.56
			V481.716z M496.539,317.583c-0.67,5.08-2.059,9.284-4.111,12.373c-2.993,4.504-7.331,6.602-13.651,6.602h-130.56
			c-6.321,0-10.659-2.098-13.651-6.602c-2.052-3.088-3.441-7.293-4.11-12.373h17.762h0.02H496.539z M478.777,137.118h-45.478
			c-4.142,0-7.5,3.358-7.5,7.5c0,4.142,3.358,7.5,7.5,7.5h37.978v150.466H355.438c-0.251-3.368-0.682-6.722-1.272-10.048
			c-4.021-22.55-16.017-43.336-33.417-58.226c-17.94-15.352-41.135-23.943-64.748-23.943c-24.044,0-47.679,8.957-65.736,24.811
			c-17.438,15.311-29.121,36.542-32.768,59.447c-0.416,2.615-0.726,5.242-0.926,7.882c-0.002,0.026-0.005,0.051-0.007,0.077H40.724
			V152.118h362.615c4.142,0,7.5-3.358,7.5-7.5c0-4.142-3.358-7.5-7.5-7.5H33.224c-6.321,0-10.659-2.098-13.651-6.602
			c-2.052-3.088-3.441-7.293-4.11-12.373h481.076c-0.67,5.08-2.059,9.285-4.111,12.373
			C489.435,135.02,485.097,137.118,478.777,137.118z"/>
	</g>
</g>
<g>
	<g>
		<path d="M174.439,161.93c-4.142,0-7.5,3.358-7.5,7.5v14.761c0,4.142,3.358,7.5,7.5,7.5c4.142,0,7.5-3.358,7.5-7.5V169.43
			C181.939,165.289,178.581,161.93,174.439,161.93z"/>
	</g>
</g>
<g>
	<g>
		<path d="M337.561,161.93c-4.142,0-7.5,3.358-7.5,7.5v14.761c0,4.142,3.358,7.5,7.5,7.5c4.142,0,7.5-3.358,7.5-7.5V169.43
			C345.061,165.289,341.703,161.93,337.561,161.93z"/>
	</g>
</g>
<g>
	<g>
		<path d="M281.066,177.518c-3.119-2.726-7.856-2.409-10.583,0.711c-3.523,4.031-8.802,6.342-14.483,6.342
			c-5.681,0-10.96-2.312-14.483-6.343c-2.726-3.119-7.464-3.437-10.583-0.711c-3.119,2.726-3.437,7.464-0.711,10.583
			c6.372,7.29,15.768,11.471,25.777,11.471c10.009,0,19.405-4.181,25.777-11.47C284.503,184.982,284.185,180.244,281.066,177.518z"
			/>
	</g>
</g>
<g>
	<g>
		<path d="M512,110.643c0-4.142-3.358-7.5-7.5-7.5h-18.224V63.516C502.529,60.154,512,45.46,512,22.783c0-4.142-3.358-7.5-7.5-7.5
			H94.523c-4.142,0-7.5,3.358-7.5,7.5c0,4.142,3.358,7.5,7.5,7.5h402.015c-0.669,5.08-2.058,9.285-4.11,12.373
			c-2.993,4.504-7.331,6.602-13.651,6.602H33.224c-6.321,0-10.659-2.098-13.651-6.602c-2.052-3.088-3.441-7.293-4.11-12.373h49.233
			c4.142,0,7.5-3.358,7.5-7.5c0-4.142-3.358-7.5-7.5-7.5H7.5c-4.142,0-7.5,3.358-7.5,7.5C0,45.46,9.471,60.154,25.724,63.516v39.626
			H7.5c-4.142,0-7.5,3.358-7.5,7.5c0,22.677,9.471,37.372,25.724,40.735v151.206H7.5c-4.142,0-7.5,3.358-7.5,7.5
			c0,22.677,9.471,37.372,25.724,40.735v138.399c0,4.142,3.358,7.5,7.5,7.5h445.553c4.142,0,7.5-3.358,7.5-7.5v-138.4
			C502.529,347.454,512,332.76,512,310.083c0-4.142-3.358-7.5-7.5-7.5h-18.224V151.378C502.529,148.015,512,133.32,512,110.643z
			 M412.018,64.257h59.259v38.886h-59.259V64.257z M337.759,64.257h59.259v38.886h-59.259V64.257z M263.5,64.257h59.259v38.886
			H263.5V64.257z M189.241,64.257H248.5v38.886h-59.259V64.257z M114.982,64.257h59.259v38.886h-59.259V64.257z M40.724,64.257
			h59.259v38.886H40.724V64.257z M156.284,481.716H40.724V351.557h115.56V481.716z M33.224,336.558
			c-6.321-0.001-10.659-2.099-13.652-6.602c-2.052-3.088-3.441-7.293-4.11-12.373h166.083c-0.669,5.08-2.058,9.285-4.11,12.373
			c-2.993,4.504-7.331,6.602-13.651,6.602H33.224z M340.716,481.719H171.283V350.82c0.004-0.076,4.149-1.156,4.676-1.354
			c0.197-0.074,0.391-0.152,0.585-0.23c10.517-4.221,16.612-14.14,18.996-24.835c1.032-4.631,1.455-9.389,1.466-14.129
			c0-0.063,0-0.126,0-0.188c0-4.142-3.358-7.5-7.5-7.5h-17.873c0.671-7.619,2.385-15.169,5.086-22.326
			c9.441-25.014,30.72-44.414,56.415-51.694c16.77-4.751,34.852-4.143,51.268,1.716c24.942,8.903,44.772,29.623,52.566,54.925
			c1.639,5.321,2.812,11.123,3.351,16.783c0.019,0.198,0.028,0.398,0.046,0.596h-17.873c-4.142,0-7.5,3.358-7.5,7.5
			c0,11.8,2.547,24.864,11.431,33.336c3.885,3.705,8.986,6.304,14.293,7.402V481.719z M471.276,481.716h-115.56V351.557h115.56
			V481.716z M496.539,317.583c-0.67,5.08-2.059,9.284-4.111,12.373c-2.993,4.504-7.331,6.602-13.651,6.602h-130.56
			c-6.321,0-10.659-2.098-13.651-6.602c-2.052-3.088-3.441-7.293-4.11-12.373h17.762h0.02H496.539z M478.777,137.118h-45.478
			c-4.142,0-7.5,3.358-7.5,7.5c0,4.142,3.358,7.5,7.5,7.5h37.978v150.466H355.438c-0.251-3.368-0.682-6.722-1.272-10.048
			c-4.021-22.55-16.017-43.336-33.417-58.226c-17.94-15.352-41.135-23.943-64.748-23.943c-24.044,0-47.679,8.957-65.736,24.811
			c-17.438,15.311-29.121,36.542-32.768,59.447c-0.416,2.615-0.726,5.242-0.926,7.882c-0.002,0.026-0.005,0.051-0.007,0.077H40.724
			V152.118h362.615c4.142,0,7.5-3.358,7.5-7.5c0-4.142-3.358-7.5-7.5-7.5H33.224c-6.321,0-10.659-2.098-13.651-6.602
			c-2.052-3.088-3.441-7.293-4.11-12.373h481.076c-0.67,5.08-2.059,9.285-4.111,12.373
			C489.435,135.02,485.097,137.118,478.777,137.118z"/>
	</g>
</g>
<g>
</g>
<g>
</g>
<g>
</g>
<g>
</g>
<g>
</g>
<g>
</g>
<g>
</g>
<g>
</g>
<g>
</g>
<g>
</g>
<g>
</g>
<g>
</g>
<g>
</g>
<g>
</g>
<g>
</g>
</svg>
